<?xml version="1.0" encoding="UTF-8" standalone="no"?>
<!-- Generator: Adobe Illustrator 16.0.0, SVG Export Plug-In . SVG Version: 6.00 Build 0)  -->

<svg
   xmlns:dc="http://purl.org/dc/elements/1.1/"
   xmlns:cc="http://creativecommons.org/ns#"
   xmlns:rdf="http://www.w3.org/1999/02/22-rdf-syntax-ns#"
   xmlns:svg="http://www.w3.org/2000/svg"
   xmlns="http://www.w3.org/2000/svg"
   xmlns:xlink="http://www.w3.org/1999/xlink"
   xmlns:sodipodi="http://sodipodi.sourceforge.net/DTD/sodipodi-0.dtd"
   xmlns:inkscape="http://www.inkscape.org/namespaces/inkscape"
   version="1.1"
   id="Ñëîé_1"
   x="0px"
   y="0px"
   width="443.66196"
   height="380.28168"
   viewBox="0 0 443.66196 380.28168"
   enable-background="new 0 0 600 450"
   xml:space="preserve"
   sodipodi:docname="envelope.svg"
   inkscape:version="0.92.4 (5da689c313, 2019-01-14)"><metadata
   id="metadata365"><rdf:RDF><cc:Work
       rdf:about=""><dc:format>image/svg+xml</dc:format><dc:type
         rdf:resource="http://purl.org/dc/dcmitype/StillImage" /></cc:Work></rdf:RDF></metadata><defs
   id="defs363" /><sodipodi:namedview
   pagecolor="#ffffff"
   bordercolor="#666666"
   borderopacity="1"
   objecttolerance="10"
   gridtolerance="10"
   guidetolerance="10"
   inkscape:pageopacity="0"
   inkscape:pageshadow="2"
   inkscape:window-width="1366"
   inkscape:window-height="705"
   id="namedview361"
   showgrid="false"
   inkscape:zoom="0.47333333"
   inkscape:cx="247.1831"
   inkscape:cy="199.64787"
   inkscape:window-x="-8"
   inkscape:window-y="-8"
   inkscape:window-maximized="1"
   inkscape:current-layer="Ñëîé_1" />
<radialGradient
   id="SVGID_1_"
   cx="323.95801"
   cy="569.03418"
   r="758.1579"
   gradientUnits="userSpaceOnUse"
   gradientTransform="matrix(0.73943662,0,0,0.84507042,2.8393555e-6,1.3212891e-6)">
	<stop
   offset="0"
   style="stop-color:#6F127E"
   id="stop2" />
	<stop
   offset="0.0826"
   style="stop-color:#651078"
   id="stop4" />
	<stop
   offset="0.5008"
   style="stop-color:#34095C"
   id="stop6" />
	<stop
   offset="0.8199"
   style="stop-color:#16044B"
   id="stop8" />
	<stop
   offset="1"
   style="stop-color:#0B0244"
   id="stop10" />
</radialGradient>


<g
   id="g356"
   transform="translate(-52.816902,-44.366196)">
	<g
   id="g317">
		<g
   id="g315">
			<defs
   id="defs46">
				<polygon
   id="SVGID_2_"
   points="260.79,209.87 245.06,251.51 425.65,96.52 " />
			</defs>
			<clipPath
   id="SVGID_3_">
				<use
   xlink:href="#SVGID_2_"
   overflow="visible"
   id="use48"
   style="overflow:visible"
   x="0"
   y="0"
   width="100%"
   height="100%" />
			</clipPath>
			<rect
   x="245.06"
   y="96.519997"
   clip-path="url(#SVGID_3_)"
   width="180.59"
   height="154.98"
   id="rect51"
   style="fill:#751480" />
			<path
   clip-path="url(#SVGID_3_)"
   d="m 244.06,231.44 v -78.36 h -6.08 C 250.33,129 268.19,107.3 290.27,89.09 v 6.43 H 426.65 V 252.5 H 244.06 Z"
   id="path53"
   inkscape:connector-curvature="0"
   style="fill:#751480" />
			<path
   clip-path="url(#SVGID_3_)"
   d="m 244.06,231.44 v -77.76 h -4.37 c 12.25,-23.9 29.98,-45.43 51.89,-63.5 v 5.35 H 426.65 V 252.51 H 244.06 Z"
   id="path55"
   inkscape:connector-curvature="0"
   style="fill:#751480" />
			<path
   clip-path="url(#SVGID_3_)"
   d="m 244.06,231.44 v -77.17 h -2.65 c 12.16,-23.72 29.75,-45.08 51.49,-63.01 v 4.26 H 426.65 V 252.5 H 244.06 Z"
   id="path57"
   inkscape:connector-curvature="0"
   style="fill:#761580" />
			<path
   clip-path="url(#SVGID_3_)"
   d="m 244.06,231.44 v -76.57 h -0.94 c 12.06,-23.53 29.52,-44.73 51.1,-62.53 v 3.17 H 426.65 V 252.49 H 244.06 Z"
   id="path59"
   inkscape:connector-curvature="0"
   style="fill:#761580" />
			<path
   clip-path="url(#SVGID_3_)"
   d="m 244.06,231.44 v -39.33 -27.77 h -3.45 c 1.33,-2.99 2.74,-5.94 4.24,-8.86 11.97,-23.35 29.29,-44.38 50.7,-62.04 v 2.09 h 131.11 v 156.98 h -182.6 z"
   id="path61"
   inkscape:connector-curvature="0"
   style="fill:#771680" />
			<path
   clip-path="url(#SVGID_3_)"
   d="m 244.06,231.44 v -39.02 -18.56 h -5.39 c 2.29,-6.06 4.92,-12 7.89,-17.79 11.88,-23.17 29.06,-44.03 50.3,-61.55 v 1 h 129.8 V 252.5 h -182.6 z"
   id="path63"
   inkscape:connector-curvature="0"
   style="fill:#771680" />
			<path
   clip-path="url(#SVGID_3_)"
   d="m 244.06,231.44 v -38.71 -18.41 h -3.62 c 2.27,-6.02 4.88,-11.9 7.83,-17.65 11.78,-22.98 28.83,-43.68 49.9,-61.06 2.63,-2.17 5.33,-4.29 8.09,-6.36 v 6.27 H 426.65 V 252.5 H 244.06 Z"
   id="path65"
   inkscape:connector-curvature="0"
   style="fill:#781780" />
			<path
   clip-path="url(#SVGID_3_)"
   d="m 244.06,231.44 v -38.4 -18.26 h -1.84 c 2.25,-5.97 4.85,-11.81 7.77,-17.51 11.69,-22.8 28.6,-43.33 49.5,-60.57 2.61,-2.16 5.29,-4.26 8.02,-6.31 v 5.14 H 426.65 V 252.51 H 244.06 Z"
   id="path67"
   inkscape:connector-curvature="0"
   style="fill:#781780" />
			<path
   clip-path="url(#SVGID_3_)"
   d="m 244.06,231.44 v -38.1 h -5.7 c 3.05,-12.3 7.55,-24.17 13.35,-35.48 11.59,-22.61 28.37,-42.98 49.1,-60.08 2.59,-2.14 5.24,-4.22 7.96,-6.26 v 4 H 426.66 V 252.5 h -182.6 z"
   id="path69"
   inkscape:connector-curvature="0"
   style="fill:#791881" />
			<path
   clip-path="url(#SVGID_3_)"
   d="m 244.06,231.44 v -37.79 h -3.88 c 3.03,-12.21 7.49,-23.98 13.24,-35.19 11.5,-22.43 28.14,-42.63 48.7,-59.59 2.57,-2.12 5.2,-4.19 7.89,-6.21 v 2.86 H 426.65 V 252.5 H 244.06 Z"
   id="path71"
   inkscape:connector-curvature="0"
   style="fill:#7a1881" />
			<path
   clip-path="url(#SVGID_3_)"
   d="m 237.42,231.44 c 0,-51.35 25.23,-97.84 66.01,-131.49 2.55,-2.1 5.16,-4.16 7.83,-6.16 v 1.72 H 426.64 V 252.49 H 244.06 v -21.06 h -6.64 z"
   id="path73"
   inkscape:connector-curvature="0"
   style="fill:#7a1981" />
			<path
   clip-path="url(#SVGID_3_)"
   d="m 239.29,231.44 c 0,-50.92 25.02,-97.03 65.47,-130.4 5.06,-4.17 10.35,-8.14 15.87,-11.9 v 6.38 H 426.65 V 252.5 H 244.06 v -21.06 z"
   id="path75"
   inkscape:connector-curvature="0"
   style="fill:#7b1981" />
			<path
   clip-path="url(#SVGID_3_)"
   d="m 241.15,231.44 c 0,-50.5 24.81,-96.22 64.92,-129.31 5.01,-4.14 10.27,-8.08 15.74,-11.8 v 5.2 H 426.65 V 252.51 H 244.06 v -21.06 h -2.91 z"
   id="path77"
   inkscape:connector-curvature="0"
   style="fill:#7c1a81" />
			<path
   clip-path="url(#SVGID_3_)"
   d="m 243.01,231.44 c 0,-50.08 24.6,-95.41 64.38,-128.23 4.97,-4.1 10.18,-8.01 15.61,-11.7 v 4.01 H 426.65 V 252.5 h -181.1 v 6.55 c -0.56,-3 -1.02,-6.03 -1.4,-9.08 -0.75,-6.08 -1.14,-12.27 -1.14,-18.53 z"
   id="path79"
   inkscape:connector-curvature="0"
   style="fill:#7c1b81" />
			<path
   clip-path="url(#SVGID_3_)"
   d="m 244.88,231.44 c 0,-49.65 24.39,-94.6 63.83,-127.14 4.93,-4.07 10.09,-7.94 15.48,-11.6 v 2.83 H 426.66 V 252.51 H 247.39 v 6.32 c -0.55,-2.98 -1.01,-5.98 -1.39,-9 -0.74,-6.05 -1.12,-12.18 -1.12,-18.39 z"
   id="path81"
   inkscape:connector-curvature="0"
   style="fill:#7d1b81" />
			<path
   clip-path="url(#SVGID_3_)"
   d="m 246.74,231.44 c 0,-49.23 24.18,-93.79 63.29,-126.05 4.89,-4.03 10.01,-7.87 15.34,-11.51 v 1.64 H 426.65 V 252.5 H 249.23 v 6.08 c -0.55,-2.95 -1,-5.93 -1.37,-8.92 -0.74,-5.98 -1.12,-12.06 -1.12,-18.22 z"
   id="path83"
   inkscape:connector-curvature="0"
   style="fill:#7e1c81" />
			<path
   clip-path="url(#SVGID_3_)"
   d="m 248.6,231.44 c 0,-48.8 23.98,-92.98 62.74,-124.97 4.85,-4 9.92,-7.8 15.21,-11.41 v 0.45 h 100.1 V 252.49 H 251.07 v 5.85 c -0.54,-2.93 -1,-5.87 -1.36,-8.84 -0.73,-5.93 -1.11,-11.96 -1.11,-18.06 z"
   id="path85"
   inkscape:connector-curvature="0"
   style="fill:#7f1d81" />
			<path
   clip-path="url(#SVGID_3_)"
   d="m 250.46,231.44 c 0,-48.38 23.77,-92.18 62.19,-123.88 4.8,-3.96 9.84,-7.74 15.08,-11.31 2.62,-1.79 5.3,-3.52 8.02,-5.2 v 4.47 h 90.89 V 252.5 H 252.91 v 5.62 c -0.54,-2.9 -0.99,-5.82 -1.35,-8.77 -0.73,-5.89 -1.1,-11.86 -1.1,-17.91 z"
   id="path87"
   inkscape:connector-curvature="0"
   style="fill:#7f1d82" />
			<path
   clip-path="url(#SVGID_3_)"
   d="m 252.33,231.44 c 0,-47.95 23.56,-91.37 61.65,-122.79 4.76,-3.93 9.75,-7.67 14.95,-11.21 2.6,-1.77 5.25,-3.49 7.95,-5.16 v 3.24 h 89.78 V 252.5 h -171.9 v 5.38 c -0.53,-2.88 -0.98,-5.77 -1.34,-8.69 -0.73,-5.83 -1.09,-11.75 -1.09,-17.75 z"
   id="path89"
   inkscape:connector-curvature="0"
   style="fill:#801e82" />
			<path
   clip-path="url(#SVGID_3_)"
   d="m 254.19,231.44 c 0,-47.53 23.35,-90.56 61.1,-121.71 9.44,-7.79 19.78,-14.83 30.88,-21.02 v 6.81 h 80.48 V 252.5 H 256.59 v 5.15 c -0.53,-2.85 -0.97,-5.72 -1.33,-8.61 -0.71,-5.79 -1.07,-11.66 -1.07,-17.6 z"
   id="path91"
   inkscape:connector-curvature="0"
   style="fill:#811f82" />
			<path
   clip-path="url(#SVGID_3_)"
   d="m 256.05,231.44 c 0,-47.1 23.14,-89.75 60.56,-120.62 9.35,-7.72 19.6,-14.7 30.6,-20.83 v 5.53 h 79.44 V 252.5 H 258.43 v 4.91 c -0.52,-2.82 -0.96,-5.67 -1.31,-8.54 -0.71,-5.72 -1.07,-11.54 -1.07,-17.43 z"
   id="path93"
   inkscape:connector-curvature="0"
   style="fill:#822082" />
			<path
   clip-path="url(#SVGID_3_)"
   d="m 257.91,231.44 c 0,-46.68 22.93,-88.94 60.01,-119.53 9.27,-7.65 19.42,-14.57 30.32,-20.64 v 4.26 h 78.4 V 252.51 H 260.27 v 4.68 c -0.52,-2.8 -0.95,-5.62 -1.3,-8.46 -0.7,-5.69 -1.06,-11.45 -1.06,-17.29 z"
   id="path95"
   inkscape:connector-curvature="0"
   style="fill:#832082" />
			<path
   clip-path="url(#SVGID_3_)"
   d="m 259.78,231.44 c 0,-46.26 22.73,-88.13 59.47,-118.45 9.19,-7.58 19.25,-14.43 30.05,-20.45 v 2.98 h 77.36 V 252.5 H 262.12 v 4.45 c -0.51,-2.77 -0.94,-5.57 -1.29,-8.38 -0.7,-5.63 -1.05,-11.35 -1.05,-17.13 z"
   id="path97"
   inkscape:connector-curvature="0"
   style="fill:#832182" />
			<path
   clip-path="url(#SVGID_3_)"
   d="m 261.64,231.44 c 0,-45.83 22.52,-87.33 58.92,-117.36 9.1,-7.51 19.07,-14.3 29.77,-20.27 v 1.71 h 76.32 V 252.5 H 263.96 v 4.21 c -0.51,-2.75 -0.94,-5.52 -1.28,-8.31 -0.69,-5.57 -1.04,-11.23 -1.04,-16.96 z"
   id="path99"
   inkscape:connector-curvature="0"
   style="fill:#842282" />
			<path
   clip-path="url(#SVGID_3_)"
   d="m 263.5,231.44 c 0,-45.41 22.31,-86.52 58.38,-116.27 9.02,-7.44 18.89,-14.17 29.5,-20.08 v 0.43 h 75.28 V 252.5 H 265.8 v 3.98 c -0.5,-2.72 -0.93,-5.47 -1.27,-8.23 -0.68,-5.52 -1.03,-11.13 -1.03,-16.81 z"
   id="path101"
   inkscape:connector-curvature="0"
   style="fill:#852282" />
			<path
   clip-path="url(#SVGID_3_)"
   d="m 265.36,231.44 c 0,-44.98 22.1,-85.71 57.83,-115.19 8.93,-7.37 18.72,-14.04 29.22,-19.89 2.63,-1.46 5.3,-2.88 8.01,-4.24 v 3.4 h 66.22 V 252.5 h -159 v 3.74 c -0.5,-2.7 -0.92,-5.41 -1.26,-8.15 -0.67,-5.47 -1.02,-11.02 -1.02,-16.65 z"
   id="path103"
   inkscape:connector-curvature="0"
   style="fill:#862382" />
			<path
   clip-path="url(#SVGID_3_)"
   d="m 267.23,231.44 c 0,-44.56 21.89,-84.9 57.28,-114.1 8.85,-7.3 18.54,-13.9 28.95,-19.7 5.2,-2.9 10.58,-5.6 16.13,-8.08 v 5.97 h 57.07 V 252.51 H 269.48 v 3.51 c -0.49,-2.67 -0.91,-5.36 -1.24,-8.08 -0.67,-5.42 -1.01,-10.93 -1.01,-16.5 z"
   id="path105"
   inkscape:connector-curvature="0"
   style="fill:#872483" />
			<path
   clip-path="url(#SVGID_3_)"
   d="m 269.09,231.44 c 0,-44.13 21.68,-84.09 56.74,-113.01 8.76,-7.23 18.36,-13.77 28.67,-19.52 5.15,-2.87 10.48,-5.55 15.97,-8.01 v 4.62 h 56.18 V 252.5 H 271.32 v 3.28 c -0.49,-2.65 -0.9,-5.31 -1.23,-8 -0.66,-5.37 -1,-10.82 -1,-16.34 z"
   id="path107"
   inkscape:connector-curvature="0"
   style="fill:#872583" />
			<path
   clip-path="url(#SVGID_3_)"
   d="m 270.95,231.44 c 0,-43.71 21.47,-83.28 56.19,-111.93 8.68,-7.16 18.19,-13.64 28.39,-19.33 5.1,-2.84 10.38,-5.49 15.82,-7.93 v 3.26 h 55.29 V 252.49 H 273.16 v 3.04 c -0.49,-2.62 -0.89,-5.26 -1.22,-7.92 -0.65,-5.31 -0.99,-10.7 -0.99,-16.17 z"
   id="path109"
   inkscape:connector-curvature="0"
   style="fill:#882683" />
			<path
   clip-path="url(#SVGID_3_)"
   d="m 272.82,231.44 c 0,-43.29 21.27,-82.47 55.65,-110.84 8.59,-7.09 18.01,-13.51 28.12,-19.14 5.05,-2.82 10.28,-5.44 15.67,-7.85 v 1.91 h 54.4 V 252.5 H 275 v 2.81 c -0.48,-2.59 -0.88,-5.21 -1.21,-7.84 -0.64,-5.27 -0.97,-10.62 -0.97,-16.03 z"
   id="path111"
   inkscape:connector-curvature="0"
   style="fill:#892683" />
			<path
   clip-path="url(#SVGID_3_)"
   d="m 274.68,231.44 c 0,-42.86 21.06,-81.67 55.1,-109.75 8.51,-7.02 17.83,-13.37 27.84,-18.95 5,-2.79 10.18,-5.39 15.51,-7.77 v 0.56 h 53.52 v 156.98 h -149.8 v 2.57 c -0.48,-2.57 -0.88,-5.16 -1.2,-7.77 -0.64,-5.22 -0.97,-10.51 -0.97,-15.87 z"
   id="path113"
   inkscape:connector-curvature="0"
   style="fill:#8a2783" />
			<path
   clip-path="url(#SVGID_3_)"
   d="m 276.54,231.44 c 0,-42.44 20.85,-80.86 54.56,-108.67 16.85,-13.9 36.92,-25.16 59.21,-32.93 v 5.68 h 36.35 V 252.5 H 278.69 v 2.34 c -0.47,-2.54 -0.87,-5.11 -1.18,-7.69 -0.64,-5.16 -0.97,-10.4 -0.97,-15.71 z"
   id="path115"
   inkscape:connector-curvature="0"
   style="fill:#8b2883" />
			<path
   clip-path="url(#SVGID_3_)"
   d="m 278.4,231.44 c 0,-42.01 20.64,-80.05 54.01,-107.58 16.69,-13.77 36.55,-24.91 58.62,-32.6 v 4.27 h 35.62 V 252.51 H 280.53 v 2.1 c -0.47,-2.52 -0.86,-5.06 -1.17,-7.61 -0.63,-5.12 -0.96,-10.31 -0.96,-15.56 z"
   id="path117"
   inkscape:connector-curvature="0"
   style="fill:#8c2983" />
			<path
   clip-path="url(#SVGID_3_)"
   d="m 280.27,231.44 c 0,-41.59 20.43,-79.24 53.47,-106.49 16.52,-13.63 36.18,-24.65 58.02,-32.28 v 2.85 h 34.9 V 252.5 H 282.37 v 1.87 c -0.46,-2.49 -0.85,-5.01 -1.16,-7.54 -0.63,-5.05 -0.94,-10.19 -0.94,-15.39 z"
   id="path119"
   inkscape:connector-curvature="0"
   style="fill:#8d2a83" />
			<path
   clip-path="url(#SVGID_3_)"
   d="m 282.13,231.44 c 0,-41.16 20.22,-78.43 52.92,-105.41 16.35,-13.49 35.81,-24.4 57.43,-31.95 v 1.43 h 34.17 V 252.49 H 284.21 v 1.64 c -0.46,-2.47 -0.84,-4.95 -1.15,-7.46 -0.62,-5 -0.93,-10.08 -0.93,-15.23 z"
   id="path121"
   inkscape:connector-curvature="0"
   style="fill:#8e2a84" />
			<path
   clip-path="url(#SVGID_3_)"
   d="m 283.99,231.44 c 0,-40.74 20.01,-77.62 52.37,-104.32 16.18,-13.35 35.45,-24.15 56.84,-31.62 v 0.02 h 33.45 V 252.5 h -140.6 v 1.4 c -0.45,-2.44 -0.83,-4.9 -1.14,-7.38 -0.61,-4.95 -0.92,-9.99 -0.92,-15.08 z"
   id="path123"
   inkscape:connector-curvature="0"
   style="fill:#8f2b84" />
			<path
   clip-path="url(#SVGID_3_)"
   d="m 285.85,231.44 c 0,-40.32 19.81,-76.81 51.83,-103.23 16.01,-13.21 35.08,-23.9 56.25,-31.29 5.29,-1.85 10.72,-3.49 16.26,-4.91 v 3.51 h 16.46 V 252.5 H 287.89 v 1.17 c -0.45,-2.42 -0.82,-4.85 -1.13,-7.31 -0.6,-4.9 -0.91,-9.88 -0.91,-14.92 z"
   id="path125"
   inkscape:connector-curvature="0"
   style="fill:#8f2c84" />
			<path
   clip-path="url(#SVGID_3_)"
   d="m 287.72,231.44 c 0,-39.89 19.6,-76.01 51.28,-102.15 15.84,-13.07 34.71,-23.65 55.65,-30.96 10.47,-3.66 21.47,-6.49 32.87,-8.42 l -0.87,5.6 V 252.49 H 289.73 v 0.93 c -0.44,-2.39 -0.81,-4.8 -1.11,-7.23 -0.6,-4.83 -0.9,-9.76 -0.9,-14.75 z"
   id="path127"
   inkscape:connector-curvature="0"
   style="fill:#902d84" />
			<path
   clip-path="url(#SVGID_3_)"
   d="m 289.58,231.44 c 0,-39.47 19.39,-75.2 50.74,-101.06 15.67,-12.93 34.34,-23.4 55.06,-30.63 10.36,-3.62 21.24,-6.42 32.52,-8.33 l -1.25,4.1 V 252.5 H 291.58 v 0.7 c -0.44,-2.37 -0.81,-4.75 -1.1,-7.15 -0.6,-4.8 -0.9,-9.67 -0.9,-14.61 z"
   id="path129"
   inkscape:connector-curvature="0"
   style="fill:#912e84" />
			<path
   clip-path="url(#SVGID_3_)"
   d="m 291.44,231.44 c 0,-39.04 19.18,-74.39 50.19,-99.97 15.5,-12.79 33.97,-23.15 54.47,-30.3 10.25,-3.58 21.01,-6.35 32.17,-8.24 l -1.62,2.59 V 252.5 H 293.42 v 0.47 c -0.43,-2.34 -0.8,-4.7 -1.09,-7.08 -0.59,-4.75 -0.89,-9.57 -0.89,-14.45 z"
   id="path131"
   inkscape:connector-curvature="0"
   style="fill:#922f84" />
			<path
   clip-path="url(#SVGID_3_)"
   d="m 293.3,231.44 c 0,-38.62 18.97,-73.58 49.65,-98.89 15.34,-12.65 33.6,-22.89 53.88,-29.97 10.14,-3.54 20.78,-6.29 31.82,-8.15 l -2,1.09 V 252.5 H 295.26 v 0.23 c -0.43,-2.31 -0.79,-4.65 -1.08,-7 -0.58,-4.69 -0.88,-9.46 -0.88,-14.29 z"
   id="path133"
   inkscape:connector-curvature="0"
   style="fill:#932f84" />
			<path
   clip-path="url(#SVGID_3_)"
   d="m 295.17,231.44 c 0,-38.19 18.76,-72.77 49.1,-97.8 15.17,-12.51 33.23,-22.64 53.28,-29.64 10.03,-3.5 20.55,-6.22 31.47,-8.06 h -2.37 V 252.5 H 298.57 v 6.81 c -2.23,-9 -3.4,-18.32 -3.4,-27.87 z"
   id="path135"
   inkscape:connector-curvature="0"
   style="fill:#943085" />
			<path
   clip-path="url(#SVGID_3_)"
   d="m 297.03,231.44 c 0,-37.77 18.55,-71.96 48.55,-96.71 15,-12.38 32.86,-22.39 52.69,-29.31 9.92,-3.46 20.33,-6.15 31.12,-7.97 h -2.75 V 252.51 H 300.4 v 6.5 c -2.21,-8.91 -3.37,-18.13 -3.37,-27.57 z"
   id="path137"
   inkscape:connector-curvature="0"
   style="fill:#953185" />
			<path
   clip-path="url(#SVGID_3_)"
   d="m 298.89,231.44 c 0,-37.34 18.35,-71.15 48.01,-95.63 14.83,-12.24 32.49,-22.14 52.1,-28.98 9.81,-3.42 20.1,-6.08 30.77,-7.88 h -3.12 V 252.5 H 302.22 v 6.19 c -2.18,-8.8 -3.33,-17.91 -3.33,-27.25 z"
   id="path139"
   inkscape:connector-curvature="0"
   style="fill:#963285" />
			<path
   clip-path="url(#SVGID_3_)"
   d="m 300.75,231.44 c 0,-36.92 18.14,-70.35 47.46,-94.54 14.66,-12.1 32.12,-21.89 51.51,-28.65 9.69,-3.38 19.87,-6.01 30.42,-7.79 h -3.5 v 152.05 h -122.6 v 5.88 c -2.15,-8.71 -3.29,-17.72 -3.29,-26.95 z"
   id="path141"
   inkscape:connector-curvature="0"
   style="fill:#973385" />
			<path
   clip-path="url(#SVGID_3_)"
   d="m 302.62,231.44 c 0,-36.5 17.93,-69.54 46.92,-93.45 14.5,-11.96 31.75,-21.64 50.92,-28.32 9.58,-3.34 19.64,-5.94 30.07,-7.7 h -3.87 V 252.51 H 305.87 v 5.57 c -2.13,-8.61 -3.25,-17.51 -3.25,-26.64 z"
   id="path143"
   inkscape:connector-curvature="0"
   style="fill:#983485" />
			<path
   clip-path="url(#SVGID_3_)"
   d="m 304.48,231.44 c 0,-36.07 17.72,-68.73 46.37,-92.37 14.33,-11.82 31.38,-21.38 50.33,-27.99 9.47,-3.3 19.41,-5.87 29.72,-7.61 h -4.25 V 252.51 H 307.7 v 5.26 c -2.11,-8.51 -3.22,-17.31 -3.22,-26.33 z"
   id="path145"
   inkscape:connector-curvature="0"
   style="fill:#993585" />
			<path
   clip-path="url(#SVGID_3_)"
   d="m 306.34,231.44 c 0,-35.65 17.51,-67.92 45.83,-91.28 14.16,-11.68 31.02,-21.13 49.73,-27.66 9.36,-3.27 19.18,-5.8 29.37,-7.52 h -4.63 V 252.51 H 309.52 v 4.95 c -2.08,-8.41 -3.18,-17.11 -3.18,-26.02 z"
   id="path147"
   inkscape:connector-curvature="0"
   style="fill:#9a3585" />
			<path
   clip-path="url(#SVGID_3_)"
   d="m 308.21,231.44 c 0,-35.22 17.3,-67.11 45.28,-90.19 13.99,-11.54 30.65,-20.88 49.14,-27.34 9.25,-3.23 18.96,-5.73 29.02,-7.43 h -5 v 146.03 h -115.3 v 4.64 c -2.06,-8.31 -3.14,-16.9 -3.14,-25.71 z"
   id="path149"
   inkscape:connector-curvature="0"
   style="fill:#9b3685" />
			<path
   clip-path="url(#SVGID_3_)"
   d="m 310.07,231.44 c 0,-34.8 17.1,-66.3 44.74,-89.11 13.82,-11.4 30.28,-20.63 48.55,-27.01 9.14,-3.19 18.73,-5.66 28.67,-7.34 h -5.38 V 252.5 H 313.17 v 4.33 c -2.03,-8.19 -3.1,-16.69 -3.1,-25.39 z"
   id="path151"
   inkscape:connector-curvature="0"
   style="fill:#9c3786" />
			<path
   clip-path="url(#SVGID_3_)"
   d="m 311.93,231.44 c 0,-34.37 16.89,-65.49 44.19,-88.02 13.65,-11.26 29.91,-20.38 47.96,-26.68 9.02,-3.15 18.5,-5.6 28.32,-7.25 h -5.75 V 252.5 H 315 v 4.02 c -2.01,-8.09 -3.07,-16.48 -3.07,-25.08 z"
   id="path153"
   inkscape:connector-curvature="0"
   style="fill:#9d3886" />
			<path
   clip-path="url(#SVGID_3_)"
   d="m 313.79,231.44 c 0,-33.95 16.68,-64.69 43.65,-86.93 13.48,-11.12 29.54,-20.13 47.37,-26.35 8.91,-3.11 18.27,-5.53 27.97,-7.16 h -6.13 V 252.51 H 316.82 v 3.71 c -1.98,-8 -3.03,-16.29 -3.03,-24.78 z"
   id="path155"
   inkscape:connector-curvature="0"
   style="fill:#9e3986" />
			<path
   clip-path="url(#SVGID_3_)"
   d="m 315.66,231.44 c 0,-33.53 16.47,-63.88 43.1,-85.85 13.31,-10.99 29.17,-19.88 46.77,-26.02 8.8,-3.07 18.04,-5.46 27.62,-7.07 h -6.5 v 140 h -108 v 3.4 c -1.96,-7.89 -2.99,-16.08 -2.99,-24.46 z"
   id="path157"
   inkscape:connector-curvature="0"
   style="fill:#9f3a86" />
			<path
   clip-path="url(#SVGID_3_)"
   d="m 317.52,231.44 c 0,-33.1 16.26,-63.07 42.55,-84.76 13.15,-10.85 28.8,-19.62 46.18,-25.69 8.69,-3.03 17.81,-5.39 27.27,-6.98 h -6.88 v 138.5 H 320.47 v 3.09 c -1.93,-7.8 -2.95,-15.88 -2.95,-24.16 z"
   id="path159"
   inkscape:connector-curvature="0"
   style="fill:#a03b86" />
			<path
   clip-path="url(#SVGID_3_)"
   d="m 319.38,231.44 c 0,-32.68 16.05,-62.26 42.01,-83.67 12.98,-10.71 28.43,-19.37 45.59,-25.36 4.29,-1.5 8.69,-2.83 13.18,-3.98 2.25,-0.58 4.51,-1.11 6.81,-1.59 h -0.31 V 252.51 H 322.3 v 2.78 c -1.92,-7.7 -2.92,-15.68 -2.92,-23.85 z"
   id="path161"
   inkscape:connector-curvature="0"
   style="fill:#a13c86" />
			<path
   clip-path="url(#SVGID_3_)"
   d="m 321.24,231.44 c 0,-32.25 15.85,-61.45 41.46,-82.59 12.81,-10.57 28.06,-19.12 45,-25.03 4.23,-1.48 8.57,-2.79 13.01,-3.93 2.22,-0.57 4.46,-1.09 6.72,-1.57 h -0.78 V 252.5 H 324.12 v 2.47 c -1.89,-7.59 -2.88,-15.47 -2.88,-23.53 z"
   id="path163"
   inkscape:connector-curvature="0"
   style="fill:#a23d87" />
			<path
   clip-path="url(#SVGID_3_)"
   d="m 323.11,231.44 c 0,-31.83 15.64,-60.64 40.92,-81.5 12.64,-10.43 27.69,-18.87 44.41,-24.7 4.18,-1.46 8.46,-2.75 12.83,-3.88 2.19,-0.56 4.4,-1.08 6.63,-1.55 h -1.25 V 252.5 h -100.7 v 2.16 c -1.87,-7.49 -2.84,-15.26 -2.84,-23.22 z"
   id="path165"
   inkscape:connector-curvature="0"
   style="fill:#a33e87" />
			<path
   clip-path="url(#SVGID_3_)"
   d="m 324.97,231.44 c 0,-31.4 15.43,-59.83 40.37,-80.41 12.47,-10.29 27.32,-18.62 43.81,-24.37 4.12,-1.44 8.35,-2.72 12.66,-3.82 2.16,-0.55 4.34,-1.06 6.54,-1.53 h -1.71 v 131.21 h -98.88 v 1.85 c -1.83,-7.41 -2.79,-15.08 -2.79,-22.93 z"
   id="path167"
   inkscape:connector-curvature="0"
   style="fill:#a43f87" />
			<path
   clip-path="url(#SVGID_3_)"
   d="m 326.83,231.44 c 0,-30.98 15.22,-59.03 39.83,-79.33 12.3,-10.15 26.95,-18.37 43.22,-24.04 4.07,-1.42 8.24,-2.68 12.49,-3.77 2.13,-0.55 4.28,-1.05 6.45,-1.51 h -2.18 V 252.51 H 329.6 v 1.54 c -1.82,-7.3 -2.77,-14.86 -2.77,-22.61 z"
   id="path169"
   inkscape:connector-curvature="0"
   style="fill:#a54087" />
			<path
   clip-path="url(#SVGID_3_)"
   d="m 328.7,231.44 c 0,-30.55 15.01,-58.22 39.28,-78.24 12.13,-10.01 26.58,-18.11 42.63,-23.71 4.01,-1.4 8.12,-2.64 12.32,-3.72 2.1,-0.54 4.22,-1.04 6.36,-1.49 h -2.64 v 128.23 h -95.23 v 1.23 c -1.79,-7.2 -2.72,-14.66 -2.72,-22.3 z"
   id="path171"
   inkscape:connector-curvature="0"
   style="fill:#a64087" />
			<path
   clip-path="url(#SVGID_3_)"
   d="m 330.56,231.44 c 0,-30.13 14.8,-57.41 38.74,-77.15 11.97,-9.87 26.21,-17.86 42.04,-23.38 3.96,-1.38 8.01,-2.61 12.15,-3.67 2.07,-0.53 4.16,-1.02 6.28,-1.47 h -3.11 v 126.74 h -93.41 v 0.92 c -1.77,-7.1 -2.69,-14.46 -2.69,-21.99 z"
   id="path173"
   inkscape:connector-curvature="0"
   style="fill:#a74187" />
			<path
   clip-path="url(#SVGID_3_)"
   d="m 332.42,231.44 c 0,-29.71 14.59,-56.6 38.19,-76.07 11.8,-9.73 25.85,-17.61 41.45,-23.05 3.9,-1.36 7.9,-2.57 11.98,-3.62 2.04,-0.52 4.1,-1.01 6.19,-1.45 h -3.57 V 252.5 h -91.58 v 0.62 c -1.75,-7 -2.66,-14.25 -2.66,-21.68 z"
   id="path175"
   inkscape:connector-curvature="0"
   style="fill:#a84287" />
			<path
   clip-path="url(#SVGID_3_)"
   d="m 334.28,231.44 c 0,-29.28 14.39,-55.79 37.64,-74.98 11.63,-9.59 25.48,-17.36 40.85,-22.73 3.84,-1.34 7.78,-2.53 11.81,-3.57 2.01,-0.52 4.05,-0.99 6.1,-1.43 h -4.04 v 123.76 h -89.75 v 0.31 c -1.71,-6.89 -2.61,-14.04 -2.61,-21.36 z"
   id="path177"
   inkscape:connector-curvature="0"
   style="fill:#a94388" />
			<path
   clip-path="url(#SVGID_3_)"
   d="m 336.15,231.44 c 0,-28.86 14.18,-54.98 37.1,-73.89 11.46,-9.46 25.11,-17.11 40.26,-22.4 3.79,-1.32 7.67,-2.5 11.64,-3.51 1.98,-0.51 3.99,-0.98 6.01,-1.41 h -4.5 v 122.28 h -86.52 v 5.05 c -0.52,-1.67 -0.99,-3.36 -1.42,-5.06 -1.69,-6.8 -2.57,-13.84 -2.57,-21.06 z"
   id="path179"
   inkscape:connector-curvature="0"
   style="fill:#aa4488" />
			<path
   clip-path="url(#SVGID_3_)"
   d="m 338.01,231.44 c 0,-28.43 13.97,-54.17 36.55,-72.81 11.29,-9.32 24.74,-16.86 39.67,-22.07 3.73,-1.3 7.56,-2.46 11.46,-3.46 1.96,-0.5 3.93,-0.96 5.92,-1.39 h -4.97 V 252.5 h -84.71 v 4.67 c -0.51,-1.65 -0.98,-3.31 -1.39,-4.98 -1.66,-6.7 -2.53,-13.64 -2.53,-20.75 z"
   id="path181"
   inkscape:connector-curvature="0"
   style="fill:#ab4588" />
			<path
   clip-path="url(#SVGID_3_)"
   d="m 339.87,231.44 c 0,-28.01 13.76,-53.37 36.01,-71.72 11.12,-9.18 24.37,-16.6 39.08,-21.74 3.68,-1.28 7.45,-2.42 11.29,-3.41 1.92,-0.49 3.87,-0.95 5.83,-1.37 h -5.43 v 119.3 h -82.91 v 4.28 c -0.5,-1.62 -0.96,-3.26 -1.37,-4.91 -1.64,-6.59 -2.5,-13.43 -2.5,-20.43 z"
   id="path183"
   inkscape:connector-curvature="0"
   style="fill:#ac4688" />
			<path
   clip-path="url(#SVGID_3_)"
   d="m 341.73,231.44 c 0,-27.58 13.55,-52.56 35.46,-70.63 10.96,-9.04 24,-16.35 38.48,-21.41 3.62,-1.26 7.33,-2.39 11.12,-3.36 h -0.15 V 252.5 h -81.1 v 3.9 c -0.5,-1.6 -0.95,-3.21 -1.35,-4.83 -1.61,-6.5 -2.46,-13.23 -2.46,-20.13 z"
   id="path185"
   inkscape:connector-curvature="0"
   style="fill:#ad4788" />
			<path
   clip-path="url(#SVGID_3_)"
   d="m 343.6,231.44 c 0,-27.16 13.34,-51.75 34.92,-69.55 10.79,-8.9 23.63,-16.1 37.89,-21.08 3.57,-1.24 7.22,-2.35 10.95,-3.31 h -0.71 v 115 h -79.3 v 3.52 c -0.49,-1.57 -0.93,-3.16 -1.33,-4.76 -1.59,-6.4 -2.42,-13.03 -2.42,-19.82 z"
   id="path187"
   inkscape:connector-curvature="0"
   style="fill:#ae4888" />
			<path
   clip-path="url(#SVGID_3_)"
   d="m 345.46,231.44 c 0,-26.74 13.13,-50.94 34.37,-68.46 10.62,-8.76 23.26,-15.85 37.3,-20.75 3.51,-1.22 7.11,-2.31 10.78,-3.26 h -1.26 V 252.5 h -77.5 v 3.13 c -0.48,-1.55 -0.92,-3.11 -1.31,-4.68 -1.56,-6.3 -2.38,-12.82 -2.38,-19.51 z"
   id="path189"
   inkscape:connector-curvature="0"
   style="fill:#af4988" />
			<path
   clip-path="url(#SVGID_3_)"
   d="m 347.32,231.44 c 0,-26.31 12.93,-50.13 33.82,-67.37 10.45,-8.62 22.89,-15.6 36.71,-20.42 3.45,-1.21 6.99,-2.28 10.61,-3.2 h -1.82 v 112.06 h -75.69 v 2.75 c -0.47,-1.52 -0.91,-3.06 -1.29,-4.61 -1.53,-6.21 -2.34,-12.63 -2.34,-19.21 z"
   id="path191"
   inkscape:connector-curvature="0"
   style="fill:#b04a89" />
			<path
   clip-path="url(#SVGID_3_)"
   d="m 349.18,231.44 c 0,-25.89 12.72,-49.32 33.28,-66.29 10.28,-8.48 22.52,-15.35 36.12,-20.09 3.4,-1.19 6.88,-2.24 10.44,-3.15 h -2.37 V 252.5 h -72.36 v 6.81 c -1.11,-2.94 -2.04,-5.93 -2.8,-8.98 -1.51,-6.1 -2.31,-12.42 -2.31,-18.89 z"
   id="path193"
   inkscape:connector-curvature="0"
   style="fill:#b24b89" />
			<path
   clip-path="url(#SVGID_3_)"
   d="m 351.05,231.44 c 0,-25.46 12.51,-48.51 32.73,-65.2 10.11,-8.34 22.15,-15.09 35.52,-19.76 3.34,-1.17 6.77,-2.2 10.27,-3.1 h -2.92 v 109.13 h -70.58 v 6.35 c -1.09,-2.89 -2.01,-5.83 -2.75,-8.84 -1.49,-6 -2.27,-12.21 -2.27,-18.58 z"
   id="path195"
   inkscape:connector-curvature="0"
   style="fill:#b34c89" />
			<path
   clip-path="url(#SVGID_3_)"
   d="m 352.91,231.44 c 0,-25.04 12.3,-47.71 32.19,-64.11 9.94,-8.2 21.78,-14.84 34.93,-19.43 3.29,-1.15 6.66,-2.17 10.1,-3.05 h -3.48 v 107.66 h -68.8 v 5.9 c -1.07,-2.84 -1.98,-5.74 -2.71,-8.69 -1.46,-5.91 -2.23,-12.02 -2.23,-18.28 z"
   id="path197"
   inkscape:connector-curvature="0"
   style="fill:#b44d89" />
			<path
   clip-path="url(#SVGID_3_)"
   d="m 354.77,231.44 c 0,-24.61 12.09,-46.9 31.64,-63.03 9.78,-8.06 21.42,-14.59 34.34,-19.1 3.23,-1.13 6.54,-2.13 9.93,-3 h -4.03 V 252.5 h -67.02 v 5.44 c -1.05,-2.79 -1.94,-5.64 -2.66,-8.54 -1.44,-5.8 -2.2,-11.8 -2.2,-17.96 z"
   id="path199"
   inkscape:connector-curvature="0"
   style="fill:#b54e89" />
			<path
   clip-path="url(#SVGID_3_)"
   d="m 356.63,231.44 c 0,-24.19 11.88,-46.09 31.1,-61.94 9.61,-7.93 21.05,-14.34 33.75,-18.77 3.18,-1.11 6.43,-2.09 9.75,-2.95 h -4.59 V 252.5 H 361.4 v 4.98 c -1.03,-2.74 -1.91,-5.54 -2.62,-8.39 -1.4,-5.7 -2.15,-11.6 -2.15,-17.65 z"
   id="path201"
   inkscape:connector-curvature="0"
   style="fill:#b64f89" />
			<path
   clip-path="url(#SVGID_3_)"
   d="m 358.5,231.44 c 0,-23.76 11.68,-45.28 30.55,-60.85 9.44,-7.79 20.68,-14.09 33.16,-18.44 3.12,-1.09 6.32,-2.06 9.58,-2.89 h -5.14 v 103.25 h -63.46 v 4.53 c -1.02,-2.69 -1.88,-5.45 -2.57,-8.25 -1.39,-5.61 -2.12,-11.41 -2.12,-17.35 z"
   id="path203"
   inkscape:connector-curvature="0"
   style="fill:#b7508a" />
			<path
   clip-path="url(#SVGID_3_)"
   d="m 360.36,231.44 c 0,-23.34 11.47,-44.47 30,-59.77 9.27,-7.65 20.31,-13.84 32.56,-18.11 3.06,-1.07 6.2,-2.02 9.41,-2.84 h -5.69 v 101.79 h -61.68 v 4.07 c -1,-2.65 -1.84,-5.35 -2.53,-8.1 -1.35,-5.51 -2.07,-11.2 -2.07,-17.04 z"
   id="path205"
   inkscape:connector-curvature="0"
   style="fill:#b8518a" />
			<path
   clip-path="url(#SVGID_3_)"
   d="m 362.22,231.44 c 0,-22.92 11.26,-43.66 29.46,-58.68 9.1,-7.51 19.94,-13.59 31.97,-17.78 3.01,-1.05 6.09,-1.98 9.24,-2.79 h -6.25 v 100.32 h -59.9 v 3.61 c -0.98,-2.6 -1.81,-5.25 -2.48,-7.95 -1.33,-5.41 -2.04,-11 -2.04,-16.73 z"
   id="path207"
   inkscape:connector-curvature="0"
   style="fill:#b9528a" />
			<path
   clip-path="url(#SVGID_3_)"
   d="m 364.09,231.44 c 0,-22.49 11.05,-42.85 28.92,-57.59 8.93,-7.37 19.57,-13.33 31.38,-17.46 2.95,-1.03 5.98,-1.95 9.07,-2.74 h -6.8 v 98.85 h -58.13 v 3.16 c -0.96,-2.55 -1.78,-5.16 -2.43,-7.81 -1.32,-5.3 -2.01,-10.78 -2.01,-16.41 z"
   id="path209"
   inkscape:connector-curvature="0"
   style="fill:#ba538a" />
			<path
   clip-path="url(#SVGID_3_)"
   d="m 365.95,231.44 c 0,-22.07 10.84,-42.05 28.37,-56.51 8.76,-7.23 19.2,-13.08 30.79,-17.13 1.45,-0.51 2.92,-0.98 4.4,-1.43 h -2.85 V 252.5 H 370.3 v 2.7 c -0.94,-2.5 -1.74,-5.06 -2.39,-7.66 -1.28,-5.19 -1.96,-10.58 -1.96,-16.1 z"
   id="path211"
   inkscape:connector-curvature="0"
   style="fill:#bb548a" />
			<path
   clip-path="url(#SVGID_3_)"
   d="m 367.81,231.44 c 0,-21.64 10.63,-41.24 27.82,-55.42 8.6,-7.09 18.83,-12.83 30.2,-16.8 1.42,-0.5 2.86,-0.96 4.31,-1.4 h -3.5 v 94.68 h -54.57 v 2.24 c -0.92,-2.45 -1.71,-4.96 -2.34,-7.51 -1.25,-5.09 -1.92,-10.38 -1.92,-15.79 z"
   id="path213"
   inkscape:connector-curvature="0"
   style="fill:#bd558a" />
			<path
   clip-path="url(#SVGID_3_)"
   d="m 369.67,231.44 c 0,-21.22 10.42,-40.43 27.28,-54.33 8.43,-6.95 18.46,-12.58 29.6,-16.47 1.39,-0.49 2.8,-0.94 4.23,-1.38 h -4.14 v 93.24 h -52.79 v 1.79 c -0.91,-2.41 -1.67,-4.86 -2.29,-7.36 -1.23,-5 -1.89,-10.18 -1.89,-15.49 z"
   id="path215"
   inkscape:connector-curvature="0"
   style="fill:#be568b" />
			<path
   clip-path="url(#SVGID_3_)"
   d="m 371.54,231.44 c 0,-20.79 10.21,-39.62 26.73,-53.25 8.26,-6.81 18.09,-12.33 29.01,-16.14 h -0.63 v 90.45 h -51.01 v 1.33 c -0.89,-2.36 -1.64,-4.77 -2.25,-7.22 -1.21,-4.89 -1.85,-9.97 -1.85,-15.17 z"
   id="path217"
   inkscape:connector-curvature="0"
   style="fill:#bf578b" />
			<path
   clip-path="url(#SVGID_3_)"
   d="m 373.4,231.44 c 0,-20.37 10.01,-38.81 26.19,-52.16 8.09,-6.67 17.72,-12.08 28.42,-15.81 h -1.36 v 89.03 h -49.23 v 0.87 c -0.87,-2.31 -1.61,-4.67 -2.2,-7.07 -1.2,-4.79 -1.82,-9.77 -1.82,-14.86 z"
   id="path219"
   inkscape:connector-curvature="0"
   style="fill:#c0588b" />
			<path
   clip-path="url(#SVGID_3_)"
   d="m 375.26,231.44 c 0,-19.95 9.8,-38 25.64,-51.07 7.92,-6.54 17.35,-11.82 27.83,-15.48 h -2.08 v 87.62 H 379.2 v 0.41 c -0.85,-2.26 -1.58,-4.57 -2.16,-6.92 -1.17,-4.7 -1.78,-9.57 -1.78,-14.56 z"
   id="path221"
   inkscape:connector-curvature="0"
   style="fill:#c1598b" />
			<path
   clip-path="url(#SVGID_3_)"
   d="m 377.13,231.44 c 0,-19.52 9.59,-37.19 25.1,-49.99 7.75,-6.4 16.98,-11.57 27.24,-15.15 h -2.81 v 86.2 h -42.79 v 6.45 c -4.35,-8.45 -6.74,-17.75 -6.74,-27.51 z"
   id="path223"
   inkscape:connector-curvature="0"
   style="fill:#c25a8b" />
			<path
   clip-path="url(#SVGID_3_)"
   d="m 378.99,231.44 c 0,-19.1 9.38,-36.39 24.55,-48.9 7.58,-6.26 16.62,-11.32 26.64,-14.82 h -3.53 v 84.79 h -41.08 v 5.85 c -4.24,-8.27 -6.58,-17.37 -6.58,-26.92 z"
   id="path225"
   inkscape:connector-curvature="0"
   style="fill:#c35b8b" />
			<path
   clip-path="url(#SVGID_3_)"
   d="m 380.85,231.44 c 0,-18.67 9.17,-35.58 24,-47.81 7.42,-6.12 16.25,-11.07 26.05,-14.49 h -4.26 v 83.37 h -39.36 v 5.25 c -4.14,-8.09 -6.43,-16.98 -6.43,-26.32 z"
   id="path227"
   inkscape:connector-curvature="0"
   style="fill:#c45c8c" />
			<path
   clip-path="url(#SVGID_3_)"
   d="m 382.71,231.44 c 0,-18.25 8.96,-34.77 23.46,-46.73 7.25,-5.98 15.88,-10.82 25.46,-14.16 h -4.98 v 81.95 h -37.64 v 4.66 c -4.06,-7.9 -6.3,-16.59 -6.3,-25.72 z"
   id="path229"
   inkscape:connector-curvature="0"
   style="fill:#c65d8c" />
			<path
   clip-path="url(#SVGID_3_)"
   d="m 384.58,231.44 c 0,-17.82 8.76,-33.96 22.91,-45.64 7.08,-5.84 15.51,-10.57 24.87,-13.83 h -5.71 v 80.54 h -35.93 v 4.06 c -3.96,-7.73 -6.14,-16.22 -6.14,-25.13 z"
   id="path231"
   inkscape:connector-curvature="0"
   style="fill:#c75e8c" />
			<path
   clip-path="url(#SVGID_3_)"
   d="m 386.44,231.44 c 0,-17.4 8.55,-33.15 22.37,-44.55 6.91,-5.7 15.14,-10.31 24.28,-13.5 h -6.43 v 79.12 h -34.21 v 3.46 c -3.87,-7.54 -6.01,-15.83 -6.01,-24.53 z"
   id="path233"
   inkscape:connector-curvature="0"
   style="fill:#c85f8c" />
			<path
   clip-path="url(#SVGID_3_)"
   d="m 388.3,231.44 c 0,-16.98 8.34,-32.34 21.82,-43.47 3.37,-2.78 7.06,-5.3 11.03,-7.51 1.98,-1.1 4.03,-2.13 6.14,-3.08 h -0.64 v 75.12 h -32.49 v 2.86 c -3.77,-7.34 -5.86,-15.43 -5.86,-23.92 z"
   id="path235"
   inkscape:connector-curvature="0"
   style="fill:#c9608c" />
			<path
   clip-path="url(#SVGID_3_)"
   d="m 390.16,231.44 c 0,-16.55 8.13,-31.53 21.28,-42.38 3.29,-2.71 6.89,-5.16 10.75,-7.32 1.93,-1.08 3.93,-2.08 5.99,-3 h -1.53 v 73.77 h -30.78 v 2.26 c -3.67,-7.17 -5.71,-15.05 -5.71,-23.33 z"
   id="path237"
   inkscape:connector-curvature="0"
   style="fill:#ca618c" />
			<path
   clip-path="url(#SVGID_3_)"
   d="m 392.03,231.44 c 0,-16.13 7.92,-30.73 20.73,-41.29 3.2,-2.64 6.71,-5.03 10.47,-7.13 1.88,-1.05 3.83,-2.03 5.84,-2.93 h -2.42 v 72.41 h -29.06 v 1.67 c -3.58,-6.98 -5.56,-14.67 -5.56,-22.73 z"
   id="path239"
   inkscape:connector-curvature="0"
   style="fill:#cb628d" />
			<path
   clip-path="url(#SVGID_3_)"
   d="m 393.89,231.44 c 0,-15.7 7.71,-29.92 20.19,-40.21 3.12,-2.57 6.53,-4.9 10.2,-6.94 1.83,-1.02 3.73,-1.97 5.68,-2.85 h -3.31 V 252.5 H 399.3 v 1.07 c -3.48,-6.8 -5.41,-14.28 -5.41,-22.13 z"
   id="path241"
   inkscape:connector-curvature="0"
   style="fill:#cc638d" />
			<path
   clip-path="url(#SVGID_3_)"
   d="m 395.75,231.44 c 0,-15.28 7.51,-29.11 19.64,-39.12 3.03,-2.5 6.36,-4.77 9.92,-6.76 1.78,-0.99 3.63,-1.92 5.53,-2.77 h -4.19 v 69.71 h -25.63 v 0.47 c -3.39,-6.61 -5.27,-13.89 -5.27,-21.53 z"
   id="path243"
   inkscape:connector-curvature="0"
   style="fill:#ce648d" />
			<path
   clip-path="url(#SVGID_3_)"
   d="m 397.61,231.44 c 0,-14.85 7.3,-28.3 19.09,-38.03 2.95,-2.43 6.18,-4.63 9.65,-6.57 1.73,-0.97 3.53,-1.87 5.38,-2.69 h -5.08 v 68.36 h -21.17 v 4.57 c -1,-1.52 -1.92,-3.09 -2.75,-4.7 -3.29,-6.44 -5.12,-13.51 -5.12,-20.94 z"
   id="path245"
   inkscape:connector-curvature="0"
   style="fill:#cf668d" />
			<path
   clip-path="url(#SVGID_3_)"
   d="m 399.48,231.44 c 0,-14.43 7.09,-27.49 18.55,-36.95 2.87,-2.36 6,-4.5 9.37,-6.38 h -0.75 v 64.39 h -19.53 v 3.84 c -0.97,-1.48 -1.87,-3 -2.67,-4.57 -3.2,-6.24 -4.97,-13.11 -4.97,-20.33 z"
   id="path247"
   inkscape:connector-curvature="0"
   style="fill:#d0678d" />
			<path
   clip-path="url(#SVGID_3_)"
   d="m 401.34,231.44 c 0,-14 6.88,-26.68 18,-35.86 2.78,-2.29 5.83,-4.37 9.1,-6.19 h -1.79 v 63.12 h -17.89 v 3.11 c -0.95,-1.44 -1.81,-2.92 -2.59,-4.43 -3.11,-6.07 -4.83,-12.75 -4.83,-19.75 z"
   id="path249"
   inkscape:connector-curvature="0"
   style="fill:#d1688d" />
			<path
   clip-path="url(#SVGID_3_)"
   d="m 403.2,231.44 c 0,-13.58 6.67,-25.87 17.46,-34.77 2.7,-2.22 5.65,-4.24 8.82,-6 h -2.83 v 61.84 h -13.27 v 6.43 c -2.14,-2.62 -3.99,-5.41 -5.5,-8.35 -3.01,-5.89 -4.68,-12.36 -4.68,-19.15 z"
   id="path251"
   inkscape:connector-curvature="0"
   style="fill:#d2698e" />
			<path
   clip-path="url(#SVGID_3_)"
   d="m 405.06,231.44 c 0,-13.16 6.46,-25.07 16.91,-33.69 2.61,-2.16 5.47,-4.1 8.54,-5.82 h -3.87 v 60.57 h -11.72 v 5.57 c -2.08,-2.53 -3.86,-5.24 -5.32,-8.09 -2.92,-5.69 -4.54,-11.96 -4.54,-18.54 z"
   id="path253"
   inkscape:connector-curvature="0"
   style="fill:#d36a8e" />
			<path
   clip-path="url(#SVGID_3_)"
   d="m 406.93,231.44 c 0,-12.73 6.25,-24.26 16.37,-32.6 2.53,-2.09 5.3,-3.97 8.27,-5.63 h -4.92 v 59.29 h -10.18 v 4.71 c -2.01,-2.45 -3.74,-5.07 -5.15,-7.83 -2.83,-5.51 -4.39,-11.57 -4.39,-17.94 z"
   id="path255"
   inkscape:connector-curvature="0"
   style="fill:#d56b8e" />
			<path
   clip-path="url(#SVGID_3_)"
   d="m 408.79,231.44 c 0,-12.31 6.05,-23.45 15.82,-31.51 2.44,-2.02 5.12,-3.84 7.99,-5.44 h -5.96 v 58.02 h -8.63 v 3.85 c -1.94,-2.37 -3.61,-4.9 -4.98,-7.57 -2.73,-5.33 -4.24,-11.19 -4.24,-17.35 z"
   id="path257"
   inkscape:connector-curvature="0"
   style="fill:#d66c8e" />
			<path
   clip-path="url(#SVGID_3_)"
   d="m 410.65,231.44 c 0,-11.88 5.84,-22.64 15.28,-30.43 2.36,-1.95 4.95,-3.71 7.72,-5.25 h -7 v 56.75 h -7.09 v 2.99 c -1.87,-2.29 -3.49,-4.73 -4.81,-7.31 -2.64,-5.15 -4.1,-10.81 -4.1,-16.75 z"
   id="path259"
   inkscape:connector-curvature="0"
   style="fill:#d76d8e" />
			<path
   clip-path="url(#SVGID_3_)"
   d="m 412.52,231.44 c 0,-11.46 5.63,-21.83 14.73,-29.34 h -0.6 v 50.4 h -5.54 v 2.13 c -1.81,-2.21 -3.36,-4.57 -4.64,-7.05 -2.55,-4.95 -3.95,-10.41 -3.95,-16.14 z"
   id="path261"
   inkscape:connector-curvature="0"
   style="fill:#d86e8e" />
			<path
   clip-path="url(#SVGID_3_)"
   d="m 414.38,231.44 c 0,-11.03 5.42,-21.02 14.18,-28.25 h -1.91 v 49.32 h -4 v 1.28 c -1.74,-2.13 -3.24,-4.4 -4.46,-6.79 -2.46,-4.79 -3.81,-10.04 -3.81,-15.56 z"
   id="path263"
   inkscape:connector-curvature="0"
   style="fill:#d96f8f" />
			<path
   clip-path="url(#SVGID_3_)"
   d="m 416.24,231.44 c 0,-10.61 5.21,-20.21 13.64,-27.17 h -3.23 v 48.23 l 3.23,6.1 c -8.43,-6.94 -13.64,-16.55 -13.64,-27.16 z"
   id="path265"
   inkscape:connector-curvature="0"
   style="fill:#db708f" />
			<path
   clip-path="url(#SVGID_3_)"
   d="m 418.1,231.44 c 0,-10.19 5,-19.41 13.09,-26.08 h -4.55 v 47.14 l 4.55,5.02 c -8.08,-6.67 -13.09,-15.89 -13.09,-26.08 z"
   id="path267"
   inkscape:connector-curvature="0"
   style="fill:#dc718f" />
			<path
   clip-path="url(#SVGID_3_)"
   d="m 419.97,231.44 c 0,-9.76 4.8,-18.6 12.55,-24.99 h -5.86 v 46.06 l 5.86,3.93 c -7.76,-6.4 -12.55,-15.24 -12.55,-25 z"
   id="path269"
   inkscape:connector-curvature="0"
   style="fill:#dd728f" />
			<path
   clip-path="url(#SVGID_3_)"
   d="m 421.83,231.44 c 0,-4.67 1.15,-9.12 3.22,-13.16 1.04,-2.02 2.31,-3.94 3.78,-5.74 h -2.18 v 37.81 h 2.18 c -1.47,-1.8 -2.74,-3.72 -3.78,-5.74 -2.07,-4.05 -3.22,-8.5 -3.22,-13.17 z"
   id="path271"
   inkscape:connector-curvature="0"
   style="fill:#de748f" />
			<path
   clip-path="url(#SVGID_3_)"
   d="m 423.69,231.44 c 0,-4.46 1.09,-8.7 3.07,-12.56 h -0.12 V 244 h 0.12 c -1.97,-3.86 -3.07,-8.1 -3.07,-12.56 z"
   id="path273"
   inkscape:connector-curvature="0"
   style="fill:#df758f" />
			<path
   clip-path="url(#SVGID_3_)"
   d="m 425.55,231.44 c 0,-4.24 1.04,-8.29 2.93,-11.96 h -1.83 v 23.93 h 1.83 c -1.88,-3.68 -2.93,-7.72 -2.93,-11.97 z"
   id="path275"
   inkscape:connector-curvature="0"
   style="fill:#e17690" />
			<path
   clip-path="url(#SVGID_3_)"
   d="m 426.65,231.44 v -29.2 z"
   id="path277"
   inkscape:connector-curvature="0"
   style="fill:#e27790" />
			<path
   clip-path="url(#SVGID_3_)"
   d="M 426.65,231.44 V 203.78 Z"
   id="path279"
   inkscape:connector-curvature="0"
   style="fill:#e37890" />
			<path
   clip-path="url(#SVGID_3_)"
   d="M 426.65,231.44 V 205.31 Z"
   id="path281"
   inkscape:connector-curvature="0"
   style="fill:#e47990" />
			<path
   clip-path="url(#SVGID_3_)"
   d="M 426.65,231.44 V 206.85 Z"
   id="path283"
   inkscape:connector-curvature="0"
   style="fill:#e57a90" />
			<path
   clip-path="url(#SVGID_3_)"
   d="M 426.65,231.44 V 208.39 Z"
   id="path285"
   inkscape:connector-curvature="0"
   style="fill:#e77b90" />
			<path
   clip-path="url(#SVGID_3_)"
   d="M 426.65,231.44 V 209.92 Z"
   id="path287"
   inkscape:connector-curvature="0"
   style="fill:#e87c91" />
			<path
   clip-path="url(#SVGID_3_)"
   d="M 426.65,231.44 V 211.46 Z"
   id="path289"
   inkscape:connector-curvature="0"
   style="fill:#e97d91" />
			<path
   clip-path="url(#SVGID_3_)"
   d="M 426.65,231.44 V 213 Z"
   id="path291"
   inkscape:connector-curvature="0"
   style="fill:#ea7f91" />
			<path
   clip-path="url(#SVGID_3_)"
   d="m 426.65,231.44 v -16.9 z"
   id="path293"
   inkscape:connector-curvature="0"
   style="fill:#ec8091" />
			<path
   clip-path="url(#SVGID_3_)"
   d="M 426.65,231.44 V 216.07 Z"
   id="path295"
   inkscape:connector-curvature="0"
   style="fill:#ed8191" />
			<path
   clip-path="url(#SVGID_3_)"
   d="M 426.65,231.44 V 217.61 Z"
   id="path297"
   inkscape:connector-curvature="0"
   style="fill:#ee8292" />
			<path
   clip-path="url(#SVGID_3_)"
   d="M 426.65,231.44 V 219.15 Z"
   id="path299"
   inkscape:connector-curvature="0"
   style="fill:#ef8392" />
			<path
   clip-path="url(#SVGID_3_)"
   d="M 426.65,231.44 V 220.68 Z"
   id="path301"
   inkscape:connector-curvature="0"
   style="fill:#f18492" />
			<path
   clip-path="url(#SVGID_3_)"
   d="m 426.65,231.44 v -9.22 z"
   id="path303"
   inkscape:connector-curvature="0"
   style="fill:#f28592" />
			<path
   clip-path="url(#SVGID_3_)"
   d="m 426.65,231.44 v -7.68 z"
   id="path305"
   inkscape:connector-curvature="0"
   style="fill:#f38692" />
			<path
   clip-path="url(#SVGID_3_)"
   d="m 426.65,231.44 v -6.15 z"
   id="path307"
   inkscape:connector-curvature="0"
   style="fill:#f48892" />
			<path
   clip-path="url(#SVGID_3_)"
   d="m 426.65,231.44 v -4.61 z"
   id="path309"
   inkscape:connector-curvature="0"
   style="fill:#f58993" />
			<path
   clip-path="url(#SVGID_3_)"
   d="m 426.65,231.44 v -3.07 z"
   id="path311"
   inkscape:connector-curvature="0"
   style="fill:#f78a93" />
			<path
   clip-path="url(#SVGID_3_)"
   d="M 426.65,231.44 V 229.9 Z"
   id="path313"
   inkscape:connector-curvature="0"
   style="fill:#f88b93" />
		</g>
	</g>
	<g
   id="g350">
		
			<linearGradient
   id="SVGID_4_"
   gradientUnits="userSpaceOnUse"
   x1="1.3228"
   y1="348.73541"
   x2="-236.2804"
   y2="317.42899"
   gradientTransform="matrix(0.587,0.5044,-1.1918,0.5778,734.4321,-43.7968)">
			<stop
   offset="0"
   style="stop-color:#FCBA9D"
   id="stop319" />
			<stop
   offset="0.5634"
   style="stop-color:#EE8594"
   id="stop321" />
			<stop
   offset="1"
   style="stop-color:#E4608D"
   id="stop323" />
		</linearGradient>
		<polygon
   points="164.83,154.47 425.65,96.52 229.32,191.7 "
   id="polygon326"
   style="fill:url(#SVGID_4_)" />
		
			<linearGradient
   id="SVGID_5_"
   gradientUnits="userSpaceOnUse"
   x1="877.53912"
   y1="220.0273"
   x2="1007.6193"
   y2="201.06889"
   gradientTransform="matrix(-0.8737,-0.3389,-1.0008,0.6881,1384.7246,332.1381)">
			<stop
   offset="0"
   style="stop-color:#FCBA9D"
   id="stop328" />
			<stop
   offset="0.5634"
   style="stop-color:#EE8594"
   id="stop330" />
			<stop
   offset="1"
   style="stop-color:#E4608D"
   id="stop332" />
		</linearGradient>
		<polygon
   points="325.29,247.11 425.65,96.52 260.79,209.87 "
   id="polygon335"
   style="fill:url(#SVGID_5_)" />
		
			<linearGradient
   id="SVGID_6_"
   gradientUnits="userSpaceOnUse"
   x1="207.8242"
   y1="273.10449"
   x2="26.1772"
   y2="197.5137"
   gradientTransform="matrix(0.866,0.5,-0.866,0.5,440.2673,1.3037)">
			<stop
   offset="0"
   style="stop-color:#F88B93"
   id="stop337" />
			<stop
   offset="0.2064"
   style="stop-color:#D76D8E"
   id="stop339" />
			<stop
   offset="0.5733"
   style="stop-color:#A23D87"
   id="stop341" />
			<stop
   offset="0.8491"
   style="stop-color:#811F82"
   id="stop343" />
			<stop
   offset="1"
   style="stop-color:#751480"
   id="stop345" />
		</linearGradient>
		<polygon
   points="229.32,191.7 245.06,251.51 260.79,209.87 425.65,96.52 "
   id="polygon348"
   style="fill:url(#SVGID_6_)" />
	</g>
	<polygon
   points="229.32,191.7 226.45,190.05 425.65,96.52 "
   id="polygon352"
   style="fill:#fcc29f" />
	<polygon
   points="263.37,211.36 260.79,209.87 425.65,96.52 "
   id="polygon354"
   style="fill:#fba999" />
</g>
<polygon
   points="248.5,319.41 248.5,319.41 250.45,320.54 273.86,318.85 285.15,340.57 315.66,358.18 383.86,255.86 206.62,295.23 "
   id="polygon358"
   style="opacity:0.169;fill:#0b0244"
   transform="translate(-52.816902,-44.366196)" />
</svg>