<?xml version="1.0" encoding="UTF-8" standalone="no"?>
<!-- Generator: Adobe Illustrator 16.0.0, SVG Export Plug-In . SVG Version: 6.00 Build 0)  -->

<svg
   xmlns:dc="http://purl.org/dc/elements/1.1/"
   xmlns:cc="http://creativecommons.org/ns#"
   xmlns:rdf="http://www.w3.org/1999/02/22-rdf-syntax-ns#"
   xmlns:svg="http://www.w3.org/2000/svg"
   xmlns="http://www.w3.org/2000/svg"
   xmlns:sodipodi="http://sodipodi.sourceforge.net/DTD/sodipodi-0.dtd"
   xmlns:inkscape="http://www.inkscape.org/namespaces/inkscape"
   version="1.1"
   x="0px"
   y="0px"
   width="310.854"
   height="276.38824"
   viewBox="0 0 310.85401 276.38825"
   enable-background="new 0 0 500 500"
   xml:space="preserve"
   id="svg305"
   sodipodi:docname="home_services.svg"
   inkscape:version="0.92.4 (5da689c313, 2019-01-14)"><metadata
   id="metadata311"><rdf:RDF><cc:Work
       rdf:about=""><dc:format>image/svg+xml</dc:format><dc:type
         rdf:resource="http://purl.org/dc/dcmitype/StillImage" /></cc:Work></rdf:RDF></metadata><defs
   id="defs309">
	

		
		
		
		
		
		
		
		
		
		
		
		
		
		
		
		
		
			
		
			
		
			
		
		
		
		
		
		
		
		
		
		
		
		
		
		
		
		
		
		
		
		
		
		
		
		
		
		
		
		
			
		
			
		
			
		
		
		
		
		
		
		
	</defs><sodipodi:namedview
   pagecolor="#ffffff"
   bordercolor="#666666"
   borderopacity="1"
   objecttolerance="10"
   gridtolerance="10"
   guidetolerance="10"
   inkscape:pageopacity="0"
   inkscape:pageshadow="2"
   inkscape:window-width="1366"
   inkscape:window-height="705"
   id="namedview307"
   showgrid="false"
   inkscape:zoom="1.888"
   inkscape:cx="175.74474"
   inkscape:cy="119.60853"
   inkscape:window-x="-8"
   inkscape:window-y="-8"
   inkscape:window-maximized="1"
   inkscape:current-layer="g1147" />
<g
   id="BACKGROUND"
   display="none"
   style="display:none"
   transform="translate(-28.50021,-116.07272)">
	<rect
   display="inline"
   width="500"
   height="500"
   id="rect2"
   x="0"
   y="0"
   style="display:inline;fill:#c6cfd6" />
	<rect
   x="25.530001"
   y="104.26"
   display="inline"
   width="456.5"
   height="304.34"
   id="rect4"
   style="display:inline;fill:#aeb6ba" />
</g>
<g
   id="g1147"><g
     id="g1259"><path
       sodipodi:nodetypes="ccccccc"
       style="fill:#d4d2d1"
       inkscape:connector-curvature="0"
       id="path1035"
       d="m 293.04673,117.77 c 13.36,5.87 19.44,21.46 13.57,34.82 l -44.74,101.89 c -5.87,13.36 -21.46,19.44 -34.82,13.57 l -130.2,-57.18 7.41525,-177.141352 z" /><path
       d="m 180.05673,0 c -2.4,0 -4.41,1.87 -4.56,4.29 -0.16,2.52 1.75,4.69 4.27,4.85 0.13,0.01 5.59,0.43 12.8,3.38 9.62,3.93 17.68,10.27 23.95,18.84 1.49,2.04 4.36,2.48 6.39,0.99 2.04,-1.49 2.48,-4.36 0.99,-6.39 -17.61,-24.07 -42.5,-25.89 -43.55,-25.95 -0.1,-0.01 -0.2,-0.01 -0.29,-0.01 z"
       id="path11"
       inkscape:connector-curvature="0"
       style="fill:#74818e" /><path
       d="m 2.5067297,82.48 c 0,2.4 1.87,4.41 4.29,4.56 2.52,0.16 4.6900003,-1.75 4.8500003,-4.27 0.01,-0.13 0.43,-5.59 3.38,-12.8 3.93,-9.62 10.27,-17.68 18.84,-23.95 2.04,-1.49 2.48,-4.36 0.99,-6.4 -1.49,-2.04 -4.36,-2.48 -6.39,-0.99 C 4.3967297,56.24 2.5767297,81.13 2.5167297,82.18 c -0.01,0.11 -0.01,0.21 -0.01,0.3 z"
       id="path13"
       inkscape:connector-curvature="0"
       style="fill:#74818e" /><path
       d="m 138.76673,262.93 c 1.78,-1.6 2.03,-4.34 0.52,-6.24 -1.57,-1.98 -4.44,-2.31 -6.42,-0.75 -0.1,0.08 -4.44,3.42 -11.77,6.05 -9.78,3.52 -20.01,4.2 -30.41,2.03 -2.47,-0.52 -4.9,1.07 -5.42,3.54 -0.52,2.47 1.07,4.9 3.54,5.42 29.2,6.1 48.9,-9.21 49.73,-9.86 0.09,-0.06 0.16,-0.12 0.23,-0.19 z"
       id="path15"
       inkscape:connector-curvature="0"
       style="fill:#74818e" /><polygon
       points="304.64,305.68 278.52,314.9 268.35,293.39 294.71,279.56 "
       id="polygon17"
       style="fill:#fda080"
       transform="matrix(1,0,0,-1,-242.48327,379.69)" /><path
       d="m 34.35673,87.44 c 0,0 8.29,1.71 11.82,0 3.53,-1.71 6.54,-12.2 6.54,-12.2 l 17.39,-1.24 -15.73,29.55 -16.3,-7.72 z"
       id="path19"
       inkscape:connector-curvature="0"
       style="fill:#f4907c" /><path
       sodipodi:nodetypes="ccccccc"
       d="m 40.10673,185.28 c -13.36,-5.87 -19.44,-21.46 -13.57,-34.82 l 44.74,-101.89 c 5.87,-13.36 21.46,-19.44 34.82,-13.57 l 130.2,57.18 -11.12288,174.49305 z"
       id="path21"
       inkscape:connector-curvature="0"
       style="fill:#d4d2d1" /><circle
       cx="215.63673"
       cy="-104.83002"
       r="8.8900003"
       id="circle23"
       style="opacity:0.4;fill:#808080"
       transform="scale(1,-1)" /><circle
       cx="180.56673"
       cy="-221.96001"
       r="8.8900003"
       id="circle25"
       style="opacity:0.4;fill:#808080"
       transform="scale(1,-1)" /><circle
       cx="54.436741"
       cy="-155.17"
       r="8.8900003"
       id="circle27"
       style="opacity:0.4;fill:#808080"
       transform="scale(1,-1)" /><g
       id="g33"
       style="opacity:0.4"
       transform="matrix(1,0,0,-1,-242.48327,379.69)">
			<path
   d="m 358.25,281.09 -8.48,8.67 -35.59,30.89 -5.56,-1.28 5.16,11.75 c 0.48,1.09 1.03,2.13 1.63,3.12 4.22,-1.14 9.49,-2.83 11.77,-4.63 4.1,-3.24 22.78,-29.46 22.78,-29.46 0,0 5.53,-3.43 6.27,-5.29 0.74,-1.86 2.12,-9.97 2.69,-11.3 0.57,-1.33 -0.67,-2.47 -0.67,-2.47 z"
   id="path29"
   inkscape:connector-curvature="0"
   style="fill:#808080" />
			<path
   d="m 326.03,276.32 c 1.91,-0.19 3.33,-2.86 3.33,-2.86 l 2.96,-1.33 0.38,-2.96 -4.96,-2.09 -27.81,-7.98 -17.28,-3.76 -0.88,2.92 5.05,11.5 29,5.73 c 0.01,-0.01 8.3,1.02 10.21,0.83 z"
   id="path31"
   inkscape:connector-curvature="0"
   style="fill:#808080" />
		</g><path
       d="m 168.94673,125.25 1.94,-17.99 10.24,-16.58 15.62,-15.87 -64.62,-28.26 -3.81,31.14 -3.69,16.59 -10.26,17.57 53.64,23.34 c 0,0 0.39,-0.62 0.41,-1.16 0.02,-0.54 0.53,-8.78 0.53,-8.78 z"
       id="path35"
       inkscape:connector-curvature="0"
       style="opacity:0.4;fill:#808080" /><g
       id="g49"
       transform="matrix(1,0,0,-1,-242.48327,379.69)">
			<path
   d="m 410.66,255.48 -45.92,19.84 c -0.92,0.4 -1.35,1.47 -0.95,2.4 l 13.09,30.3 c 0.4,0.92 1.47,1.35 2.4,0.95 l 45.92,-19.84 c 0.92,-0.4 1.35,-1.47 0.95,-2.4 l -13.09,-30.3 c -0.4,-0.92 -1.47,-1.35 -2.4,-0.95 z"
   id="path37"
   inkscape:connector-curvature="0"
   style="fill:#e5e5e5" />
			<path
   d="m 406.44,258.82 -36.37,15.71 c -0.75,0.32 -1.09,1.19 -0.77,1.94 l 7.87,18.21 c 0.32,0.75 1.19,1.09 1.94,0.77 l 36.37,-15.71 c 0.75,-0.32 1.09,-1.19 0.77,-1.94 l -7.87,-18.21 c -0.32,-0.75 -1.19,-1.1 -1.94,-0.77 z"
   id="path39"
   inkscape:connector-curvature="0"
   style="fill:#666666" />
			<path
   d="m 400.99,287.71 -6.16,2.66 c -0.78,0.33 -1.13,1.24 -0.8,2.01 l 2.2,5.09 c 0.34,0.78 1.24,1.13 2.01,0.8 l 6.16,-2.66 c 0.78,-0.34 1.13,-1.24 0.8,-2.01 l -2.2,-5.09 c -0.33,-0.78 -1.23,-1.14 -2.01,-0.8 z"
   id="path41"
   inkscape:connector-curvature="0"
   style="fill:#cbcbcb" />
			<path
   d="m 408.99,244.19 -25.66,11.09 -25.66,11.09 c -0.86,0.37 -1.09,1.48 -0.45,2.16 l 6.24,6.65 c 0.28,0.3 0.73,0.39 1.11,0.23 l 23.14,-10 23.14,-10 c 0.38,-0.16 0.62,-0.55 0.59,-0.96 l -0.56,-9.1 c -0.07,-0.94 -1.03,-1.53 -1.89,-1.16 z"
   id="path43"
   inkscape:connector-curvature="0"
   style="fill:#ffffff" />
			<path
   d="m 411.43,254.44 -0.56,-9.06 c -0.35,-0.33 -0.92,-0.44 -1.45,-0.21 l -25.66,11.09 -25.66,11.09 c -0.54,0.23 -0.84,0.72 -0.85,1.2 l 6.21,6.62 c 0.28,0.3 0.73,0.39 1.11,0.23 l 23.14,-10 23.14,-10 c 0.37,-0.16 0.61,-0.54 0.58,-0.96 z"
   id="path45"
   inkscape:connector-curvature="0"
   style="fill:#808080" />
			<path
   d="m 409.15,255.02 -0.17,-7.47 c -0.3,-0.26 -0.81,-0.33 -1.29,-0.12 l -23.38,10.1 -23.38,10.1 c -0.49,0.21 -0.78,0.63 -0.8,1.02 l 5.32,5.25 c 0.24,0.24 0.64,0.3 0.98,0.15 l 21.08,-9.11 21.08,-9.11 c 0.35,-0.14 0.57,-0.47 0.56,-0.81 z"
   id="path47"
   inkscape:connector-curvature="0"
   style="fill:#a5b4c2" />
		</g><path
       d="m 143.92673,69.88 -2.08,10 c 0,0 1.96,6.35 1.81,7.56 -0.15,1.21 -2.3,8.79 -2.3,8.79 0,0 -1.44,0.15 -1.75,-0.62 -0.31,-0.77 0,-4.48 0,-4.48 0,0 -1.08,1.17 -1.39,1.86 -0.23,0.53 -0.73,5.74 -0.96,8.24 -0.07,0.75 -0.7,1.33 -1.46,1.33 v 0 c -0.74,0 -1.36,-0.55 -1.45,-1.28 l -0.38,-2.94 -2.47,-0.49 -1.16,-2.7 -2.6,-5.55 1.63,-6.27 3.66,-4.84 0.77,-8.61 z"
       id="path51"
       inkscape:connector-curvature="0"
       style="fill:#eac9b8" /><path
       d="m 178.91673,84.82 -6.88,7.55 c 0,0 -6.3,2.13 -7.19,2.96 -0.89,0.83 -5.78,7.01 -5.78,7.01 0,0 0.72,1.26 1.53,1.06 0.81,-0.2 3.63,-2.63 3.63,-2.63 0,0 -0.31,1.56 -0.7,2.21 -0.29,0.5 -4.22,3.95 -6.11,5.6 -0.57,0.5 -0.67,1.34 -0.22,1.96 v 0 c 0.43,0.6 1.24,0.78 1.88,0.43 l 2.6,-1.42 1.85,1.71 2.87,-0.64 6.02,-1.15 4.12,-5 1.78,-5.8 6.53,-5.67 z"
       id="path53"
       inkscape:connector-curvature="0"
       style="fill:#eac9b8" /><rect
       x="95.409645"
       y="-81.459709"
       transform="matrix(0.94203568,0.3355127,0.3355127,-0.94203568,0,0)"
       width="44.868298"
       height="32.158783"
       id="rect55"
       style="fill:#ffffff;stroke-width:0.99996215" /><rect
       x="-81.459862"
       y="-139.14293"
       transform="matrix(0.3355127,-0.94203568,-0.94203568,-0.3355127,0,0)"
       width="29.768873"
       height="43.718346"
       id="rect57"
       style="fill:#c4ccd7;stroke-width:0.99996215" /><rect
       x="94.071983"
       y="-84.323082"
       transform="matrix(0.94203568,0.3355127,0.3355127,-0.94203568,0,0)"
       width="44.868298"
       height="32.158783"
       id="rect59"
       style="fill:#ffffff;stroke-width:0.99996215" /><path
       d="m 67.83673,120.59 5.28,-2.22 c 0,0 6.04,1.27 8.03,0.51 1.99,-0.76 7.96,-4.56 8.59,-5.01 0.63,-0.45 1.6,-2.55 1.6,-2.99 0,-0.44 -1.28,-2.35 -2.66,-2.48 -1.38,-0.13 -7.74,-0.32 -7.74,-0.32 0,0 1.62,-1.4 1.89,-1.78 0.27,-0.38 0.32,-1.46 0.11,-1.65 -0.22,-0.19 -5.12,1.91 -6.52,2.35 -1.4,0.44 -3.5,2.29 -3.88,2.67 -0.38,0.38 -1.67,1.84 -1.67,1.84 l -5.82,2.36 z"
       id="path61"
       inkscape:connector-curvature="0"
       style="fill:#fad1b1" /><path
       d="m 101.14673,77.69 3.68,4.4 c 0,0 5.95,1.64 7.37,3.23 1.42,1.59 0.97,4.11 1.32,4.8 0.35,0.69 -0.17,5.14 0.14,5.46 1.1,1.17 2.64,2.31 3.55,3.31 1.6,1.76 0.46,2.56 -0.35,2.23 -1.29,-0.52 -9.8,-6.3 -9.8,-6.3 0,0 0.8,1.98 0.86,2.45 0.06,0.46 -0.38,1.45 -0.66,1.52 -0.28,0.07 -3.68,-4.04 -4.72,-5.08 -1.04,-1.04 -2.07,-3.64 -2.23,-4.15 -0.16,-0.51 -0.64,-2.4 -0.64,-2.4 l -4.1,-4.76 z"
       id="path63"
       inkscape:connector-curvature="0"
       style="fill:#fad1b1" /><g
       id="g71"
       transform="matrix(1,0,0,-1,-242.48327,379.69)">
			<path
   d="m 374.71,193.61 -33.46,11.14 c -2,0.67 -3.08,2.82 -2.41,4.82 l 6.68,20.06 c 0.67,2 2.82,3.08 4.82,2.41 L 383.8,220.9 c 2,-0.67 3.08,-2.82 2.41,-4.82 l -6.68,-20.06 c -0.66,-1.99 -2.82,-3.07 -4.82,-2.41 z"
   id="path65"
   inkscape:connector-curvature="0"
   style="fill:#647889" />
			<path
   d="m 384.11,221.83 -33.46,11.14 c -2.5,0.83 -5.22,-0.53 -6.05,-3.03 l -6.68,-20.06 c -0.83,-2.5 0.53,-5.22 3.03,-6.05 l 33.46,-11.14 c 2.5,-0.83 5.22,0.53 6.05,3.03 l 6.68,20.06 c 0.83,2.5 -0.53,5.22 -3.03,6.05 z m -41.06,-16.65 c -1.48,0.49 -2.29,2.1 -1.79,3.59 l 6.68,20.06 c 0.49,1.48 2.1,2.29 3.59,1.8 l 31.97,-10.64 c 1.48,-0.49 2.29,-2.1 1.79,-3.59 l -6.68,-20.06 c -0.49,-1.48 -2.1,-2.29 -3.59,-1.8 z"
   id="path67"
   inkscape:connector-curvature="0"
   style="fill:#f8fbfc" />
			<circle
   cx="343.14999"
   cy="219.28"
   r="1.1900001"
   id="circle69"
   style="fill:#d4d2d1" />
		</g><polygon
       points="337.4,193.34 386.94,175.27 387.7,167.41 381.18,151.11 313.5,180.83 345.06,226.18 359.3,222.58 355.28,213.05 347.06,210.73 "
       id="polygon73"
       style="opacity:0.4;fill:#808080"
       transform="matrix(1,0,0,-1,-242.48327,379.69)" /><path
       d="m 115.05673,162.18 -6.54,3 c -0.33,0.15 -0.72,0.05 -0.94,-0.24 l -0.07,-0.09 c -0.3,-0.4 -0.15,-0.97 0.3,-1.17 l 6.6,-2.92 c 0.37,-0.16 0.8,-0.01 0.99,0.34 0.22,0.41 0.06,0.89 -0.34,1.08 z"
       id="path75"
       inkscape:connector-curvature="0"
       style="fill:#fdf5ea" /><path
       d="m 100.98673,204.42 c 0,0 -1.92,-0.81 -3.73,-1.04 -1.8,-0.23 -4.09,0.76 -5.62,0.52 -1.53,-0.24 -5.34,-2.91 -5.34,-2.91 l -1.46,-3.56 -0.89,-5.85 6.55,-2.67 c 0,0 1.68,-0.75 4.42,0.71 2.73,1.46 7.66,5.71 7.66,5.71 l 3.3,1.72 z"
       id="path77"
       inkscape:connector-curvature="0"
       style="fill:#eac9b8" /><path
       d="m 105.56673,171.39 4.46,-1.55 c 0,0 2.34,-2.5 2.77,-3.19 0.43,-0.69 0,-2.76 0,-2.76 0,0 1.55,-1.55 1.47,-3.02 -0.09,-1.47 -2.42,-3.45 -5.35,-3.54 -2.93,-0.09 -6.04,-0.43 -6.73,0 -0.69,0.43 -3.97,7.03 -3.97,7.03 l -4.66,6.43 9.06,4.4 z"
       id="path79"
       inkscape:connector-curvature="0"
       style="fill:#eac9b8" /><path
       d="m 11.07673,78.63 c 0,0 -1.4500003,15.27 2.01,20.04 3.47,4.77 22.21,37.71 23.79,39.02 1.58,1.31 34.8,-17 34.8,-17 0,0 -3.73,-8.74 -4.12,-8.91 -0.39,-0.17 -25.02,8.78 -25.02,8.78 l -4.29,-13.76 6.37,2.46 5.72,-13.02 c 0,0 -6.78,-4.26 -18.29,-9.94 -11.49,-5.67 -20.97,-7.67 -20.97,-7.67 z"
       id="path109"
       inkscape:connector-curvature="0"
       style="fill:#80c1d8" /><path
       d="m 23.89673,53.68 c -0.15,-0.4 16.53,-12.67 22.97,-10.46 6.44,2.21 31.51,8.43 34.92,10.86 3.41,2.43 22.21,24.75 22.21,24.75 l -5.97,7.26 -19.82,-17.94 -13.67,-4.24 -6.46,14.71 c 0.01,0.01 -27.72,-8.36 -34.18,-24.94 z"
       id="path111"
       inkscape:connector-curvature="0"
       style="fill:#80c1d8" /><path
       d="m 130.94673,73.09 14.79,1.96 5.58,-20.2 37.81,16.6 -13.11,12.98 8.99,10.95 29.06,-23.86 c 0,0 8.52,-25.13 8.29,-27.9 -0.22,-2.78 -10.31,-23.88 -25.61,-31.01 -15.3,-7.13 -36.03,2.09 -38.78,2.74 -2.75,0.64 -19.1,21.39 -19.4,22.08 -0.32,0.69 -7.62,35.66 -7.62,35.66 z"
       id="path113"
       inkscape:connector-curvature="0"
       style="fill:#f39475" /><g
       id="g127"
       transform="matrix(1,0,0,-1,-242.48327,379.69)">
			<path
   d="m 388.59,165.51 c -1.88,-10.02 -2.74,-32.51 -4.61,-35.7 -2.45,-4.17 -8.11,-10.03 -17.05,-13.52 0,0 -38.21,-3.3 -46.96,2.09 -8.75,5.39 -11.94,52.71 -11.92,54.86 0.02,2.15 29.43,39.59 29.43,39.59 l 9.33,-7.32 -18.88,-31.01 41.95,-18.42 0.75,5.23 -29.29,13.51 5.81,10.39 37.51,-12.99 c 2.79,-0.95 4.47,-3.81 3.93,-6.71 z"
   id="path115"
   inkscape:connector-curvature="0"
   style="fill:#e74a5f" />
			<polygon
   points="308.27,173.85 337.47,212.83 341.96,209.31 338.42,210.07 "
   id="polygon117"
   style="fill:#c9364f" />
			<path
   d="m 388.63,167.41 c -0.07,0.1 -1.84,2.54 -4.55,3.57 -2.76,1.05 -35.18,10.96 -35.18,10.96 l -3.84,-0.46 2.08,3.73 37.51,-12.99 c 2.18,-0.74 3.68,-2.63 3.98,-4.81 z"
   id="path119"
   inkscape:connector-curvature="0"
   style="fill:#c9364f" />
			<path
   d="m 327.92,174.5 6.01,-44.42 c 0,0 17.29,-1.78 22.12,0 4.83,1.78 12.05,5.01 12.05,5.01 l 1.77,20.99 z"
   id="path121"
   inkscape:connector-curvature="0"
   style="fill:#c9364f" />
			<path
   d="m 322.75,121.57 c 0,0 9.14,11.19 9.33,22.18 0.19,10.99 3.76,6.42 3.76,6.42 l -1.91,-20.08 c 0.01,0 -4.69,-6.49 -11.18,-8.52 z"
   id="path123"
   inkscape:connector-curvature="0"
   style="fill:#c9364f" />
			<path
   d="m 368.49,139.72 c 0,0 -2.02,-11.8 3.7,-17.52 0,0 -7.25,3.18 -9.41,11.44 -2.15,8.27 5.71,6.08 5.71,6.08 z"
   id="path125"
   inkscape:connector-curvature="0"
   style="fill:#c9364f" />
		</g><g
       id="g137"
       transform="matrix(1,0,0,-1,-242.48327,379.69)">
			<path
   d="m 360.45,131.39 c 0.3,-0.11 -0.23,8.05 -0.23,8.05 l -2.68,4.17 c 0,0 -6.22,4.45 -7.39,4.99 -1.17,0.54 -7.96,0.64 -7.96,0.64 0,0 -2.03,0.97 -2.99,0.53 -0.96,-0.44 -1.97,-3.83 -1.97,-3.83 0,0 -3.76,-2.03 -3.63,-9.82 0.13,-7.79 10.03,-11.19 10.03,-11.19 z"
   id="path129"
   inkscape:connector-curvature="0"
   style="fill:#eac9b8" />
			<path
   d="m 336.22,116.92 c 0,0 -2.31,-0.94 -3.63,0.82 -1.32,1.76 0.91,5.04 0.91,5.04 z"
   id="path131"
   inkscape:connector-curvature="0"
   style="fill:#eac9b8" />
			<path
   d="m 366.93,131.77 c 0,0 1.71,0.48 1.73,1.93 0.02,1.44 -3.31,4.97 -5.62,4.71 -2.31,-0.27 3.89,-6.64 3.89,-6.64 z"
   id="path133"
   inkscape:connector-curvature="0"
   style="fill:#eac9b8" />
			<path
   d="m 331.17585,130.2372 c 0,0 0.0241,-10.6472 4.62415,-17.3372 4.6,-6.69 9.63,-7.86 9.63,-7.86 0,0 4.77,-3.12 10.78,-1 6.01,2.12 11.25,7.71 13.18,13.6 1.93,5.89 -0.85,14.42 -4.11,18.57 -3.26,4.15 -7.75,7.39 -7.75,7.39 0,0 1.86,-5.46 -0.31,-5.8 0,0 -8.72,6.61 -14.55,6.25 -5.82,-0.37 -4.29169,-2.87415 -4.29169,-2.87415 0,0 -2.97,2.45 0,0 0,0 3.78,0.09 0,0 L 334.59,138.15 v 0 c 0,-0.01 -3.27415,-5.1828 -3.41415,-7.9128 z"
   id="path135"
   inkscape:connector-curvature="0"
   style="fill:#393f4b"
   sodipodi:nodetypes="cscsssccccccccc" />
		</g><path
       d="m 43.58673,68.67 c 0,0 0.78,-3.14 -0.62,-5.35 -1.4,-2.21 -4.07,-2.66 -5.85,-5.13 -1.78,-2.47 -5.26,-7.35 -10.16,-7.46 -4.9,-0.11 -8.59,5.04 -11.45,6.12 -2.86,1.08 -10.1700003,-0.95 -12.4600003,3.62 -2.28999997,4.58 3.11,12.27 -0.44,16.21 -3.55999997,3.94 -3.03999997,8.67 -1.02,10.93 3.29,3.68 7.63,4.04 12.6500003,1.18 5.02,-2.86 7.88,-0.73 10.17,0.03 2.29,0.76 6.16,1.05 7.63,0.4 1.46,-0.65 2.45,-3.22 2.45,-3.22 z"
       id="path139"
       inkscape:connector-curvature="0"
       style="fill:#241c1c" /><path
       d="m 44.63673,109.26 -6.37,-2.46 -3.91,-9.91 c 0,0 6.2,0.86 7.63,0 0.67,-0.4 1.89,-2.1 3.01,-3.79 3.47,1.96 5.36,3.14 5.36,3.14 z"
       id="path141"
       inkscape:connector-curvature="0"
       style="fill:#63adc1" /><path
       d="m 58.08673,78.63 c 0,0 -1.71,-0.51 -4.37,-1.54 1.16,-2.66 2.85,-7.16 2.47,-9.85 -0.57,-4 -5.83,-7.05 -5.83,-7.05 l 14.19,3.73 z"
       id="path143"
       inkscape:connector-curvature="0"
       style="fill:#63adc1" /><path
       d="m 169.34673,37.9 c 0,0 -2.53,6.87 0.05,10.91 3.01,4.71 11.24,7.79 16.46,5.78 7.65,-2.95 7.12,-5.42 7.12,-5.42 z"
       id="path145"
       inkscape:connector-curvature="0"
       style="fill:#fad1b1" /><path
       d="m 196.69673,48.53 c 0,0 -5.53,5.97 -13.75,4.65 -8.22,-1.31 -4.48856,-1.71585 -4.48856,-1.71585 L 175.03673,50.2 l -3.82,-2.92 c 0,0 -4.52,-7.39 -4.4,-12.65 0.12,-5.25 2.61,-8.62 2.61,-8.62 0,0 0.97,-5.14 3.4,-7.35 2.43,-2.2 8.28,-4.55 12.7,-4.09 4.42,0.46 8.27,2.8 8.27,2.8 0,0 3.74,0.25 6.55,3.6 2.81,3.35 2.6,6.96 2.6,6.96 0,0 2.67,3.31 2.82,5.26 0.14,1.95 -1.35,6.89 -1.35,6.89 0,0 -1.9,8.15 -7.72,8.45 z"
       id="path147"
       inkscape:connector-curvature="0"
       style="fill:#241c1c"
       sodipodi:nodetypes="ccccccccscscccc" /><path
       d="m 151.30673,54.86 2.3,-9.45 6.29,-7.51 c 0,0 1.72,10.53 9.91,17.32 8.2,6.79 22.5,5.07 24.6,4.97 2.1,-0.09 10.1,-9.46 10.1,-9.46 l -4.38,11.68 -11.02,9.05 z"
       id="path149"
       inkscape:connector-curvature="0"
       style="fill:#e28166" /><path
       d="m 219.79673,37.43 c 0,0 -15.49,-19.92 -29.78,-23.86 -12.52,-3.46 -27.73,0.51 -31.3,1.55 4.7,-1.56 23.72,-9.16 38.01,-2.5 10.9,5.07 19.14,17.23 23.07,24.81 z"
       id="path151"
       inkscape:connector-curvature="0"
       style="fill:#e28166" /><path
       d="m 111.48673,163.87 -7.27,3.34 c -0.37,0.17 -0.8,0.06 -1.04,-0.26 l -0.07,-0.1 c -0.33,-0.44 -0.17,-1.08 0.34,-1.3 l 7.34,-3.24 c 0.41,-0.18 0.89,-0.01 1.1,0.38 0.23,0.43 0.05,0.97 -0.4,1.18 z"
       id="path153"
       inkscape:connector-curvature="0"
       style="fill:#fdf5ea" /><rect
       x="177.76656"
       y="-182.6239"
       width="44.869999"
       height="32.16"
       id="rect155"
       style="fill:#ffffff"
       transform="scale(1,-1)" /><rect
       x="177.76656"
       y="-182.6239"
       width="43.720001"
       height="29.77"
       id="rect157"
       style="fill:#c4ccd7"
       transform="scale(1,-1)" /><rect
       x="176.42656"
       y="-185.4839"
       width="44.869999"
       height="32.16"
       id="rect159"
       style="fill:#ffffff"
       transform="scale(1,-1)" /><rect
       x="231.66698"
       y="-180.65359"
       transform="matrix(0.98830339,0.15250052,0.15250052,-0.98830339,0,0)"
       width="44.869846"
       height="32.159889"
       id="rect161"
       style="fill:#ffffff;stroke-width:0.99999654" /><rect
       x="-180.68365"
       y="-275.35999"
       transform="matrix(0.15240285,-0.98831846,-0.98831846,-0.15240285,0,0)"
       width="29.769445"
       height="43.719185"
       id="rect163"
       style="fill:#c4ccd7;stroke-width:0.99998134" /><rect
       x="230.33937"
       y="-183.52519"
       transform="matrix(0.98830339,0.15250052,0.15250052,-0.98830339,0,0)"
       width="44.869846"
       height="32.159889"
       id="rect165"
       style="fill:#ffffff;stroke-width:0.99999654" /><g
       id="g193"
       transform="matrix(1,0,0,-1,-242.48327,379.69)">
			<path
   d="m 286.62,228.25 c 0.39,0.63 1.22,0.82 1.85,0.43 l 4.65,-2.89 -1.42,-2.28 -4.65,2.89 c -0.63,0.39 -0.82,1.22 -0.43,1.85 z"
   id="path167"
   inkscape:connector-curvature="0"
   style="fill:#f16a44" />
			<circle
   cx="297.42001"
   cy="221.56"
   r="8.2700005"
   id="circle169"
   style="fill:#f16a44" />
			<path
   d="m 289.79,220.19 c 0.1,-0.78 0.33,-1.54 0.67,-2.25 0.34,-0.71 0.8,-1.38 1.35,-1.95 1.11,-1.15 2.58,-1.95 4.16,-2.25 0.2,-0.03 0.4,-0.05 0.6,-0.08 0.2,-0.03 0.4,-0.02 0.6,-0.04 0.1,0 0.2,-0.01 0.3,-0.01 l 0.3,0.01 c 0.2,0 0.4,0.03 0.6,0.05 0.79,0.1 1.57,0.32 2.29,0.67 0.72,0.34 1.39,0.79 1.96,1.33 0.57,0.55 1.06,1.17 1.43,1.86 -0.89,-1.29 -2.12,-2.3 -3.53,-2.9 -1.4,-0.61 -2.98,-0.75 -4.47,-0.49 -1.49,0.28 -2.89,1.01 -4,2.06 -1.1,1.09 -1.89,2.47 -2.26,3.99 z"
   id="path171"
   inkscape:connector-curvature="0"
   style="fill:#f8fbfc" />
			<circle
   cx="297.42001"
   cy="221.56"
   r="6.6799998"
   id="circle173"
   style="fill:#93603d" />
			<path
   d="m 291.01,223.46 c 0.82,2.77 3.38,4.79 6.41,4.79 3.38,0 6.18,-2.52 6.62,-5.78 -0.82,-2.77 -3.38,-4.79 -6.41,-4.79 -3.38,0 -6.18,2.51 -6.62,5.78 z"
   id="path175"
   inkscape:connector-curvature="0"
   style="fill:#a4704c" />
			<g
   id="g191"
   style="opacity:0.5">
				<path
   d="m 302.08,218.61 c -0.03,-0.05 -0.1,-0.06 -0.15,-0.03 -0.05,0.03 -0.06,0.1 -0.03,0.15 0.54,0.85 0.82,1.83 0.82,2.84 0,2.92 -2.38,5.3 -5.3,5.3 -0.28,0 -0.56,-0.02 -0.84,-0.07 -0.06,-0.01 -0.11,0.03 -0.12,0.09 -0.01,0.06 0.03,0.11 0.09,0.12 0.29,0.05 0.58,0.07 0.88,0.07 3.04,0 5.51,-2.47 5.51,-5.51 -0.01,-1.06 -0.3,-2.08 -0.86,-2.96 z"
   id="path177"
   inkscape:connector-curvature="0"
   style="fill:#f8fbfc" />
				<path
   d="m 294.31,217.26 c 0.05,-0.03 0.06,-0.1 0.02,-0.15 -0.03,-0.05 -0.1,-0.06 -0.15,-0.02 -1.43,1.04 -2.29,2.71 -2.29,4.47 0,1.37 0.5,2.68 1.42,3.69 0.02,0.02 0.05,0.04 0.08,0.04 0.03,0 0.05,-0.01 0.07,-0.03 0.04,-0.04 0.05,-0.11 0.01,-0.15 -0.88,-0.97 -1.36,-2.23 -1.36,-3.55 0.01,-1.7 0.83,-3.3 2.2,-4.3 z"
   id="path179"
   inkscape:connector-curvature="0"
   style="fill:#f8fbfc" />
				<path
   d="m 297.42,218.14 c 0.17,0 0.34,0.01 0.51,0.04 0.06,0.01 0.11,-0.03 0.12,-0.09 0.01,-0.06 -0.03,-0.11 -0.09,-0.12 -0.18,-0.03 -0.36,-0.04 -0.54,-0.04 -2,0 -3.64,1.63 -3.64,3.64 0,0.18 0.01,0.35 0.04,0.53 0.01,0.05 0.05,0.09 0.11,0.09 0,0 0.01,0 0.01,0 0.06,-0.01 0.1,-0.06 0.09,-0.12 -0.02,-0.16 -0.04,-0.33 -0.04,-0.5 0.01,-1.9 1.54,-3.43 3.43,-3.43 z"
   id="path181"
   inkscape:connector-curvature="0"
   style="fill:#f8fbfc" />
				<path
   d="m 300.08,224.04 c 0.04,-0.04 0.04,-0.11 0,-0.15 -0.04,-0.04 -0.11,-0.04 -0.15,0.01 -0.65,0.69 -1.56,1.09 -2.5,1.09 -0.96,0 -1.88,-0.4 -2.52,-1.11 -0.04,-0.04 -0.11,-0.05 -0.15,-0.01 -0.04,0.04 -0.05,0.11 -0.01,0.15 0.69,0.75 1.66,1.18 2.68,1.18 0.99,-0.01 1.96,-0.43 2.65,-1.16 z"
   id="path183"
   inkscape:connector-curvature="0"
   style="fill:#f8fbfc" />
				<path
   d="m 298.97,218.51 c 1.16,0.59 1.87,1.76 1.87,3.05 0,0.09 0,0.18 -0.01,0.26 0,0.06 0.04,0.11 0.1,0.11 0,0 0,0 0.01,0 0.05,0 0.1,-0.04 0.11,-0.1 0.01,-0.09 0.01,-0.18 0.01,-0.28 0,-1.38 -0.76,-2.62 -1.99,-3.24 -0.05,-0.03 -0.12,-0.01 -0.14,0.05 -0.04,0.06 -0.01,0.12 0.04,0.15 z"
   id="path185"
   inkscape:connector-curvature="0"
   style="fill:#f8fbfc" />
				<path
   d="m 297.42,224.38 c 1,0 1.9,-0.51 2.42,-1.37 0.03,-0.05 0.01,-0.12 -0.04,-0.15 -0.05,-0.03 -0.12,-0.01 -0.15,0.04 -0.48,0.79 -1.31,1.26 -2.24,1.26 -0.06,0 -0.11,0.05 -0.11,0.11 0.01,0.06 0.06,0.11 0.12,0.11 z"
   id="path187"
   inkscape:connector-curvature="0"
   style="fill:#f8fbfc" />
				<path
   d="m 299.26,219.71 c 0.04,0.04 0.11,0.04 0.15,0 0.04,-0.04 0.04,-0.11 0,-0.15 -0.53,-0.53 -1.24,-0.83 -2,-0.83 -1,0 -1.93,0.54 -2.44,1.4 -0.03,0.05 -0.01,0.12 0.04,0.15 0.02,0.01 0.04,0.01 0.05,0.01 0.04,0 0.07,-0.02 0.09,-0.05 0.47,-0.8 1.33,-1.29 2.25,-1.29 0.72,0 1.37,0.27 1.86,0.76 z"
   id="path189"
   inkscape:connector-curvature="0"
   style="fill:#f8fbfc" />
			</g>
		</g><g
       id="g221"
       transform="matrix(1,0,0,-1,-242.48327,379.69)">
			<path
   d="m 431.64,146.17 c -0.53,-0.52 -1.38,-0.52 -1.9,0 l -3.87,3.87 1.9,1.9 3.87,-3.87 c 0.52,-0.53 0.52,-1.38 0,-1.9 z"
   id="path195"
   inkscape:connector-curvature="0"
   style="fill:#f16a44" />
			<circle
   cx="422.42001"
   cy="155.45"
   r="8.2700005"
   id="circle197"
   style="fill:#f16a44" />
			<path
   d="m 414.8,154.08 c 0.1,-0.78 0.33,-1.54 0.67,-2.25 0.34,-0.71 0.79,-1.38 1.35,-1.95 1.1,-1.15 2.58,-1.95 4.15,-2.25 0.2,-0.03 0.4,-0.05 0.6,-0.08 0.2,-0.03 0.4,-0.02 0.6,-0.04 0.1,0 0.2,-0.01 0.3,-0.01 l 0.3,0.01 c 0.2,0 0.4,0.03 0.6,0.05 0.79,0.1 1.57,0.32 2.29,0.67 0.72,0.34 1.39,0.79 1.96,1.33 0.57,0.55 1.06,1.17 1.43,1.86 -0.89,-1.29 -2.12,-2.3 -3.53,-2.9 -1.4,-0.61 -2.98,-0.75 -4.47,-0.49 -1.49,0.28 -2.89,1.01 -4,2.06 -1.1,1.08 -1.89,2.47 -2.25,3.99 z"
   id="path199"
   inkscape:connector-curvature="0"
   style="fill:#f8fbfc" />
			<circle
   cx="422.42001"
   cy="155.45"
   r="6.6799998"
   id="circle201"
   style="fill:#93603d" />
			<path
   d="m 416.01,157.34 c 0.82,2.77 3.38,4.79 6.41,4.79 3.38,0 6.18,-2.52 6.62,-5.78 -0.82,-2.77 -3.38,-4.79 -6.41,-4.79 -3.38,0 -6.17,2.52 -6.62,5.78 z"
   id="path203"
   inkscape:connector-curvature="0"
   style="fill:#a4704c" />
			<g
   id="g219"
   style="opacity:0.5">
				<path
   d="m 427.08,152.5 c -0.03,-0.05 -0.1,-0.06 -0.15,-0.03 -0.05,0.03 -0.06,0.1 -0.03,0.15 0.54,0.85 0.82,1.83 0.82,2.84 0,2.92 -2.38,5.3 -5.3,5.3 -0.28,0 -0.56,-0.02 -0.84,-0.07 -0.06,-0.01 -0.11,0.03 -0.12,0.09 -0.01,0.06 0.03,0.11 0.09,0.12 0.29,0.05 0.58,0.07 0.88,0.07 3.04,0 5.51,-2.47 5.51,-5.51 0,-1.06 -0.3,-2.08 -0.86,-2.96 z"
   id="path205"
   inkscape:connector-curvature="0"
   style="fill:#f8fbfc" />
				<path
   d="m 419.32,151.15 c 0.05,-0.03 0.06,-0.1 0.02,-0.15 -0.04,-0.05 -0.1,-0.06 -0.15,-0.02 -1.43,1.04 -2.29,2.71 -2.29,4.47 0,1.37 0.5,2.68 1.42,3.69 0.02,0.02 0.05,0.03 0.08,0.03 0.03,0 0.05,-0.01 0.07,-0.03 0.04,-0.04 0.05,-0.11 0.01,-0.15 -0.88,-0.97 -1.36,-2.23 -1.36,-3.55 0,-1.69 0.82,-3.3 2.2,-4.29 z"
   id="path207"
   inkscape:connector-curvature="0"
   style="fill:#f8fbfc" />
				<path
   d="m 422.42,152.02 c 0.17,0 0.34,0.01 0.51,0.04 0.06,0.01 0.11,-0.03 0.12,-0.09 0.01,-0.06 -0.03,-0.11 -0.09,-0.12 -0.18,-0.03 -0.36,-0.04 -0.54,-0.04 -2,0 -3.63,1.63 -3.63,3.64 0,0.18 0.01,0.35 0.04,0.53 0.01,0.05 0.05,0.09 0.11,0.09 0,0 0.01,0 0.02,0 0.06,-0.01 0.1,-0.06 0.09,-0.12 -0.02,-0.16 -0.04,-0.33 -0.04,-0.5 -0.01,-1.89 1.53,-3.43 3.41,-3.43 z"
   id="path209"
   inkscape:connector-curvature="0"
   style="fill:#f8fbfc" />
				<path
   d="m 425.08,157.92 c 0.04,-0.04 0.04,-0.11 -0.01,-0.15 -0.05,-0.04 -0.11,-0.04 -0.15,0.01 -0.64,0.69 -1.56,1.09 -2.5,1.09 -0.96,0 -1.88,-0.4 -2.52,-1.11 -0.04,-0.04 -0.11,-0.05 -0.15,-0.01 -0.04,0.04 -0.05,0.11 -0.01,0.15 0.69,0.75 1.66,1.18 2.68,1.18 1.01,0 1.98,-0.42 2.66,-1.16 z"
   id="path211"
   inkscape:connector-curvature="0"
   style="fill:#f8fbfc" />
				<path
   d="m 423.97,152.39 c 1.16,0.59 1.87,1.76 1.87,3.05 0,0.09 0,0.18 -0.01,0.26 0,0.06 0.04,0.11 0.1,0.11 0,0 0.01,0 0.01,0 0.06,0 0.1,-0.04 0.11,-0.1 0.01,-0.09 0.01,-0.18 0.01,-0.28 0,-1.38 -0.76,-2.62 -1.99,-3.24 -0.05,-0.03 -0.12,-0.01 -0.14,0.05 -0.02,0.06 -0.01,0.13 0.04,0.15 z"
   id="path213"
   inkscape:connector-curvature="0"
   style="fill:#f8fbfc" />
				<path
   d="m 422.42,158.27 c 1,0 1.9,-0.51 2.42,-1.37 0.03,-0.05 0.01,-0.12 -0.04,-0.15 -0.05,-0.03 -0.12,-0.01 -0.15,0.04 -0.48,0.79 -1.31,1.26 -2.24,1.26 -0.06,0 -0.11,0.05 -0.11,0.11 0.02,0.06 0.06,0.11 0.12,0.11 z"
   id="path215"
   inkscape:connector-curvature="0"
   style="fill:#f8fbfc" />
				<path
   d="m 424.27,153.6 c 0.04,0.04 0.11,0.04 0.15,0 0.04,-0.04 0.04,-0.11 0,-0.15 -0.53,-0.53 -1.24,-0.83 -2,-0.83 -1,0 -1.93,0.54 -2.44,1.4 -0.03,0.05 -0.01,0.12 0.04,0.15 0.02,0.01 0.04,0.01 0.05,0.01 0.04,0 0.07,-0.02 0.09,-0.05 0.47,-0.8 1.33,-1.29 2.25,-1.29 0.71,0 1.36,0.27 1.86,0.76 z"
   id="path217"
   inkscape:connector-curvature="0"
   style="fill:#f8fbfc" />
			</g>
		</g><g
       id="g249"
       transform="matrix(1,0,0,-1,-242.48327,379.69)">
			<path
   d="m 464.31,282.54 c 0.63,-0.4 0.81,-1.23 0.41,-1.85 l -2.93,-4.62 -2.27,1.44 2.93,4.62 c 0.4,0.62 1.23,0.8 1.86,0.41 z"
   id="path223"
   inkscape:connector-curvature="0"
   style="fill:#f16a44" />
			<circle
   cx="457.48999"
   cy="271.13"
   r="8.2700005"
   id="circle225"
   style="fill:#f16a44" />
			<path
   d="m 449.87,269.77 c 0.1,-0.78 0.33,-1.54 0.67,-2.25 0.34,-0.71 0.8,-1.38 1.35,-1.96 1.1,-1.15 2.58,-1.95 4.16,-2.25 0.2,-0.03 0.4,-0.05 0.6,-0.08 0.2,-0.03 0.4,-0.02 0.6,-0.04 0.1,0 0.2,-0.01 0.3,-0.01 l 0.3,0.01 c 0.2,0 0.4,0.03 0.6,0.05 0.79,0.1 1.57,0.32 2.29,0.67 0.72,0.34 1.39,0.79 1.96,1.33 0.57,0.55 1.06,1.17 1.43,1.86 -0.89,-1.29 -2.12,-2.3 -3.53,-2.9 -1.4,-0.61 -2.98,-0.75 -4.47,-0.49 -1.49,0.28 -2.89,1.01 -4,2.06 -1.11,1.09 -1.9,2.48 -2.26,4 z"
   id="path227"
   inkscape:connector-curvature="0"
   style="fill:#f8fbfc" />
			<circle
   cx="457.48999"
   cy="271.13"
   r="6.6799998"
   id="circle229"
   style="fill:#93603d" />
			<path
   d="m 451.08,273.03 c 0.82,2.77 3.38,4.79 6.41,4.79 3.38,0 6.18,-2.52 6.62,-5.78 -0.82,-2.77 -3.38,-4.79 -6.41,-4.79 -3.38,0 -6.17,2.52 -6.62,5.78 z"
   id="path231"
   inkscape:connector-curvature="0"
   style="fill:#a4704c" />
			<g
   id="g247"
   style="opacity:0.5">
				<path
   d="m 462.15,268.18 c -0.03,-0.05 -0.1,-0.06 -0.15,-0.03 -0.05,0.03 -0.06,0.1 -0.03,0.15 0.54,0.85 0.82,1.83 0.82,2.84 0,2.92 -2.38,5.3 -5.3,5.3 -0.28,0 -0.57,-0.02 -0.84,-0.07 -0.06,-0.01 -0.11,0.03 -0.12,0.09 -0.01,0.06 0.03,0.11 0.09,0.12 0.29,0.05 0.58,0.07 0.88,0.07 3.04,0 5.51,-2.47 5.51,-5.51 0,-1.05 -0.3,-2.07 -0.86,-2.96 z"
   id="path233"
   inkscape:connector-curvature="0"
   style="fill:#f8fbfc" />
				<path
   d="m 454.39,266.84 c 0.05,-0.03 0.06,-0.1 0.02,-0.15 -0.04,-0.05 -0.1,-0.06 -0.15,-0.02 -1.43,1.04 -2.29,2.71 -2.29,4.47 0,1.37 0.5,2.68 1.42,3.69 0.02,0.02 0.05,0.04 0.08,0.04 0.03,0 0.05,-0.01 0.07,-0.03 0.04,-0.04 0.05,-0.11 0.01,-0.15 -0.88,-0.97 -1.36,-2.23 -1.36,-3.55 0,-1.7 0.82,-3.31 2.2,-4.3 z"
   id="path235"
   inkscape:connector-curvature="0"
   style="fill:#f8fbfc" />
				<path
   d="m 457.49,267.71 c 0.17,0 0.34,0.01 0.51,0.04 0.06,0.01 0.11,-0.03 0.12,-0.09 0.01,-0.06 -0.03,-0.11 -0.09,-0.12 -0.18,-0.03 -0.36,-0.04 -0.54,-0.04 -2,0 -3.64,1.63 -3.64,3.64 0,0.18 0.01,0.35 0.04,0.53 0.01,0.05 0.05,0.09 0.11,0.09 0,0 0.01,0 0.01,0 0.06,-0.01 0.1,-0.06 0.09,-0.12 -0.02,-0.16 -0.04,-0.33 -0.04,-0.5 0.01,-1.89 1.55,-3.43 3.43,-3.43 z"
   id="path237"
   inkscape:connector-curvature="0"
   style="fill:#f8fbfc" />
				<path
   d="m 460.15,273.61 c 0.04,-0.04 0.04,-0.11 0,-0.15 -0.04,-0.04 -0.11,-0.04 -0.15,0 -0.65,0.69 -1.56,1.09 -2.5,1.09 -0.96,0 -1.88,-0.4 -2.52,-1.11 -0.04,-0.04 -0.11,-0.05 -0.15,-0.01 -0.04,0.04 -0.05,0.11 -0.01,0.15 0.69,0.75 1.66,1.18 2.68,1.18 1,0.01 1.97,-0.41 2.65,-1.15 z"
   id="path239"
   inkscape:connector-curvature="0"
   style="fill:#f8fbfc" />
				<path
   d="m 459.04,268.08 c 1.16,0.59 1.87,1.76 1.87,3.05 0,0.09 0,0.18 -0.01,0.26 0,0.06 0.04,0.11 0.1,0.11 0,0 0,0 0.01,0 0.05,0 0.1,-0.04 0.11,-0.1 0.01,-0.09 0.01,-0.18 0.01,-0.28 0,-1.38 -0.76,-2.62 -1.99,-3.24 -0.05,-0.03 -0.12,-0.01 -0.14,0.05 -0.03,0.06 -0.01,0.12 0.04,0.15 z"
   id="path241"
   inkscape:connector-curvature="0"
   style="fill:#f8fbfc" />
				<path
   d="m 457.49,273.96 c 1,0 1.9,-0.51 2.42,-1.37 0.03,-0.05 0.01,-0.12 -0.04,-0.15 -0.05,-0.03 -0.12,-0.01 -0.15,0.04 -0.48,0.79 -1.31,1.26 -2.24,1.26 -0.06,0 -0.11,0.05 -0.11,0.11 0,0.06 0.06,0.11 0.12,0.11 z"
   id="path243"
   inkscape:connector-curvature="0"
   style="fill:#f8fbfc" />
				<path
   d="m 459.34,269.29 c 0.04,0.04 0.11,0.04 0.15,0 0.04,-0.04 0.04,-0.11 0,-0.15 -0.53,-0.53 -1.24,-0.83 -2,-0.83 -1,0 -1.93,0.54 -2.44,1.4 -0.03,0.05 -0.01,0.12 0.04,0.15 0.02,0.01 0.04,0.01 0.05,0.01 0.04,0 0.07,-0.02 0.09,-0.05 0.47,-0.8 1.33,-1.29 2.25,-1.29 0.71,0 1.36,0.27 1.86,0.76 z"
   id="path245"
   inkscape:connector-curvature="0"
   style="fill:#f8fbfc" />
			</g>
		</g><path
       d="m 47.79673,78.63 c -0.19,0.45 -1.3,0.63 -2.38,0.69 -4.11,7.62 -14.52,7.89 -14.52,7.89 0,0 -0.83,-3.26 3.6,-8.68 4.44,-5.41 4.41,-16.13 4.41,-16.13 0,0 2.33,1.25 4.7,3.85 1.97,2.17 3.91,5.36 3.09,9.57 0.65,1.08 1.3,2.34 1.1,2.81 z"
       id="path251"
       inkscape:connector-curvature="0"
       style="fill:#fad1b1" /><path
       d="m 148.05673,71.57 -1.04,3.75 c -0.26,0.95 -1.18,1.56 -2.16,1.43 l -12.98,-1.66 c -1.17,-0.15 -1.95,-1.28 -1.67,-2.43 l 0.97,-4.04 c 0.24,-1 1.2,-1.65 2.22,-1.5 l 13.06,1.95 c 1.16,0.18 1.92,1.35 1.6,2.5 z"
       id="path253"
       inkscape:connector-curvature="0"
       style="fill:#f9e1df" /><path
       d="m 171.62673,86.46 3.04,-2.43 c 0.77,-0.62 1.87,-0.57 2.59,0.1 l 9.56,8.94 c 0.86,0.8 0.83,2.18 -0.06,2.95 l -3.15,2.71 c -0.78,0.67 -1.94,0.63 -2.67,-0.08 l -9.44,-9.22 c -0.86,-0.84 -0.8,-2.23 0.13,-2.97 z"
       id="path255"
       inkscape:connector-curvature="0"
       style="fill:#f9e1df" /></g></g>

</svg>