<?xml version="1.0" encoding="UTF-8" standalone="no"?>
<!-- Generator: Adobe Illustrator 16.0.0, SVG Export Plug-In . SVG Version: 6.00 Build 0)  -->

<svg
   xmlns:dc="http://purl.org/dc/elements/1.1/"
   xmlns:cc="http://creativecommons.org/ns#"
   xmlns:rdf="http://www.w3.org/1999/02/22-rdf-syntax-ns#"
   xmlns:svg="http://www.w3.org/2000/svg"
   xmlns="http://www.w3.org/2000/svg"
   xmlns:sodipodi="http://sodipodi.sourceforge.net/DTD/sodipodi-0.dtd"
   xmlns:inkscape="http://www.inkscape.org/namespaces/inkscape"
   version="1.1"
   id="Ñëîé_1"
   x="0px"
   y="0px"
   width="310.56339"
   height="302.1127"
   viewBox="0 0 310.56339 302.1127"
   enable-background="new 0 0 600 450"
   xml:space="preserve"
   sodipodi:docname="contact [Converted].svg"
   inkscape:version="0.92.4 (5da689c313, 2019-01-14)"><metadata
   id="metadata1019"><rdf:RDF><cc:Work
       rdf:about=""><dc:format>image/svg+xml</dc:format><dc:type
         rdf:resource="http://purl.org/dc/dcmitype/StillImage" /></cc:Work></rdf:RDF></metadata><defs
   id="defs1017" /><sodipodi:namedview
   pagecolor="#ffffff"
   bordercolor="#666666"
   borderopacity="1"
   objecttolerance="10"
   gridtolerance="10"
   guidetolerance="10"
   inkscape:pageopacity="0"
   inkscape:pageshadow="2"
   inkscape:window-width="1366"
   inkscape:window-height="705"
   id="namedview1015"
   showgrid="false"
   inkscape:zoom="0.47333333"
   inkscape:cx="154.22536"
   inkscape:cy="136.26762"
   inkscape:window-x="-8"
   inkscape:window-y="-8"
   inkscape:window-maximized="1"
   inkscape:current-layer="Ñëîé_1" />
<radialGradient
   id="SVGID_1_"
   cx="162.6665"
   cy="183"
   r="442.9744"
   gradientUnits="userSpaceOnUse"
   gradientTransform="translate(-2.1126761,8.4507042)">
	<stop
   offset="0"
   style="stop-color:#3A9BD5"
   id="stop2" />
	<stop
   offset="1"
   style="stop-color:#0063AD"
   id="stop4" />
</radialGradient>






<g
   id="g1914"
   transform="translate(-135.21126,-99.295767)"
   inkscape:export-xdpi="182.87256"
   inkscape:export-ydpi="182.87256"><g
     style="opacity:0.5"
     transform="translate(18.310001,-13.369993)"
     id="g947">
	<g
   id="g892">
		<path
   style="fill:#ffffff"
   inkscape:connector-curvature="0"
   id="path841"
   d="m 166.18,210.19 v 0 0 c 0.04,-0.08 0.08,-0.15 0.12,-0.22 0.03,-0.05 0.06,-0.11 0.09,-0.16 0.03,-0.05 0.06,-0.11 0.09,-0.16 1.1,-1.97 2.66,-3.57 4.45,-4.35 l 0.5,-0.22 v 0 l 61.4,-26.77 61.4,-26.77 v 0 l 0.51,-0.22 c 1.79,-0.78 3.47,-0.6 4.79,0.32 0.04,0.02 0.07,0.05 0.11,0.07 0.04,0.03 0.07,0.05 0.11,0.08 l 7.11,5.25 -4.6,1.37 6.1,82.42 c 0.16,2.13 -0.45,4.38 -1.56,6.35 -0.03,0.06 -0.06,0.11 -0.09,0.17 -0.03,0.05 -0.06,0.1 -0.09,0.15 -1.1,1.97 -2.66,3.57 -4.45,4.35 l -122.46,53.4 0.49,5.18 -6.74,-4.99 c -0.04,-0.03 -0.07,-0.05 -0.11,-0.08 -1.32,-0.91 -2.21,-2.51 -2.37,-4.64 l -6.25,-84.4 c -0.14,-2.05 0.42,-4.21 1.45,-6.13 z" />
		<g
   id="g890">
			
				<linearGradient
   gradientTransform="matrix(-0.8267,0.3605,0.0782,1.0571,-1759.0688,1143.269)"
   y2="-33.222198"
   x2="-2342.4688"
   y1="-33.222198"
   x1="-2508.6406"
   gradientUnits="userSpaceOnUse"
   id="SVGID_4_">
				<stop
   id="stop843"
   style="stop-color:#7BDAFF"
   offset="0" />
				<stop
   id="stop845"
   style="stop-color:#59BDEF"
   offset="1" />
			</linearGradient>
			<path
   inkscape:connector-curvature="0"
   style="fill:url(#SVGID_4_)"
   id="path848"
   d="m 185.35,311 123.81,-53.99 c 3.74,-1.63 6.49,-6.84 6.14,-11.63 l -6.16,-83.19 c -0.36,-4.79 -3.68,-7.35 -7.42,-5.71 l -123.81,53.99 c -3.74,1.63 -6.49,6.84 -6.14,11.63 l 6.16,83.19 c 0.36,4.78 3.68,7.34 7.42,5.71 z" />
			
				<linearGradient
   gradientTransform="matrix(-0.8267,0.3605,0.0782,1.0571,-1759.0688,1143.269)"
   y2="-43.065399"
   x2="-2394.1821"
   y1="55.033199"
   x1="-2303.7192"
   gradientUnits="userSpaceOnUse"
   id="SVGID_5_">
				<stop
   id="stop850"
   style="stop-color:#59BDEF"
   offset="0.7677" />
				<stop
   id="stop852"
   style="stop-color:#55B8EB"
   offset="0.8452" />
				<stop
   id="stop854"
   style="stop-color:#49ABE1"
   offset="0.9318" />
				<stop
   id="stop856"
   style="stop-color:#3A9BD5"
   offset="1" />
			</linearGradient>
			<path
   inkscape:connector-curvature="0"
   style="fill:url(#SVGID_5_)"
   id="path859"
   d="m 178.42,210.25 61.4,-26.77 7.24,97.8 -61.2,29.51 c -4.02,1.75 -7.55,-0.43 -7.88,-4.89 l -6.25,-84.4 c -0.33,-4.46 2.66,-9.5 6.69,-11.25 z" />
			
				<linearGradient
   gradientTransform="matrix(0.8267,-0.3605,0.0782,1.0571,4533.1162,-1600.6128)"
   y2="-43.159698"
   x2="-5154.1411"
   y1="54.942402"
   x1="-5063.6748"
   gradientUnits="userSpaceOnUse"
   id="SVGID_6_">
				<stop
   id="stop861"
   style="stop-color:#59BDEF"
   offset="0.7677" />
				<stop
   id="stop863"
   style="stop-color:#55B8EB"
   offset="0.8452" />
				<stop
   id="stop865"
   style="stop-color:#49ABE1"
   offset="0.9318" />
				<stop
   id="stop867"
   style="stop-color:#3A9BD5"
   offset="1" />
			</linearGradient>
			<path
   inkscape:connector-curvature="0"
   style="fill:url(#SVGID_6_)"
   id="path870"
   d="m 301.22,156.7 -61.4,26.77 7.19,97.18 61.65,-23.43 c 4.02,-1.75 7.02,-6.79 6.69,-11.24 l -6.25,-84.4 c -0.33,-4.45 -3.86,-6.64 -7.88,-4.88 z" />
			
				<linearGradient
   gradientTransform="matrix(-0.8267,0.3605,0.0782,1.0571,-1759.0688,1143.269)"
   y2="-31.3356"
   x2="-2425.5552"
   y1="108.7422"
   x1="-2425.5552"
   gradientUnits="userSpaceOnUse"
   id="SVGID_7_">
				<stop
   id="stop872"
   style="stop-color:#3A9BD5"
   offset="0.7677" />
				<stop
   id="stop874"
   style="stop-color:#3896D2"
   offset="0.8386" />
				<stop
   id="stop876"
   style="stop-color:#3189C9"
   offset="0.9179" />
				<stop
   id="stop878"
   style="stop-color:#2573BA"
   offset="1" />
			</linearGradient>
			<path
   inkscape:connector-curvature="0"
   style="fill:url(#SVGID_7_)"
   id="path881"
   d="m 313.91,252.12 c -1.21,2.25 -3.08,4.17 -5.25,5.11 l -122.8,53.55 c -2.17,0.95 -4.2,0.74 -5.66,-0.35 l 62.4,-89.32 z" />
			
				<linearGradient
   gradientTransform="matrix(-0.8267,0.3605,0.0782,1.0571,-1759.0688,1143.269)"
   y2="-25.0364"
   x2="-2338.1499"
   y1="-100.7832"
   x1="-2481.0586"
   gradientUnits="userSpaceOnUse"
   id="SVGID_8_">
				<stop
   id="stop883"
   style="stop-color:#7BDAFF"
   offset="0" />
				<stop
   id="stop885"
   style="stop-color:#59BDEF"
   offset="1" />
			</linearGradient>
			<path
   inkscape:connector-curvature="0"
   style="fill:url(#SVGID_8_)"
   id="path888"
   d="m 173.17,215.36 c 1.21,-2.26 3.08,-4.17 5.25,-5.11 l 122.8,-53.55 c 2.17,-0.95 4.2,-0.74 5.66,0.35 l -62.4,89.32 z" />
		</g>
	</g>
	<g
   id="g945">
		<path
   style="fill:#ffffff"
   inkscape:connector-curvature="0"
   id="path894"
   d="m 199.55,226.24 v 0 0 c 0.04,-0.08 0.07,-0.17 0.11,-0.25 0.03,-0.06 0.05,-0.12 0.08,-0.18 0.03,-0.06 0.06,-0.12 0.09,-0.18 1.03,-2.21 2.57,-4.06 4.43,-5.04 l 0.53,-0.28 v 0 l 63.88,-33.81 63.88,-33.81 v 0 l 0.53,-0.28 c 1.86,-0.98 3.69,-0.92 5.18,-0.04 0.04,0.02 0.08,0.05 0.12,0.07 0.04,0.02 0.08,0.05 0.12,0.07 l 8.08,5.07 -4.84,1.84 13.28,88.18 c 0.34,2.27 -0.13,4.75 -1.16,6.96 -0.03,0.06 -0.06,0.12 -0.08,0.19 -0.03,0.06 -0.05,0.12 -0.08,0.17 -1.03,2.21 -2.57,4.06 -4.43,5.04 l -127.42,67.44 0.95,5.54 -7.65,-4.82 c -0.04,-0.03 -0.08,-0.05 -0.12,-0.07 -1.5,-0.87 -2.59,-2.52 -2.93,-4.8 l -13.6,-90.29 c -0.33,-2.2 0.09,-4.57 1.05,-6.72 z" />
		<g
   id="g943">
			
				<linearGradient
   gradientTransform="matrix(-0.7971,0.4219,0.1578,1.0482,-1829.9381,1510.5957)"
   y2="-129.061"
   x2="-2588.8125"
   y1="-129.061"
   x1="-2768.1104"
   gradientUnits="userSpaceOnUse"
   id="SVGID_9_">
				<stop
   id="stop896"
   style="stop-color:#7BDAFF"
   offset="0" />
				<stop
   id="stop898"
   style="stop-color:#59BDEF"
   offset="1" />
			</linearGradient>
			<path
   inkscape:connector-curvature="0"
   style="fill:url(#SVGID_9_)"
   id="path901"
   d="M 228.39,333.14 357.2,264.96 c 3.9,-2.06 6.43,-7.89 5.66,-13.01 l -13.4,-89.01 c -0.77,-5.12 -4.55,-7.6 -8.45,-5.54 L 212.2,225.58 c -3.9,2.06 -6.43,7.89 -5.66,13.01 l 13.4,89 c 0.77,5.13 4.56,7.61 8.45,5.55 z" />
			
				<linearGradient
   gradientTransform="matrix(-0.7971,0.4219,0.1578,1.0482,-1829.9381,1510.5957)"
   y2="-139.6817"
   x2="-2644.6104"
   y1="-33.8354"
   x1="-2547.0029"
   gradientUnits="userSpaceOnUse"
   id="SVGID_10_">
				<stop
   id="stop903"
   style="stop-color:#59BDEF"
   offset="0.7677" />
				<stop
   id="stop905"
   style="stop-color:#55B8EB"
   offset="0.8452" />
				<stop
   id="stop907"
   style="stop-color:#49ABE1"
   offset="0.9318" />
				<stop
   id="stop909"
   style="stop-color:#3A9BD5"
   offset="1" />
			</linearGradient>
			<path
   inkscape:connector-curvature="0"
   style="fill:url(#SVGID_10_)"
   id="path912"
   d="m 212.72,225.3 63.88,-33.81 15.75,104.63 -63.44,36.74 c -4.19,2.22 -8.16,0.15 -8.88,-4.62 l -13.6,-90.29 c -0.71,-4.77 2.11,-10.43 6.29,-12.65 z" />
			
				<linearGradient
   gradientTransform="matrix(0.7971,-0.4219,0.1578,1.0482,4236.832,-1700.5989)"
   y2="-139.7439"
   x2="-4898.6006"
   y1="-33.892601"
   x1="-4800.9883"
   gradientUnits="userSpaceOnUse"
   id="SVGID_11_">
				<stop
   id="stop914"
   style="stop-color:#59BDEF"
   offset="0.7677" />
				<stop
   id="stop916"
   style="stop-color:#55B8EB"
   offset="0.8452" />
				<stop
   id="stop918"
   style="stop-color:#49ABE1"
   offset="0.9318" />
				<stop
   id="stop920"
   style="stop-color:#3A9BD5"
   offset="1" />
			</linearGradient>
			<path
   inkscape:connector-curvature="0"
   style="fill:url(#SVGID_11_)"
   id="path923"
   d="m 340.48,157.68 -63.88,33.81 15.66,103.97 64.42,-30.23 c 4.19,-2.21 7,-7.88 6.28,-12.64 l -13.6,-90.29 c -0.72,-4.76 -4.69,-6.83 -8.88,-4.62 z" />
			
				<linearGradient
   gradientTransform="matrix(-0.7971,0.4219,0.1578,1.0482,-1829.9381,1510.5957)"
   y2="-127.026"
   x2="-2678.4629"
   y1="24.1147"
   x1="-2678.4629"
   gradientUnits="userSpaceOnUse"
   id="SVGID_12_">
				<stop
   id="stop925"
   style="stop-color:#3A9BD5"
   offset="0.7677" />
				<stop
   id="stop927"
   style="stop-color:#3896D2"
   offset="0.8386" />
				<stop
   id="stop929"
   style="stop-color:#3189C9"
   offset="0.9179" />
				<stop
   id="stop931"
   style="stop-color:#2573BA"
   offset="1" />
			</linearGradient>
			<path
   inkscape:connector-curvature="0"
   style="fill:url(#SVGID_12_)"
   id="path934"
   d="m 361.91,259.31 c -1.12,2.52 -2.97,4.73 -5.24,5.93 l -127.76,67.62 c -2.26,1.2 -4.46,1.13 -6.12,0.08 l 59.86,-101.18 z" />
			
				<linearGradient
   gradientTransform="matrix(-0.7971,0.4219,0.1578,1.0482,-1829.9381,1510.5957)"
   y2="-120.2248"
   x2="-2584.1523"
   y1="-201.9561"
   x1="-2738.3516"
   gradientUnits="userSpaceOnUse"
   id="SVGID_13_">
				<stop
   id="stop936"
   style="stop-color:#7BDAFF"
   offset="0" />
				<stop
   id="stop938"
   style="stop-color:#59BDEF"
   offset="1" />
			</linearGradient>
			<path
   inkscape:connector-curvature="0"
   style="fill:url(#SVGID_13_)"
   id="path941"
   d="m 207.49,231.23 c 1.12,-2.53 2.97,-4.73 5.24,-5.93 l 127.76,-67.62 c 2.26,-1.2 4.46,-1.13 6.12,-0.08 l -59.86,101.18 z" />
		</g>
	</g>
</g><g
     transform="translate(18.310001,-13.369993)"
     id="g1000">
	<path
   style="fill:#ffffff"
   inkscape:connector-curvature="0"
   id="path949"
   d="m 234.86,225.86 v 0 0 c 0.04,-0.09 0.07,-0.18 0.11,-0.27 0.02,-0.06 0.05,-0.13 0.08,-0.19 0.03,-0.07 0.06,-0.13 0.09,-0.2 1.01,-2.4 2.58,-4.42 4.52,-5.55 l 0.55,-0.32 v 0 l 66.72,-38.54 66.72,-38.54 v 0 l 0.55,-0.32 c 1.94,-1.12 3.89,-1.13 5.52,-0.25 0.05,0.02 0.09,0.05 0.13,0.07 0.04,0.02 0.09,0.05 0.13,0.07 l 8.81,5.08 -5.08,2.15 17.62,93.42 c 0.45,2.41 0.05,5.07 -0.96,7.46 -0.03,0.07 -0.06,0.13 -0.08,0.2 -0.03,0.06 -0.05,0.13 -0.08,0.19 -1.01,2.4 -2.58,4.43 -4.52,5.55 l -133.07,76.86 1.23,5.86 -8.34,-4.83 c -0.04,-0.02 -0.09,-0.05 -0.13,-0.07 -1.63,-0.87 -2.85,-2.59 -3.31,-5 l -18.04,-95.66 c -0.45,-2.3 -0.09,-4.85 0.83,-7.17 z" />
	<g
   id="g998">
		
			<linearGradient
   gradientTransform="matrix(-0.781,0.4511,0.1965,1.0417,-1854.8579,1694.6921)"
   y2="-166.2715"
   x2="-2739.0806"
   y1="-166.2715"
   x1="-2930.2148"
   gradientUnits="userSpaceOnUse"
   id="SVGID_14_">
			<stop
   id="stop951"
   style="stop-color:#7BDAFF"
   offset="0" />
			<stop
   id="stop953"
   style="stop-color:#59BDEF"
   offset="1" />
		</linearGradient>
		<path
   inkscape:connector-curvature="0"
   style="fill:url(#SVGID_14_)"
   id="path956"
   d="m 269.81,338.6 134.54,-77.71 c 4.07,-2.35 6.54,-8.65 5.51,-14.08 l -17.78,-94.29 c -1.02,-5.43 -5.15,-7.92 -9.22,-5.57 l -134.54,77.71 c -4.07,2.35 -6.54,8.65 -5.51,14.08 l 17.78,94.29 c 1.02,5.43 5.15,7.92 9.22,5.57 z" />
		
			<linearGradient
   gradientTransform="matrix(-0.781,0.4511,0.1965,1.0417,-1854.8579,1694.6921)"
   y2="-177.5939"
   x2="-2798.5623"
   y1="-64.758797"
   x1="-2694.5098"
   gradientUnits="userSpaceOnUse"
   id="SVGID_15_">
			<stop
   id="stop958"
   style="stop-color:#59BDEF"
   offset="0.7677" />
			<stop
   id="stop960"
   style="stop-color:#55B8EB"
   offset="0.8452" />
			<stop
   id="stop962"
   style="stop-color:#49ABE1"
   offset="0.9318" />
			<stop
   id="stop964"
   style="stop-color:#3A9BD5"
   offset="1" />
		</linearGradient>
		<path
   inkscape:connector-curvature="0"
   style="fill:url(#SVGID_15_)"
   id="path967"
   d="m 248.86,224.34 66.72,-38.54 20.91,110.85 -66.14,41.63 c -4.37,2.53 -8.69,0.48 -9.64,-4.57 l -18.04,-95.66 c -0.95,-5.04 1.82,-11.18 6.19,-13.71 z" />
		
			<linearGradient
   gradientTransform="matrix(0.781,-0.4511,0.1965,1.0417,4089.6758,-1738.98)"
   y2="-177.6136"
   x2="-4740.5723"
   y1="-64.7808"
   x1="-4636.522"
   gradientUnits="userSpaceOnUse"
   id="SVGID_16_">
			<stop
   id="stop969"
   style="stop-color:#59BDEF"
   offset="0.7677" />
			<stop
   id="stop971"
   style="stop-color:#55B8EB"
   offset="0.8452" />
			<stop
   id="stop973"
   style="stop-color:#49ABE1"
   offset="0.9318" />
			<stop
   id="stop975"
   style="stop-color:#3A9BD5"
   offset="1" />
		</linearGradient>
		<path
   inkscape:connector-curvature="0"
   style="fill:url(#SVGID_16_)"
   id="path978"
   d="m 382.3,147.27 -66.72,38.54 20.78,110.15 67.44,-34.74 c 4.37,-2.52 7.14,-8.67 6.19,-13.72 l -18.04,-95.66 c -0.96,-5.05 -5.27,-7.1 -9.65,-4.57 z" />
		
			<linearGradient
   gradientTransform="matrix(-0.781,0.4511,0.1965,1.0417,-1854.8579,1694.6921)"
   y2="-164.1012"
   x2="-2834.646"
   y1="-2.9872999"
   x1="-2834.646"
   gradientUnits="userSpaceOnUse"
   id="SVGID_17_">
			<stop
   id="stop980"
   style="stop-color:#3A9BD5"
   offset="0.7677" />
			<stop
   id="stop982"
   style="stop-color:#3896D2"
   offset="0.8386" />
			<stop
   id="stop984"
   style="stop-color:#3189C9"
   offset="0.9179" />
			<stop
   id="stop986"
   style="stop-color:#2573BA"
   offset="1" />
		</linearGradient>
		<path
   inkscape:connector-curvature="0"
   style="fill:url(#SVGID_17_)"
   id="path989"
   d="m 409.14,254.69 c -1.09,2.73 -2.98,5.16 -5.34,6.52 l -133.44,77.07 c -2.36,1.37 -4.71,1.38 -6.51,0.33 l 59.79,-110.15 z" />
		
			<linearGradient
   gradientTransform="matrix(-0.781,0.4511,0.1965,1.0417,-1854.8579,1694.6921)"
   y2="-156.85471"
   x2="-2734.116"
   y1="-243.9805"
   x1="-2898.4932"
   gradientUnits="userSpaceOnUse"
   id="SVGID_18_">
			<stop
   id="stop991"
   style="stop-color:#7BDAFF"
   offset="0" />
			<stop
   id="stop993"
   style="stop-color:#59BDEF"
   offset="1" />
		</linearGradient>
		<path
   inkscape:connector-curvature="0"
   style="fill:url(#SVGID_18_)"
   id="path996"
   d="m 243.52,230.86 c 1.09,-2.73 2.98,-5.16 5.34,-6.52 L 382.3,147.27 c 2.36,-1.36 4.7,-1.38 6.51,-0.33 L 329.03,257.1 Z" />
	</g>
</g></g>

</svg>