<?xml version="1.0" encoding="UTF-8" standalone="no"?>
<!-- Generator: Adobe Illustrator 16.0.0, SVG Export Plug-In . SVG Version: 6.00 Build 0)  -->

<svg
   xmlns:dc="http://purl.org/dc/elements/1.1/"
   xmlns:cc="http://creativecommons.org/ns#"
   xmlns:rdf="http://www.w3.org/1999/02/22-rdf-syntax-ns#"
   xmlns:svg="http://www.w3.org/2000/svg"
   xmlns="http://www.w3.org/2000/svg"
   xmlns:sodipodi="http://sodipodi.sourceforge.net/DTD/sodipodi-0.dtd"
   xmlns:inkscape="http://www.inkscape.org/namespaces/inkscape"
   version="1.1"
   x="0px"
   y="0px"
   width="524"
   height="450"
   viewBox="0 0 524 450"
   enable-background="new 0 0 450 450"
   xml:space="preserve"
   id="svg961"
   sodipodi:docname="resources.svg"
   inkscape:version="0.92.4 (5da689c313, 2019-01-14)"><metadata
   id="metadata967"><rdf:RDF><cc:Work
       rdf:about=""><dc:format>image/svg+xml</dc:format><dc:type
         rdf:resource="http://purl.org/dc/dcmitype/StillImage" /><dc:title></dc:title></cc:Work></rdf:RDF></metadata><defs
   id="defs965">
	
	
</defs><sodipodi:namedview
   pagecolor="#ffffff"
   bordercolor="#666666"
   borderopacity="1"
   objecttolerance="10"
   gridtolerance="10"
   guidetolerance="10"
   inkscape:pageopacity="0"
   inkscape:pageshadow="2"
   inkscape:window-width="1366"
   inkscape:window-height="705"
   id="namedview963"
   showgrid="false"
   inkscape:zoom="1.0488889"
   inkscape:cx="164.26944"
   inkscape:cy="216.37615"
   inkscape:window-x="-8"
   inkscape:window-y="-8"
   inkscape:window-maximized="1"
   inkscape:current-layer="svg961" />
<g
   id="Layer_2"
   display="none"
   style="display:none"
   transform="translate(76.271202,-1.9067794)">
	<radialGradient
   id="SVGID_1_"
   cx="225"
   cy="225"
   r="275.5372"
   gradientUnits="userSpaceOnUse">
		<stop
   offset="0.6061"
   style="stop-color:#FFFFFF"
   id="stop2" />
		<stop
   offset="0.7802"
   style="stop-color:#F7F7F7"
   id="stop4" />
		<stop
   offset="1"
   style="stop-color:#E6E6E6"
   id="stop6" />
	</radialGradient>
	<rect
   display="inline"
   width="450"
   height="450"
   id="rect9"
   x="0"
   y="0"
   style="display:inline;fill:url(#SVGID_1_)" />
</g>

<g
   transform="matrix(4.0813874,0,0,4.0813874,-788.27791,-911.27324)"
   id="g1617"><g
     id="g1573"><path
       style="fill:#e6ae7e"
       inkscape:connector-curvature="0"
       d="m 258.46,263.61 c 4.15,1.88 9.66,3.03 15.71,3.03 6.05,0 11.56,-1.15 15.71,-3.03 -4.15,-1.88 -9.66,-3.03 -15.71,-3.03 -6.05,0 -11.56,1.14 -15.71,3.03 z"
       id="path1475" /><g
       id="g1503"><path
         style="fill:#aebfce"
         inkscape:connector-curvature="0"
         d="m 277.19,243.07 c -0.02,0.48 -0.33,0.85 -0.68,0.84 l -3.4,-0.17 c -0.36,-0.02 -0.62,-0.42 -0.6,-0.9 l 0.14,-2.74 c 0.03,-0.48 0.33,-0.86 0.69,-0.84 l 3.39,0.17 c 0.35,0.02 0.62,0.42 0.6,0.9 z"
         id="path1477" /><path
         style="fill:#aebfce"
         inkscape:connector-curvature="0"
         d="m 275.83,269.74 c 0.02,-0.48 -0.24,-0.89 -0.6,-0.91 l -3.4,-0.17 c -0.35,-0.02 -0.66,0.36 -0.69,0.83 l -0.14,2.74 c -0.02,0.48 0.24,0.88 0.6,0.9 l 3.4,0.17 c 0.35,0.02 0.66,-0.36 0.68,-0.83 z"
         id="path1479" /><path
         style="fill:#aebfce"
         inkscape:connector-curvature="0"
         d="m 270.18,243.33 c 0.22,0.43 0.14,0.9 -0.17,1.07 l -3.03,1.55 c -0.31,0.16 -0.75,-0.05 -0.97,-0.48 l -1.25,-2.44 c -0.22,-0.43 -0.14,-0.91 0.17,-1.07 l 3.03,-1.55 c 0.32,-0.17 0.75,0.05 0.97,0.48 z"
         id="path1481" /><path
         style="fill:#aebfce"
         inkscape:connector-curvature="0"
         d="m 282.34,267.11 c -0.22,-0.43 -0.65,-0.65 -0.97,-0.49 l -3.03,1.55 c -0.32,0.16 -0.4,0.64 -0.18,1.07 l 1.25,2.44 c 0.22,0.43 0.65,0.65 0.97,0.48 l 3.03,-1.55 c 0.32,-0.17 0.4,-0.64 0.17,-1.07 z"
         id="path1483" /><path
         style="fill:#aebfce"
         inkscape:connector-curvature="0"
         d="m 264.23,247.06 c 0.41,0.26 0.58,0.72 0.39,1.01 l -1.85,2.86 c -0.2,0.3 -0.68,0.33 -1.08,0.07 l -2.3,-1.49 c -0.4,-0.26 -0.58,-0.72 -0.38,-1.01 l 1.85,-2.86 c 0.19,-0.3 0.68,-0.33 1.08,-0.06 z"
         id="path1485" /><path
         style="fill:#aebfce"
         inkscape:connector-curvature="0"
         d="m 286.65,261.57 c -0.4,-0.26 -0.89,-0.23 -1.08,0.07 l -1.85,2.86 c -0.19,0.3 -0.03,0.75 0.38,1.02 l 2.3,1.49 c 0.4,0.26 0.89,0.23 1.08,-0.07 l 1.84,-2.86 c 0.2,-0.29 0.02,-0.75 -0.38,-1.01 z"
         id="path1487" /><path
         style="fill:#aebfce"
         inkscape:connector-curvature="0"
         d="m 260.95,253.27 c 0.48,0.03 0.86,0.33 0.84,0.69 l -0.17,3.4 c -0.02,0.35 -0.42,0.62 -0.9,0.6 l -2.74,-0.14 c -0.48,-0.03 -0.86,-0.33 -0.84,-0.69 l 0.17,-3.39 c 0.02,-0.36 0.42,-0.62 0.9,-0.6 z"
         id="path1489" /><path
         style="fill:#aebfce"
         inkscape:connector-curvature="0"
         d="m 287.63,254.62 c -0.48,-0.03 -0.89,0.24 -0.91,0.6 l -0.17,3.4 c -0.02,0.36 0.36,0.67 0.84,0.69 l 2.74,0.14 c 0.48,0.02 0.89,-0.25 0.91,-0.6 l 0.17,-3.4 c 0.02,-0.36 -0.36,-0.66 -0.84,-0.69 z"
         id="path1491" /><path
         style="fill:#aebfce"
         inkscape:connector-curvature="0"
         d="m 261.22,260.28 c 0.43,-0.22 0.9,-0.14 1.07,0.17 l 1.55,3.03 c 0.16,0.32 -0.05,0.75 -0.48,0.97 l -2.44,1.25 c -0.43,0.22 -0.9,0.14 -1.07,-0.18 l -1.55,-3.03 c -0.16,-0.32 0.05,-0.75 0.48,-0.97 z"
         id="path1493" /><path
         style="fill:#aebfce"
         inkscape:connector-curvature="0"
         d="m 284.99,248.12 c -0.43,0.22 -0.64,0.65 -0.48,0.97 l 1.55,3.03 c 0.16,0.32 0.64,0.4 1.07,0.18 l 2.44,-1.25 c 0.43,-0.22 0.64,-0.65 0.48,-0.97 l -1.55,-3.03 c -0.16,-0.32 -0.64,-0.39 -1.07,-0.18 z"
         id="path1495" /><path
         style="fill:#aebfce"
         inkscape:connector-curvature="0"
         d="m 264.95,266.22 c 0.27,-0.41 0.72,-0.58 1.02,-0.38 l 2.86,1.85 c 0.3,0.2 0.33,0.68 0.07,1.09 l -1.49,2.3 c -0.26,0.4 -0.72,0.57 -1.02,0.38 l -2.85,-1.85 c -0.3,-0.2 -0.33,-0.68 -0.07,-1.08 z"
         id="path1497" /><path
         style="fill:#aebfce"
         inkscape:connector-curvature="0"
         d="m 279.45,243.8 c -0.26,0.4 -0.23,0.89 0.07,1.08 l 2.86,1.85 c 0.29,0.19 0.75,0.03 1.01,-0.38 l 1.49,-2.3 c 0.26,-0.41 0.23,-0.89 -0.07,-1.08 l -2.86,-1.85 c -0.3,-0.19 -0.75,-0.02 -1.01,0.38 z"
         id="path1499" /><path
         style="fill:#768296"
         inkscape:connector-curvature="0"
         d="m 274.9,241.96 c -7.91,-0.4 -14.65,5.69 -15.05,13.6 -0.4,7.91 5.68,14.65 13.59,15.05 7.91,0.4 14.65,-5.69 15.05,-13.6 0.41,-7.91 -5.68,-14.64 -13.59,-15.05 z m 10.87,14.92 c -0.33,6.41 -5.78,11.33 -12.19,11.01 -6.41,-0.33 -11.34,-5.79 -11.01,-12.19 0.32,-6.4 5.78,-11.33 12.19,-11.01 6.41,0.32 11.33,5.78 11.01,12.19 z"
         id="path1501" /></g><g
       id="g1531"><path
         style="fill:#ffa229"
         inkscape:connector-curvature="0"
         d="m 272.15,249.1 c -0.01,0.17 -0.12,0.29 -0.24,0.29 l -1.18,-0.06 c -0.13,-0.01 -0.22,-0.15 -0.21,-0.31 l 0.05,-0.95 c 0.01,-0.17 0.12,-0.3 0.24,-0.29 l 1.18,0.06 c 0.12,0.01 0.22,0.15 0.21,0.31 z"
         id="path1505" /><path
         style="fill:#ffa229"
         inkscape:connector-curvature="0"
         d="m 271.67,258.34 c 0.01,-0.17 -0.08,-0.31 -0.21,-0.31 l -1.18,-0.06 c -0.12,-0.01 -0.23,0.12 -0.24,0.29 l -0.05,0.95 c -0.01,0.17 0.08,0.31 0.21,0.31 l 1.18,0.06 c 0.12,0.01 0.23,-0.12 0.24,-0.29 z"
         id="path1507" /><path
         style="fill:#ffa229"
         inkscape:connector-curvature="0"
         d="m 269.71,249.19 c 0.08,0.15 0.05,0.31 -0.06,0.37 l -1.05,0.54 c -0.11,0.06 -0.26,-0.02 -0.33,-0.17 l -0.43,-0.85 c -0.08,-0.15 -0.05,-0.31 0.06,-0.37 l 1.05,-0.54 c 0.11,-0.06 0.26,0.02 0.34,0.17 z"
         id="path1509" /><path
         style="fill:#ffa229"
         inkscape:connector-curvature="0"
         d="m 273.93,257.43 c -0.08,-0.15 -0.23,-0.23 -0.33,-0.17 l -1.05,0.54 c -0.11,0.06 -0.14,0.22 -0.06,0.37 l 0.43,0.85 c 0.08,0.15 0.23,0.22 0.34,0.17 l 1.05,-0.54 c 0.11,-0.06 0.14,-0.22 0.06,-0.37 z"
         id="path1511" /><path
         style="fill:#ffa229"
         inkscape:connector-curvature="0"
         d="m 267.66,250.48 c 0.14,0.09 0.2,0.25 0.13,0.35 l -0.64,0.99 c -0.07,0.1 -0.24,0.12 -0.38,0.02 l -0.8,-0.52 c -0.14,-0.09 -0.2,-0.25 -0.13,-0.35 l 0.64,-0.99 c 0.07,-0.1 0.23,-0.11 0.37,-0.02 z"
         id="path1513" /><path
         style="fill:#ffa229"
         inkscape:connector-curvature="0"
         d="m 275.42,255.51 c -0.14,-0.09 -0.31,-0.08 -0.38,0.02 l -0.64,0.99 c -0.07,0.1 -0.01,0.26 0.13,0.35 l 0.8,0.51 c 0.14,0.09 0.31,0.08 0.37,-0.02 l 0.64,-0.99 c 0.07,-0.1 0.01,-0.26 -0.13,-0.35 z"
         id="path1515" /><path
         style="fill:#ffa229"
         inkscape:connector-curvature="0"
         d="m 266.52,252.63 c 0.17,0.01 0.3,0.12 0.29,0.24 l -0.06,1.18 c 0,0.12 -0.15,0.22 -0.31,0.21 l -0.95,-0.05 c -0.17,-0.01 -0.3,-0.12 -0.29,-0.24 l 0.06,-1.17 c 0,-0.12 0.15,-0.22 0.31,-0.21 z"
         id="path1517" /><path
         style="fill:#ffa229"
         inkscape:connector-curvature="0"
         d="m 275.76,253.1 c -0.17,-0.01 -0.31,0.08 -0.31,0.21 l -0.06,1.18 c -0.01,0.12 0.12,0.23 0.29,0.24 l 0.95,0.05 c 0.17,0.01 0.31,-0.08 0.31,-0.21 l 0.06,-1.18 c 0,-0.12 -0.13,-0.23 -0.29,-0.24 z"
         id="path1519" /><path
         style="fill:#ffa229"
         inkscape:connector-curvature="0"
         d="m 266.61,255.06 c 0.15,-0.07 0.31,-0.05 0.37,0.06 l 0.54,1.05 c 0.06,0.11 -0.02,0.26 -0.17,0.33 l -0.85,0.43 c -0.15,0.08 -0.31,0.05 -0.37,-0.06 l -0.54,-1.05 c -0.06,-0.11 0.02,-0.26 0.17,-0.34 z"
         id="path1521" /><path
         style="fill:#ffa229"
         inkscape:connector-curvature="0"
         d="m 274.85,250.85 c -0.15,0.08 -0.22,0.23 -0.17,0.34 l 0.54,1.05 c 0.05,0.11 0.22,0.14 0.37,0.06 l 0.85,-0.43 c 0.15,-0.08 0.22,-0.23 0.17,-0.34 l -0.54,-1.05 c -0.06,-0.11 -0.22,-0.14 -0.37,-0.06 z"
         id="path1523" /><path
         style="fill:#ffa229"
         inkscape:connector-curvature="0"
         d="m 267.9,257.12 c 0.09,-0.14 0.25,-0.2 0.35,-0.13 l 0.99,0.64 c 0.1,0.07 0.11,0.24 0.02,0.38 l -0.52,0.8 c -0.09,0.14 -0.25,0.2 -0.35,0.13 l -0.99,-0.64 c -0.1,-0.07 -0.11,-0.23 -0.02,-0.37 z"
         id="path1525" /><path
         style="fill:#ffa229"
         inkscape:connector-curvature="0"
         d="m 272.93,249.35 c -0.09,0.14 -0.08,0.31 0.03,0.38 l 0.99,0.64 c 0.1,0.07 0.26,0.01 0.35,-0.13 l 0.52,-0.8 c 0.09,-0.14 0.08,-0.31 -0.02,-0.37 l -0.99,-0.64 c -0.1,-0.07 -0.26,-0.01 -0.35,0.13 z"
         id="path1527" /><path
         style="fill:#ffa229"
         inkscape:connector-curvature="0"
         d="m 271.35,248.71 c -2.74,-0.14 -5.08,1.97 -5.22,4.71 -0.14,2.74 1.97,5.08 4.71,5.22 2.74,0.14 5.08,-1.97 5.22,-4.71 0.14,-2.74 -1.97,-5.08 -4.71,-5.22 z m -0.42,8.24 c -1.81,-0.09 -3.2,-1.63 -3.1,-3.43 0.09,-1.8 1.63,-3.19 3.43,-3.1 1.81,0.09 3.2,1.63 3.1,3.43 -0.09,1.8 -1.62,3.19 -3.43,3.1 z"
         id="path1529" /></g><g
       id="g1559"><path
         style="fill:#1c4670"
         inkscape:connector-curvature="0"
         d="m 279.4,256.99 c 0,0.13 -0.08,0.22 -0.17,0.22 l -0.88,-0.01 c -0.09,0 -0.16,-0.1 -0.16,-0.23 l 0.01,-0.71 c 0,-0.12 0.08,-0.22 0.17,-0.22 l 0.87,0.01 c 0.09,0 0.17,0.1 0.17,0.22 z"
         id="path1533" /><path
         style="fill:#1c4670"
         inkscape:connector-curvature="0"
         d="m 279.35,263.87 c 0,-0.12 -0.07,-0.23 -0.16,-0.23 l -0.88,-0.01 c -0.09,0 -0.17,0.1 -0.17,0.22 v 0.71 c 0,0.12 0.07,0.22 0.16,0.23 h 0.88 c 0.09,0 0.17,-0.1 0.17,-0.22 z"
         id="path1535" /><path
         style="fill:#1c4670"
         inkscape:connector-curvature="0"
         d="m 277.6,257.13 c 0.07,0.11 0.05,0.23 -0.03,0.28 l -0.76,0.43 c -0.08,0.04 -0.19,0 -0.25,-0.11 l -0.35,-0.61 c -0.06,-0.11 -0.05,-0.23 0.03,-0.28 l 0.76,-0.43 c 0.08,-0.05 0.2,0.01 0.26,0.11 z"
         id="path1537" /><path
         style="fill:#1c4670"
         inkscape:connector-curvature="0"
         d="m 280.99,263.12 c -0.06,-0.11 -0.17,-0.16 -0.25,-0.11 l -0.76,0.43 c -0.08,0.05 -0.1,0.17 -0.03,0.28 l 0.35,0.61 c 0.06,0.11 0.18,0.16 0.25,0.11 l 0.76,-0.43 c 0.08,-0.04 0.09,-0.17 0.03,-0.28 z"
         id="path1539" /><path
         style="fill:#1c4670"
         inkscape:connector-curvature="0"
         d="m 276.12,258.16 c 0.11,0.06 0.16,0.18 0.11,0.26 l -0.44,0.75 c -0.05,0.08 -0.17,0.09 -0.28,0.03 l -0.61,-0.36 c -0.11,-0.06 -0.16,-0.18 -0.11,-0.26 l 0.44,-0.76 c 0.05,-0.08 0.17,-0.09 0.28,-0.03 z"
         id="path1541" /><path
         style="fill:#1c4670"
         inkscape:connector-curvature="0"
         d="m 282.04,261.64 c -0.11,-0.06 -0.23,-0.05 -0.28,0.03 l -0.44,0.76 c -0.05,0.08 0,0.19 0.11,0.26 l 0.61,0.36 c 0.11,0.06 0.23,0.05 0.28,-0.03 l 0.44,-0.76 c 0.05,-0.08 0,-0.19 -0.11,-0.26 z"
         id="path1543" /><path
         style="fill:#1c4670"
         inkscape:connector-curvature="0"
         d="m 275.34,259.79 c 0.12,0 0.22,0.08 0.22,0.17 l -0.01,0.88 c 0,0.09 -0.1,0.16 -0.22,0.16 h -0.71 c -0.13,0 -0.22,-0.08 -0.22,-0.17 v -0.87 c 0,-0.09 0.1,-0.17 0.23,-0.17 z"
         id="path1545" /><path
         style="fill:#1c4670"
         inkscape:connector-curvature="0"
         d="m 282.22,259.85 c -0.12,0 -0.23,0.07 -0.23,0.16 l -0.01,0.88 c 0,0.09 0.1,0.17 0.22,0.17 h 0.71 c 0.12,0 0.22,-0.07 0.23,-0.17 l 0.01,-0.88 c 0,-0.09 -0.1,-0.17 -0.22,-0.17 z"
         id="path1547" /><path
         style="fill:#1c4670"
         inkscape:connector-curvature="0"
         d="m 275.49,261.59 c 0.11,-0.06 0.23,-0.04 0.27,0.03 l 0.43,0.76 c 0.05,0.08 0,0.19 -0.11,0.25 l -0.62,0.35 c -0.11,0.06 -0.23,0.05 -0.28,-0.03 l -0.43,-0.76 c -0.04,-0.08 0.01,-0.19 0.11,-0.26 z"
         id="path1549" /><path
         style="fill:#1c4670"
         inkscape:connector-curvature="0"
         d="m 281.47,258.2 c -0.11,0.06 -0.16,0.17 -0.11,0.26 l 0.44,0.76 c 0.04,0.08 0.17,0.09 0.27,0.03 l 0.62,-0.35 c 0.11,-0.06 0.16,-0.17 0.11,-0.25 l -0.43,-0.76 c -0.05,-0.08 -0.17,-0.09 -0.28,-0.03 z"
         id="path1551" /><path
         style="fill:#1c4670"
         inkscape:connector-curvature="0"
         d="m 276.51,263.08 c 0.06,-0.11 0.18,-0.15 0.26,-0.11 l 0.76,0.44 c 0.08,0.05 0.09,0.17 0.03,0.28 l -0.36,0.61 c -0.06,0.11 -0.18,0.16 -0.26,0.11 l -0.75,-0.44 c -0.08,-0.05 -0.09,-0.17 -0.03,-0.28 z"
         id="path1553" /><path
         style="fill:#1c4670"
         inkscape:connector-curvature="0"
         d="m 280,257.15 c -0.06,0.11 -0.05,0.23 0.03,0.28 l 0.76,0.44 c 0.08,0.05 0.19,0 0.26,-0.11 l 0.36,-0.61 c 0.06,-0.11 0.05,-0.23 -0.03,-0.28 l -0.75,-0.44 c -0.08,-0.05 -0.19,0 -0.26,0.11 z"
         id="path1555" /><path
         style="fill:#1c4670"
         inkscape:connector-curvature="0"
         d="m 278.8,256.73 c -2.04,-0.02 -3.71,1.63 -3.72,3.66 -0.02,2.04 1.62,3.71 3.67,3.72 2.04,0.02 3.71,-1.63 3.72,-3.66 0.01,-2.04 -1.63,-3.71 -3.67,-3.72 z m -0.04,6.12 c -1.34,-0.01 -2.42,-1.11 -2.41,-2.45 0.01,-1.34 1.11,-2.42 2.45,-2.41 1.35,0.01 2.42,1.11 2.41,2.45 -0.02,1.35 -1.11,2.42 -2.45,2.41 z"
         id="path1557" /></g><path
       style="fill:#f4c297"
       inkscape:connector-curvature="0"
       d="m 289.91,276.31 h -0.31 c 0.13,-1.07 0.27,-2.12 0.39,-3.12 0.28,-2.1 0.69,-5.86 -0.14,-9.57 -4.14,1.88 -9.64,3.02 -15.68,3.02 -6.04,0 -11.54,-1.14 -15.68,-3.02 -0.83,3.71 -0.41,7.46 -0.14,9.57 0.13,1 0.27,2.05 0.4,3.12 h -0.31 c -2.74,-2.03 -2.97,3.27 -1.83,5.08 0.95,1.5 0.97,1.66 1.54,3.31 0.42,1.22 1.12,1.38 1.71,1.25 0.07,0.72 0.14,1.35 0.18,1.85 0.25,2.78 6.94,8.36 8.46,10.1 1.42,1.64 3.79,1 4.55,0.96 0.77,-0.04 1.13,-0.06 1.13,-0.06 0,0 0.37,0.02 1.13,0.06 0.76,0.03 3.13,0.67 4.55,-0.96 1.52,-1.75 8.2,-7.32 8.46,-10.1 0.05,-0.5 0.11,-1.13 0.18,-1.85 0.59,0.13 1.29,-0.03 1.71,-1.25 0.57,-1.65 0.59,-1.81 1.54,-3.31 1.13,-1.81 0.89,-7.11 -1.84,-5.08 z"
       id="path1561" /><g
       id="g1571"><g
         id="g1565"><path
           style="fill:#768296"
           inkscape:connector-curvature="0"
           d="m 274.15,266.38 c -2.33,0 -4.58,-0.8 -6.4,-2.31 -2.08,-1.72 -3.37,-4.14 -3.63,-6.82 l 0.96,-0.09 c 0.23,2.43 1.4,4.62 3.28,6.18 1.88,1.55 4.26,2.28 6.69,2.04 l 0.09,0.96 c -0.33,0.03 -0.66,0.04 -0.99,0.04 z"
           id="path1563" /></g><g
         id="g1569"><path
           style="fill:#768296"
           inkscape:connector-curvature="0"
           d="m 283.26,255.41 c -0.48,-5.01 -4.95,-8.71 -9.97,-8.22 l -0.09,-0.96 c 5.53,-0.53 10.48,3.54 11.02,9.08 z"
           id="path1567" /></g></g></g><g
     id="g1615"><g
       id="g1587"><path
         style="fill:#1c4670"
         inkscape:connector-curvature="0"
         d="m 274.27,284.75 c 0.09,-0.75 0.46,-0.35 0.57,0.19 0.11,0.54 1.09,4.08 3.81,1.35 2.76,-2.69 -0.77,-3.71 -1.31,-3.82 -0.54,-0.11 -0.93,-0.48 -0.18,-0.57 0.94,-0.11 2.85,-0.25 4.37,1.53 1.61,1.88 0.03,4.05 -0.85,4.91 -0.88,0.86 -3.06,2.42 -4.92,0.8 -1.76,-1.53 -1.6,-3.44 -1.49,-4.39 z"
         id="path1575" /><path
         style="fill:#1c4670"
         inkscape:connector-curvature="0"
         d="m 294.43,305.11 c 0.75,-0.09 0.36,-0.45 -0.18,-0.56 -0.54,-0.11 -4.07,-1.13 -1.31,-3.82 2.71,-2.74 3.7,0.8 3.81,1.34 0.11,0.54 0.47,0.93 0.56,0.18 0.12,-0.94 0.27,-2.85 -1.49,-4.38 -1.86,-1.62 -4.05,-0.06 -4.92,0.8 -0.87,0.87 -2.45,3.04 -0.85,4.91 1.53,1.77 3.44,1.63 4.38,1.53 z"
         id="path1577" /><rect
         style="fill:#1c4670"
         x="285.57001"
         y="285.25"
         transform="matrix(0.7105,-0.7037,0.7037,0.7105,-123.2439,286.3268)"
         width="1.59"
         height="15.38"
         id="rect1579" /><rect
         style="fill:#1c4670"
         x="284.44"
         y="286.37"
         transform="rotate(135.25119,285.23499,294.05487)"
         width="1.59"
         height="15.38"
         id="rect1581" /><path
         style="fill:#1c4670"
         inkscape:connector-curvature="0"
         d="m 294.25,304.54 c 0.54,0.11 0.93,0.48 0.18,0.56 -0.95,0.11 -2.85,0.24 -4.37,-1.53 -1.61,-1.88 -0.03,-4.05 0.85,-4.91 l 2.04,2.06 c -2.77,2.69 0.77,3.71 1.3,3.82 z"
         id="path1583" /><path
         style="fill:#1c4670"
         inkscape:connector-curvature="0"
         d="m 275.76,289.14 c -1.76,-1.54 -1.6,-3.44 -1.49,-4.39 0.09,-0.75 0.46,-0.35 0.57,0.19 0.11,0.54 1.09,4.08 3.81,1.35 l 2.04,2.05 c -0.88,0.86 -3.07,2.43 -4.93,0.8 z"
         id="path1585" /></g><g
       id="g1613"><g
         id="g1597"><rect
           style="fill:#fcd751"
           x="289.07999"
           y="281.70999"
           transform="matrix(0.7055,0.7087,-0.7087,0.7055,289.9645,-120.2658)"
           width="1.23"
           height="14.13"
           id="rect1589" /><rect
           style="fill:#ffa229"
           x="289.95001"
           y="282.57999"
           transform="matrix(-0.7027,-0.7115,0.7115,-0.7027,288.6639,699.9144)"
           width="1.23"
           height="14.13"
           id="rect1591" /><path
           style="fill:#fcd751"
           inkscape:connector-curvature="0"
           d="m 294.02,285.36 c 0,0 -1.38,-1.88 -0.7,-2.59 0.69,-0.71 3.86,-2.2 4.69,-1.37 z"
           id="path1593" /><path
           style="fill:#ffa229"
           inkscape:connector-curvature="0"
           d="m 294.02,285.36 c 0,0 1.87,1.4 2.58,0.72 0.72,-0.68 2.24,-3.84 1.41,-4.67 z"
           id="path1595" /></g><g
         id="g1611"><path
           style="fill:#aebfce"
           inkscape:connector-curvature="0"
           d="m 278.9,303.53 c -0.89,0.88 -2.33,0.88 -3.21,-0.02 v 0 c -0.88,-0.89 -0.88,-2.33 0.02,-3.21 l 8,-7.93 c 0.89,-0.88 2.33,-0.88 3.22,0.01 v 0 c 0.88,0.89 0.88,2.33 -0.02,3.21 z"
           id="path1599" /><path
           style="fill:#768296"
           inkscape:connector-curvature="0"
           d="m 276.7,303.12 c -0.2,0.19 -0.49,0.21 -0.66,0.05 v 0 c -0.17,-0.17 -0.14,-0.46 0.05,-0.65 l 8.9,-8.82 c 0.2,-0.19 0.49,-0.21 0.66,-0.05 v 0 c 0.17,0.17 0.14,0.46 -0.05,0.65 z"
           id="path1601" /><path
           style="fill:#768296"
           inkscape:connector-curvature="0"
           d="m 278.09,303.61 c -0.2,0.2 -0.49,0.22 -0.66,0.05 v 0 c -0.17,-0.17 -0.14,-0.46 0.05,-0.65 l 8.9,-8.82 c 0.19,-0.19 0.49,-0.21 0.65,-0.05 v 0 c 0.17,0.17 0.14,0.46 -0.05,0.66 z"
           id="path1603" /><path
           style="fill:#768296"
           inkscape:connector-curvature="0"
           d="m 275.62,301.11 c -0.19,0.2 -0.22,0.49 -0.05,0.66 v 0 c 0.17,0.17 0.46,0.15 0.66,-0.05 l 8.9,-8.82 c 0.2,-0.19 0.22,-0.49 0.05,-0.66 v 0 c -0.17,-0.17 -0.46,-0.15 -0.65,0.05 z"
           id="path1605" /><path
           style="fill:#768296"
           inkscape:connector-curvature="0"
           d="m 288.25,295.33 c -0.44,0.44 -1.16,0.43 -1.59,-0.01 l -2.67,-2.69 c -0.44,-0.44 -0.43,-1.16 0.01,-1.6 v 0 c 0.44,-0.44 1.15,-0.43 1.59,0.01 l 2.66,2.69 c 0.44,0.45 0.44,1.16 0,1.6 z"
           id="path1607" /><path
           style="fill:#768296"
           inkscape:connector-curvature="0"
           d="m 288.12,294.83 c -0.34,0.34 -0.92,0.31 -1.3,-0.08 l -2.27,-2.3 c -0.38,-0.38 -0.4,-0.96 -0.06,-1.29 v 0 c 0.34,-0.34 0.92,-0.3 1.29,0.08 l 2.28,2.3 c 0.37,0.38 0.4,0.96 0.06,1.29 z"
           id="path1609" /></g></g></g></g></svg>