<?xml version="1.0" encoding="UTF-8" standalone="no"?>
<!-- Generator: Adobe Illustrator 16.0.0, SVG Export Plug-In . SVG Version: 6.00 Build 0)  -->

<svg
   xmlns:dc="http://purl.org/dc/elements/1.1/"
   xmlns:cc="http://creativecommons.org/ns#"
   xmlns:rdf="http://www.w3.org/1999/02/22-rdf-syntax-ns#"
   xmlns:svg="http://www.w3.org/2000/svg"
   xmlns="http://www.w3.org/2000/svg"
   xmlns:sodipodi="http://sodipodi.sourceforge.net/DTD/sodipodi-0.dtd"
   xmlns:inkscape="http://www.inkscape.org/namespaces/inkscape"
   version="1.1"
   x="0px"
   y="0px"
   width="524"
   height="450"
   viewBox="0 0 524 450"
   enable-background="new 0 0 450 450"
   xml:space="preserve"
   id="svg961"
   sodipodi:docname="services.svg"
   inkscape:version="0.92.4 (5da689c313, 2019-01-14)"><metadata
   id="metadata967"><rdf:RDF><cc:Work
       rdf:about=""><dc:format>image/svg+xml</dc:format><dc:type
         rdf:resource="http://purl.org/dc/dcmitype/StillImage" /></cc:Work></rdf:RDF></metadata><defs
   id="defs965">
	
	
</defs><sodipodi:namedview
   pagecolor="#ffffff"
   bordercolor="#666666"
   borderopacity="1"
   objecttolerance="10"
   gridtolerance="10"
   guidetolerance="10"
   inkscape:pageopacity="0"
   inkscape:pageshadow="2"
   inkscape:window-width="1366"
   inkscape:window-height="705"
   id="namedview963"
   showgrid="false"
   inkscape:zoom="1.0488889"
   inkscape:cx="164.26944"
   inkscape:cy="216.37615"
   inkscape:window-x="-8"
   inkscape:window-y="-8"
   inkscape:window-maximized="1"
   inkscape:current-layer="svg961" />
<g
   id="Layer_2"
   display="none"
   style="display:none"
   transform="translate(76.271202,-1.9067794)">
	<radialGradient
   id="SVGID_1_"
   cx="225"
   cy="225"
   r="275.5372"
   gradientUnits="userSpaceOnUse">
		<stop
   offset="0.6061"
   style="stop-color:#FFFFFF"
   id="stop2" />
		<stop
   offset="0.7802"
   style="stop-color:#F7F7F7"
   id="stop4" />
		<stop
   offset="1"
   style="stop-color:#E6E6E6"
   id="stop6" />
	</radialGradient>
	<rect
   display="inline"
   width="450"
   height="450"
   id="rect9"
   x="0"
   y="0"
   style="display:inline;fill:url(#SVGID_1_)" />
</g>

<g
   transform="matrix(3.6291134,0,0,3.6291134,85.115647,-1177.408)"
   id="g775"><g
     id="g663"><g
       id="g633"><path
         style="fill:#aebfce"
         inkscape:connector-curvature="0"
         d="m 46.82,383.77 c -0.01,0.29 -0.2,0.51 -0.41,0.5 l -2.05,-0.1 c -0.21,-0.01 -0.38,-0.25 -0.36,-0.55 l 0.08,-1.65 c 0.01,-0.29 0.2,-0.52 0.42,-0.5 l 2.05,0.1 c 0.21,0.01 0.37,0.25 0.36,0.54 z"
         id="path607" /><path
         style="fill:#aebfce"
         inkscape:connector-curvature="0"
         d="m 46,399.84 c 0.01,-0.29 -0.15,-0.53 -0.36,-0.54 l -2.05,-0.1 c -0.21,-0.01 -0.4,0.21 -0.41,0.5 l -0.08,1.65 c -0.02,0.29 0.14,0.53 0.36,0.54 l 2.05,0.1 c 0.21,0.01 0.4,-0.21 0.41,-0.5 z"
         id="path609" /><path
         style="fill:#aebfce"
         inkscape:connector-curvature="0"
         d="m 42.59,383.93 c 0.13,0.26 0.09,0.55 -0.11,0.64 l -1.83,0.94 c -0.19,0.1 -0.45,-0.03 -0.58,-0.29 l -0.75,-1.47 c -0.13,-0.26 -0.08,-0.55 0.11,-0.64 l 1.83,-0.93 c 0.19,-0.1 0.45,0.03 0.58,0.29 z"
         id="path611" /><path
         style="fill:#aebfce"
         inkscape:connector-curvature="0"
         d="m 49.92,398.26 c -0.13,-0.26 -0.39,-0.39 -0.58,-0.29 l -1.82,0.94 c -0.19,0.1 -0.24,0.39 -0.11,0.64 l 0.75,1.47 c 0.13,0.26 0.4,0.39 0.59,0.29 l 1.83,-0.93 c 0.19,-0.1 0.24,-0.39 0.1,-0.65 z"
         id="path613" /><path
         style="fill:#aebfce"
         inkscape:connector-curvature="0"
         d="m 39.01,386.18 c 0.24,0.16 0.35,0.43 0.23,0.61 l -1.12,1.72 c -0.12,0.18 -0.41,0.2 -0.65,0.04 l -1.38,-0.9 c -0.24,-0.16 -0.35,-0.43 -0.23,-0.61 l 1.11,-1.72 c 0.11,-0.18 0.41,-0.2 0.65,-0.04 z"
         id="path615" /><path
         style="fill:#aebfce"
         inkscape:connector-curvature="0"
         d="m 52.52,394.92 c -0.24,-0.16 -0.54,-0.14 -0.65,0.04 l -1.11,1.72 c -0.12,0.18 -0.02,0.45 0.23,0.61 l 1.39,0.9 c 0.24,0.16 0.54,0.14 0.65,-0.04 l 1.11,-1.72 c 0.12,-0.18 0.02,-0.45 -0.23,-0.61 z"
         id="path617" /><path
         style="fill:#aebfce"
         inkscape:connector-curvature="0"
         d="m 37.04,389.92 c 0.29,0.02 0.52,0.2 0.51,0.41 l -0.11,2.05 c -0.01,0.21 -0.25,0.37 -0.54,0.36 l -1.65,-0.08 c -0.29,-0.02 -0.52,-0.2 -0.5,-0.42 l 0.1,-2.04 c 0.01,-0.22 0.26,-0.38 0.55,-0.36 z"
         id="path619" /><path
         style="fill:#aebfce"
         inkscape:connector-curvature="0"
         d="m 53.1,390.73 c -0.29,-0.01 -0.54,0.15 -0.55,0.36 l -0.1,2.05 c -0.01,0.21 0.21,0.4 0.51,0.41 l 1.65,0.08 c 0.29,0.02 0.53,-0.15 0.54,-0.36 l 0.11,-2.05 c 0.01,-0.21 -0.22,-0.4 -0.51,-0.41 z"
         id="path621" /><path
         style="fill:#aebfce"
         inkscape:connector-curvature="0"
         d="m 37.19,394.14 c 0.26,-0.13 0.54,-0.08 0.64,0.11 l 0.93,1.83 c 0.1,0.19 -0.03,0.45 -0.29,0.58 L 37,397.41 c -0.26,0.13 -0.54,0.08 -0.65,-0.11 l -0.93,-1.83 c -0.1,-0.19 0.03,-0.45 0.29,-0.58 z"
         id="path623" /><path
         style="fill:#aebfce"
         inkscape:connector-curvature="0"
         d="m 51.52,386.82 c -0.26,0.13 -0.39,0.39 -0.29,0.58 l 0.93,1.82 c 0.1,0.19 0.38,0.24 0.64,0.11 l 1.47,-0.75 c 0.26,-0.13 0.39,-0.39 0.29,-0.58 l -0.93,-1.83 c -0.1,-0.19 -0.39,-0.24 -0.64,-0.11 z"
         id="path625" /><path
         style="fill:#aebfce"
         inkscape:connector-curvature="0"
         d="m 39.44,397.72 c 0.16,-0.24 0.43,-0.34 0.61,-0.23 l 1.72,1.11 c 0.18,0.12 0.2,0.41 0.04,0.66 l -0.9,1.39 c -0.16,0.24 -0.43,0.35 -0.61,0.23 l -1.72,-1.11 c -0.18,-0.12 -0.2,-0.41 -0.04,-0.65 z"
         id="path627" /><path
         style="fill:#aebfce"
         inkscape:connector-curvature="0"
         d="m 48.18,384.22 c -0.16,0.24 -0.14,0.53 0.04,0.65 l 1.72,1.11 c 0.18,0.12 0.45,0.01 0.61,-0.23 l 0.9,-1.39 c 0.16,-0.24 0.14,-0.54 -0.04,-0.65 l -1.72,-1.11 c -0.18,-0.12 -0.45,-0.01 -0.61,0.23 z"
         id="path629" /><path
         style="fill:#768296"
         inkscape:connector-curvature="0"
         d="m 45.44,383.11 c -4.77,-0.24 -8.83,3.43 -9.07,8.19 -0.24,4.77 3.42,8.83 8.19,9.07 4.77,0.24 8.82,-3.43 9.07,-8.19 0.24,-4.77 -3.43,-8.83 -8.19,-9.07 z m -0.73,14.31 c -3.14,-0.16 -5.55,-2.83 -5.39,-5.97 0.16,-3.14 2.83,-5.55 5.97,-5.39 3.14,0.16 5.55,2.83 5.39,5.97 -0.16,3.13 -2.83,5.55 -5.97,5.39 z"
         id="path631" /></g><g
       id="g661"><path
         style="fill:#1c4670"
         inkscape:connector-curvature="0"
         d="m 51.52,380.7 c -0.01,0.21 -0.15,0.38 -0.3,0.37 l -1.51,-0.08 c -0.16,-0.01 -0.28,-0.19 -0.27,-0.4 l 0.06,-1.21 c 0.01,-0.21 0.15,-0.38 0.31,-0.37 l 1.5,0.08 c 0.16,0.01 0.28,0.19 0.27,0.4 z"
         id="path635" /><path
         style="fill:#1c4670"
         inkscape:connector-curvature="0"
         d="m 50.92,392.52 c 0.01,-0.22 -0.11,-0.4 -0.26,-0.4 l -1.51,-0.08 c -0.16,-0.01 -0.29,0.16 -0.31,0.37 l -0.06,1.21 c -0.01,0.21 0.11,0.39 0.27,0.4 l 1.51,0.07 c 0.16,0.01 0.29,-0.16 0.3,-0.37 z"
         id="path637" /><path
         style="fill:#1c4670"
         inkscape:connector-curvature="0"
         d="m 48.41,380.81 c 0.1,0.19 0.06,0.4 -0.08,0.47 l -1.34,0.69 c -0.14,0.07 -0.33,-0.02 -0.43,-0.21 l -0.55,-1.08 c -0.1,-0.19 -0.06,-0.4 0.08,-0.47 l 1.34,-0.68 c 0.14,-0.08 0.33,0.02 0.43,0.21 z"
         id="path639" /><path
         style="fill:#1c4670"
         inkscape:connector-curvature="0"
         d="m 53.8,391.35 c -0.1,-0.19 -0.29,-0.29 -0.43,-0.21 l -1.34,0.69 c -0.14,0.07 -0.18,0.29 -0.08,0.47 l 0.55,1.08 c 0.1,0.19 0.29,0.29 0.43,0.21 l 1.34,-0.69 c 0.14,-0.07 0.18,-0.28 0.08,-0.47 z"
         id="path641" /><path
         style="fill:#1c4670"
         inkscape:connector-curvature="0"
         d="m 45.78,382.47 c 0.18,0.11 0.25,0.32 0.17,0.45 l -0.82,1.27 c -0.09,0.13 -0.3,0.15 -0.48,0.03 l -1.02,-0.66 c -0.18,-0.12 -0.26,-0.32 -0.17,-0.45 l 0.82,-1.27 c 0.08,-0.13 0.3,-0.14 0.48,-0.03 z"
         id="path643" /><path
         style="fill:#1c4670"
         inkscape:connector-curvature="0"
         d="m 55.71,388.89 c -0.18,-0.12 -0.39,-0.1 -0.48,0.03 l -0.82,1.27 c -0.09,0.13 -0.01,0.33 0.17,0.45 l 1.02,0.66 c 0.18,0.12 0.4,0.1 0.48,-0.03 L 56.9,390 c 0.09,-0.13 0.01,-0.33 -0.17,-0.45 z"
         id="path645" /><path
         style="fill:#1c4670"
         inkscape:connector-curvature="0"
         d="m 44.32,385.21 c 0.22,0.01 0.38,0.15 0.37,0.3 l -0.08,1.51 c -0.01,0.16 -0.19,0.28 -0.4,0.27 L 43,387.23 c -0.21,-0.01 -0.38,-0.15 -0.37,-0.31 l 0.08,-1.5 c 0.01,-0.16 0.19,-0.28 0.4,-0.26 z"
         id="path647" /><path
         style="fill:#1c4670"
         inkscape:connector-curvature="0"
         d="m 56.15,385.82 c -0.21,-0.01 -0.39,0.11 -0.4,0.26 l -0.08,1.51 c -0.01,0.16 0.16,0.3 0.37,0.31 l 1.21,0.06 c 0.21,0.01 0.39,-0.11 0.4,-0.27 l 0.08,-1.5 c 0.01,-0.16 -0.16,-0.29 -0.37,-0.31 z"
         id="path649" /><path
         style="fill:#1c4670"
         inkscape:connector-curvature="0"
         d="m 44.44,388.32 c 0.19,-0.1 0.4,-0.06 0.47,0.08 l 0.69,1.34 c 0.07,0.14 -0.02,0.33 -0.21,0.43 l -1.08,0.55 c -0.19,0.1 -0.4,0.06 -0.47,-0.08 l -0.69,-1.34 c -0.07,-0.14 0.02,-0.33 0.21,-0.43 z"
         id="path651" /><path
         style="fill:#1c4670"
         inkscape:connector-curvature="0"
         d="m 54.98,382.93 c -0.19,0.1 -0.29,0.29 -0.21,0.43 l 0.68,1.34 c 0.07,0.14 0.28,0.17 0.48,0.08 l 1.08,-0.55 c 0.19,-0.1 0.29,-0.29 0.21,-0.43 l -0.69,-1.34 c -0.07,-0.14 -0.28,-0.17 -0.47,-0.08 z"
         id="path653" /><path
         style="fill:#1c4670"
         inkscape:connector-curvature="0"
         d="m 46.09,390.96 c 0.12,-0.18 0.32,-0.25 0.45,-0.17 l 1.27,0.82 c 0.13,0.09 0.15,0.3 0.03,0.48 l -0.66,1.02 c -0.12,0.18 -0.32,0.25 -0.45,0.17 l -1.27,-0.82 c -0.13,-0.09 -0.14,-0.3 -0.03,-0.48 z"
         id="path655" /><path
         style="fill:#1c4670"
         inkscape:connector-curvature="0"
         d="m 52.52,381.02 c -0.11,0.18 -0.1,0.39 0.03,0.48 l 1.27,0.82 c 0.13,0.09 0.33,0.01 0.45,-0.17 l 0.66,-1.02 c 0.11,-0.18 0.1,-0.39 -0.03,-0.48 l -1.27,-0.82 C 53.5,379.75 53.3,379.82 53.18,380 Z"
         id="path657" /><path
         style="fill:#1c4670"
         inkscape:connector-curvature="0"
         d="m 50.5,380.2 c -3.51,-0.18 -6.49,2.52 -6.67,6.03 -0.18,3.51 2.52,6.49 6.03,6.67 3.51,0.18 6.49,-2.52 6.67,-6.03 0.18,-3.5 -2.52,-6.49 -6.03,-6.67 z m -0.53,10.53 c -2.31,-0.12 -4.08,-2.08 -3.97,-4.39 0.12,-2.31 2.08,-4.09 4.39,-3.97 2.31,0.12 4.09,2.08 3.97,4.39 -0.12,2.31 -2.08,4.09 -4.39,3.97 z"
         id="path659" /></g></g><g
     id="g705"><g
       id="g677"><path
         style="fill:#1c4670"
         inkscape:connector-curvature="0"
         d="m 66.19,398.07 c -0.24,-0.75 0.28,-0.54 0.62,-0.07 0.34,0.47 2.82,3.39 4.19,-0.39 1.44,-3.75 -2.35,-3.17 -2.91,-3.04 -0.56,0.13 -1.09,-0.05 -0.42,-0.46 0.85,-0.51 2.6,-1.48 4.81,-0.46 2.34,1.07 1.79,3.82 1.34,5.02 -0.45,1.2 -1.84,3.63 -4.31,2.91 -2.33,-0.69 -3.02,-2.56 -3.32,-3.51 z"
         id="path665" /><path
         style="fill:#1c4670"
         inkscape:connector-curvature="0"
         d="m 94.17,408.54 c 0.67,-0.41 0.14,-0.59 -0.42,-0.46 -0.56,0.13 -4.35,0.71 -2.91,-3.05 1.37,-3.78 3.85,-0.85 4.19,-0.39 0.34,0.46 0.86,0.68 0.62,-0.07 -0.3,-0.94 -0.99,-2.82 -3.32,-3.5 -2.48,-0.72 -3.86,1.71 -4.31,2.91 -0.45,1.2 -1,3.95 1.35,5.02 2.21,1.01 3.95,0.05 4.8,-0.46 z"
         id="path667" /><rect
         style="fill:#1c4670"
         x="80.379997"
         y="392.51999"
         transform="matrix(0.3493,-0.937,0.937,0.3493,-322.4717,336.7256)"
         width="1.66"
         height="16.040001"
         id="rect669" /><rect
         style="fill:#1c4670"
         x="79.800003"
         y="394.07999"
         transform="matrix(-0.3497,0.9369,-0.9369,-0.3497,485.539,467.172)"
         width="1.66"
         height="16.040001"
         id="rect671" /><path
         style="fill:#1c4670"
         inkscape:connector-curvature="0"
         d="m 93.75,408.08 c 0.56,-0.13 1.09,0.05 0.42,0.46 -0.85,0.51 -2.6,1.48 -4.81,0.46 -2.34,-1.07 -1.79,-3.82 -1.35,-5.02 l 2.83,1.06 c -1.44,3.75 2.36,3.17 2.91,3.04 z"
         id="path673" /><path
         style="fill:#1c4670"
         inkscape:connector-curvature="0"
         d="m 69.52,401.58 c -2.34,-0.69 -3.02,-2.56 -3.33,-3.5 -0.24,-0.75 0.28,-0.54 0.62,-0.07 0.34,0.47 2.82,3.39 4.19,-0.39 l 2.83,1.06 c -0.46,1.19 -1.85,3.62 -4.31,2.9 z"
         id="path675" /></g><g
       id="g703"><g
         id="g687"><rect
           style="fill:#fcd751"
           x="81.910004"
           y="387.76999"
           transform="matrix(0.937,0.3492,-0.3492,0.937,143.1999,-3.9482)"
           width="1.28"
           height="14.74"
           id="rect679" /><rect
           style="fill:#ffa229"
           x="83.110001"
           y="388.22"
           transform="rotate(-159.48821,83.754056,395.5902)"
           width="1.28"
           height="14.74"
           id="rect681" /><path
           style="fill:#fcd751"
           inkscape:connector-curvature="0"
           d="m 85.15,390.01 c 0,0 -2.13,-1.18 -1.79,-2.15 0.34,-0.97 2.7,-3.77 3.84,-3.34 z"
           id="path683" /><path
           style="fill:#ffa229"
           inkscape:connector-curvature="0"
           d="m 85.15,390.01 c 0,0 2.38,0.51 2.76,-0.45 0.38,-0.96 0.44,-4.61 -0.71,-5.04 z"
           id="path685" /></g><g
         id="g701"><path
           style="fill:#aebfce"
           inkscape:connector-curvature="0"
           d="m 78.77,413.83 c -0.46,1.22 -1.82,1.85 -3.05,1.39 v 0 c -1.23,-0.46 -1.85,-1.82 -1.39,-3.05 l 4.12,-11 c 0.46,-1.23 1.82,-1.85 3.05,-1.39 v 0 c 1.23,0.46 1.85,1.82 1.39,3.05 z"
           id="path689" /><path
           style="fill:#768296"
           inkscape:connector-curvature="0"
           d="m 76.51,414.4 c -0.1,0.27 -0.37,0.42 -0.6,0.33 v 0 c -0.23,-0.08 -0.34,-0.37 -0.24,-0.64 l 4.57,-12.24 c 0.1,-0.27 0.37,-0.42 0.6,-0.33 v 0 c 0.23,0.09 0.34,0.37 0.24,0.64 z"
           id="path691" /><path
           style="fill:#768296"
           inkscape:connector-curvature="0"
           d="m 78.04,414.26 c -0.1,0.27 -0.37,0.42 -0.6,0.33 v 0 c -0.23,-0.09 -0.34,-0.37 -0.23,-0.64 l 4.57,-12.24 c 0.1,-0.27 0.37,-0.42 0.6,-0.33 v 0 c 0.23,0.09 0.34,0.38 0.24,0.64 z"
           id="path693" /><path
           style="fill:#768296"
           inkscape:connector-curvature="0"
           d="m 74.61,412.97 c -0.1,0.27 0.01,0.56 0.24,0.64 v 0 c 0.23,0.09 0.5,-0.06 0.6,-0.33 l 4.57,-12.24 c 0.1,-0.27 0,-0.56 -0.24,-0.64 v 0 c -0.23,-0.09 -0.5,0.06 -0.6,0.33 z"
           id="path695" /><path
           style="fill:#768296"
           inkscape:connector-curvature="0"
           d="m 84.04,401.98 c -0.23,0.61 -0.9,0.92 -1.51,0.69 l -3.7,-1.38 c -0.61,-0.23 -0.92,-0.91 -0.69,-1.52 v 0 c 0.23,-0.61 0.9,-0.92 1.51,-0.69 l 3.7,1.38 c 0.61,0.24 0.92,0.91 0.69,1.52 z"
           id="path697" /><path
           style="fill:#768296"
           inkscape:connector-curvature="0"
           d="m 83.71,401.56 c -0.18,0.47 -0.74,0.69 -1.26,0.5 l -3.16,-1.18 c -0.52,-0.2 -0.8,-0.73 -0.63,-1.2 v 0 c 0.17,-0.47 0.74,-0.69 1.26,-0.5 l 3.16,1.18 c 0.52,0.2 0.8,0.73 0.63,1.2 z"
           id="path699" /></g></g></g><g
     id="g733"><g
       id="g711"><path
         style="fill:#1c4670"
         inkscape:connector-curvature="0"
         d="m 72.97,374.46 -4.71,-8.15 c -0.19,-0.33 -0.57,-0.47 -0.92,-0.38 -0.35,-0.09 -0.73,0.06 -0.92,0.38 l -4.71,8.15 c -0.23,0.39 -0.09,0.9 0.3,1.13 0.4,0.23 0.9,0.09 1.13,-0.3 l 4.2,-7.27 4.2,7.27 c 0.23,0.4 0.73,0.53 1.13,0.3 0.39,-0.23 0.52,-0.73 0.3,-1.13 z"
         id="path707" /><path
         style="fill:#1c4670"
         inkscape:connector-curvature="0"
         d="m 68.33,375.38 c 0,0.55 -0.45,1 -1,1 v 0 c -0.55,0 -1,-0.45 -1,-1 v -11.35 c 0,-0.55 0.45,-1 1,-1 v 0 c 0.55,0 1,0.45 1,1 z"
         id="path709" /></g><path
       style="fill:#aebfce"
       inkscape:connector-curvature="0"
       d="m 80.8,362.98 c 0,0.78 -0.64,1.41 -1.42,1.41 H 55.29 c -0.78,0 -1.41,-0.64 -1.41,-1.41 v -16.03 c 0,-0.78 0.64,-1.41 1.41,-1.41 h 24.09 c 0.78,0 1.42,0.64 1.42,1.41 z"
       id="path713" /><g
       id="g729"><rect
         style="fill:#fcd751"
         x="62.139999"
         y="354.85999"
         width="1.8"
         height="6.3800001"
         id="rect715" /><rect
         style="fill:#fcd751"
         x="65.25"
         y="351.95001"
         width="1.8"
         height="9.29"
         id="rect717" /><rect
         style="fill:#fcd751"
         x="69.169998"
         y="356.70001"
         width="1.8"
         height="4.54"
         id="rect719" /><rect
         style="fill:#fcd751"
         x="72.690002"
         y="354.85999"
         width="1.8"
         height="6.3800001"
         id="rect721" /><polygon
         style="fill:#ffffff"
         points="62.3,354.18 62.7,354.38 66.22,349.75 69.95,356.2 73.03,352.42 73.6,352.74 73.59,350.99 72.06,351.89 72.64,352.21 70.02,355.43 66.27,348.95 "
         id="polygon723" /><rect
         style="fill:#ffffff"
         x="59.91"
         y="348.95001"
         width="0.54000002"
         height="13.76"
         id="rect725" /><rect
         style="fill:#ffffff"
         x="58.57"
         y="361.23999"
         width="17.530001"
         height="0.49000001"
         id="rect727" /></g><path
       style="fill:#1c4670"
       inkscape:connector-curvature="0"
       d="m 81.72,345.74 c 0,0.78 -0.63,1.41 -1.42,1.41 H 54.37 c -0.78,0 -1.41,-0.63 -1.41,-1.41 v 0 c 0,-0.78 0.63,-1.41 1.41,-1.41 H 80.3 c 0.78,0 1.42,0.63 1.42,1.41 z"
       id="path731" /></g><g
     id="g737"><path
       style="fill:#768296"
       inkscape:connector-curvature="0"
       d="m 87.42,398.02 -0.58,-0.54 c 4.62,-4.97 7.17,-11.44 7.17,-18.23 0,-6.35 -2.26,-12.5 -6.37,-17.33 l 0.61,-0.52 c 4.23,4.97 6.56,11.31 6.56,17.85 -0.01,6.98 -2.63,13.65 -7.39,18.77 z"
       id="path735" /></g><g
     id="g741"><path
       style="fill:#768296"
       inkscape:connector-curvature="0"
       d="m 40.45,379.24 h -0.8 c 0,-8.91 4.34,-17.31 11.61,-22.48 l 0.46,0.65 c -7.06,5.02 -11.27,13.18 -11.27,21.83 z"
       id="path739" /></g><g
     id="g745"><path
       style="fill:#768296"
       inkscape:connector-curvature="0"
       d="m 67.23,406.82 c -5.12,0 -10.12,-1.41 -14.46,-4.09 l 0.42,-0.68 c 4.21,2.6 9.07,3.97 14.04,3.97 2.09,0 4.17,-0.24 6.18,-0.72 l 0.18,0.77 c -2.07,0.5 -4.21,0.75 -6.36,0.75 z"
       id="path743" /></g><g
     id="g773"><g
       id="g749"><path
         style="fill:#1c4670"
         inkscape:connector-curvature="0"
         d="m 77.75,369.19 c -2.18,0 -4.22,-0.85 -5.76,-2.39 -1.54,-1.54 -2.39,-3.59 -2.39,-5.76 0,-2.18 0.85,-4.23 2.39,-5.77 1.54,-1.54 3.59,-2.39 5.77,-2.39 2.18,0 4.23,0.85 5.76,2.39 3.18,3.18 3.18,8.35 0,11.53 -1.55,1.54 -3.6,2.39 -5.77,2.39 z m 0,-13.92 c -1.54,0 -2.99,0.6 -4.08,1.69 -1.09,1.09 -1.69,2.54 -1.69,4.08 0,1.54 0.6,2.99 1.69,4.08 1.09,1.09 2.54,1.69 4.08,1.69 1.54,0 2.99,-0.6 4.08,-1.69 2.25,-2.25 2.25,-5.9 0,-8.15 -1.09,-1.1 -2.54,-1.7 -4.08,-1.7 z"
         id="path747" /></g><g
       id="g753"><rect
         style="fill:#1c4670"
         x="81.800003"
         y="366.54999"
         transform="matrix(0.707,0.7072,-0.7072,0.707,284.8073,48.0217)"
         width="5.3000002"
         height="2.3900001"
         id="rect751" /></g><path
       style="fill:#ffa229"
       inkscape:connector-curvature="0"
       d="m 97.14,377.85 c 0.42,0.42 0.42,1.11 0,1.53 l -1.05,1.05 c -0.42,0.42 -1.1,0.42 -1.53,0 l -9.94,-9.94 c -0.42,-0.42 -0.42,-1.11 0,-1.53 l 1.05,-1.05 c 0.42,-0.42 1.11,-0.42 1.53,0 z"
       id="path755" /><g
       id="g759"><rect
         style="fill:#1c4670"
         x="86.489998"
         y="368.35999"
         transform="matrix(0.7056,0.7086,-0.7086,0.7056,287.911,47.4172)"
         width="0.80000001"
         height="3.6500001"
         id="rect757" /></g><g
       id="g763"><rect
         style="fill:#1c4670"
         x="87.389999"
         y="369.25"
         transform="matrix(0.7074,0.7068,-0.7068,0.7074,287.9626,46.5261)"
         width="0.80000001"
         height="3.6500001"
         id="rect761" /></g><g
       id="g767"><rect
         style="fill:#1c4670"
         x="94.459999"
         y="376.32999"
         transform="matrix(0.7065,0.7077,-0.7077,0.7065,295.4668,43.8573)"
         width="0.79000002"
         height="3.6500001"
         id="rect765" /></g><g
       id="g771"><rect
         style="fill:#1c4670"
         x="93.57"
         y="375.42999"
         transform="matrix(0.7077,0.7065,-0.7065,0.7077,293.9947,43.8782)"
         width="0.80000001"
         height="3.6500001"
         id="rect769" /></g></g></g></svg>